<?xml version="1.0" standalone="no"?>
<!DOCTYPE svg PUBLIC "-//W3C//DTD SVG 1.1//EN" "http://www.w3.org/Graphics/SVG/1.1/DTD/svg11.dtd" >
<svg xmlns="http://www.w3.org/2000/svg" xmlns:xlink="http://www.w3.org/1999/xlink" version="1.1">
<metadata>
Created by FontForge 20170731 at Wed Jul 19 17:19:27 2017
 By Aleksey,,,
Copyright (c) 2015, Marcelo Magalhaes
</metadata>
<defs>
<font id="Coiny-Regular" horiz-adv-x="624" >
  <font-face 
    font-family="Coiny"
    font-weight="400"
    font-stretch="normal"
    units-per-em="1000"
    panose-1="2 0 9 3 6 5 0 6 0 0"
    ascent="750"
    descent="-250"
    x-height="476"
    cap-height="685"
    bbox="-429 -466 3212 1311"
    underline-thickness="50"
    underline-position="-240"
    unicode-range="U+0020-FB04"
  />
<missing-glyph horiz-adv-x="1074" 
d="M475 147q0 11 -2 20.5t-6 17.5t-10 12.5t-14 4.5q-16 0 -25.5 -16.5t-9.5 -39t9 -38t25.5 -15.5t24.5 15.5t8 38.5zM434 -5q-196 0 -305 71.5t-109 188.5q0 128 100.5 187.5t336.5 59.5h517q43 0 61.5 -14.5t18.5 -49.5q0 -30 -20.5 -45t-66.5 -15h-60v-271
q0 -60 -25.5 -83.5t-88.5 -23.5q-59 0 -80 27.5t-21 90.5v260h-257q-97 0 -147 -35.5t-50 -114.5q0 -40 21 -72q2 68 54.5 106.5t128.5 38.5q50 0 91 -18t66 -54t25 -83q0 -70 -53 -110.5t-129 -40.5h-8z" />
    <glyph glyph-name=".notdef" horiz-adv-x="1074" 
d="M475 147q0 11 -2 20.5t-6 17.5t-10 12.5t-14 4.5q-16 0 -25.5 -16.5t-9.5 -39t9 -38t25.5 -15.5t24.5 15.5t8 38.5zM434 -5q-196 0 -305 71.5t-109 188.5q0 128 100.5 187.5t336.5 59.5h517q43 0 61.5 -14.5t18.5 -49.5q0 -30 -20.5 -45t-66.5 -15h-60v-271
q0 -60 -25.5 -83.5t-88.5 -23.5q-59 0 -80 27.5t-21 90.5v260h-257q-97 0 -147 -35.5t-50 -114.5q0 -40 21 -72q2 68 54.5 106.5t128.5 38.5q50 0 91 -18t66 -54t25 -83q0 -70 -53 -110.5t-129 -40.5h-8z" />
    <glyph glyph-name=".null" horiz-adv-x="0" 
 />
    <glyph glyph-name="nonmarkingreturn" horiz-adv-x="333" 
 />
    <glyph glyph-name="space" unicode=" " horiz-adv-x="270" 
 />
    <glyph glyph-name="exclam" unicode="!" horiz-adv-x="349" 
d="M63 69q0 40 31.5 58t78.5 18q119 0 119 -76q0 -37 -32 -56.5t-87 -19.5q-52 0 -81 21.5t-29 54.5zM293 602q0 -51 -20 -170t-20 -168q0 -41 -19 -60t-62 -19q-42 0 -59 19.5t-17 62.5q0 48 -20 162t-20 162q0 50 24.5 75t88.5 25q67 0 95.5 -21t28.5 -68z" />
    <glyph glyph-name="quotedbl" unicode="&#x22;" horiz-adv-x="587" 
d="M63 597q0 34 28.5 55t79.5 21q35 0 60.5 -8t43.5 -30t18 -57q0 -28 -8 -53.5t-21 -45.5t-30.5 -37t-36.5 -29t-38.5 -20.5t-36.5 -12.5t-30 -4q-17 0 -28 10.5t-11 26.5q0 22 15 29q45 22 66 37.5t38 41.5q-47 0 -78 18t-31 58zM322 597q0 34 28 55t80 21q54 0 88 -22
t34 -73q0 -90 -71 -146t-130 -56q-18 0 -28.5 10.5t-10.5 26.5q0 22 15 29q45 22 66 37.5t37 41.5q-47 0 -77.5 18t-30.5 58z" />
    <glyph glyph-name="numbersign" unicode="#" horiz-adv-x="703" 
d="M293 272l-17 -62h117l17 62h-117zM615 407q35 0 55 -17.5t20 -50.5q0 -70 -86 -70h-42l-16 -55h30q23 0 40 -8t26 -23.5t9 -36.5q0 -70 -86 -70h-57l-6 -21q-16 -61 -76 -61q-25 0 -42.5 8.5t-25 22t-7.5 31.5q0 5 2 20h-111l-5 -20q-17 -61 -77 -61q-37 0 -56 17t-19 45
q0 4 2 19q-70 4 -70 67q0 71 87 71h21l16 55h-8q-81 0 -81 67q0 71 87 71h41l6 22q9 32 28 43t55 11q27 0 47 -17t20 -43q0 -8 -2 -16h111l6 21q9 32 28.5 43.5t55.5 11.5q27 0 47 -17.5t20 -43.5q0 -7 -2 -15h15z" />
    <glyph glyph-name="dollar" unicode="$" horiz-adv-x="720" 
d="M258 683l1 32q1 45 26 67t68 22q46 0 70 -16t24 -64v-41q86 -17 141 -59t55 -85q0 -15 -6.5 -25.5t-16 -15t-20.5 -4.5q-18 0 -54 18.5t-80 37t-81 18.5q-59 0 -59 -48q0 -15 9.5 -28.5t30.5 -28t41 -25.5t55 -29.5t59 -32.5q77 -44 108 -84t31 -92q0 -178 -209 -203v-33
q0 -58 -23 -79.5t-73 -21.5q-48 0 -70.5 21t-22.5 72v51q-60 15 -108 42t-72.5 56.5t-24.5 55.5q0 22 14.5 37.5t42.5 15.5q21 0 101 -26.5t129 -26.5q45 0 45 31q0 9 -3.5 16.5t-12 15t-19 14t-29 16.5l-37 20t-48.5 26t-58 32q-54 31 -84 79.5t-30 90.5q0 67 49 115.5
t141 65.5z" />
    <glyph glyph-name="percent" unicode="%" horiz-adv-x="893" 
d="M438 50q-14 -35 -33 -51t-50 -16q-48 0 -90.5 30.5t-42.5 68.5q0 16 11 43l226 549q12 28 30.5 41t49.5 13q48 0 91.5 -28t43.5 -65q0 -15 -8 -36zM171 371q-69 0 -111 35.5t-42 113.5q0 83 40.5 118t112.5 35q34 0 61 -8.5t47.5 -26.5t32 -48t11.5 -70
q0 -78 -41.5 -113.5t-110.5 -35.5zM194 520q0 7 -0.5 13.5t-2 13t-3.5 12t-4 9.5t-5.5 6.5t-7.5 2.5q-11 0 -17.5 -17.5t-6.5 -39.5q0 -21 6.5 -37t17.5 -16q12 0 17.5 15.5t5.5 37.5zM712 -12q-70 0 -112 35t-42 113q0 84 41 119t113 35q69 0 110 -37.5t41 -116.5
q0 -78 -41 -113t-110 -35zM734 136q0 15 -2.5 27.5t-7.5 21t-12 8.5q-12 0 -18.5 -17.5t-6.5 -39.5q0 -21 6.5 -36.5t18.5 -15.5q7 0 12.5 8t7.5 19.5t2 24.5z" />
    <glyph glyph-name="ampersand" unicode="&#x26;" horiz-adv-x="838" 
d="M408 154l-123 131q-19 -9 -32.5 -25t-13.5 -34q0 -25 13.5 -44t36 -28.5t49.5 -9.5q38 0 70 10zM91 528q0 51 34.5 87.5t89 52.5t124.5 16q56 0 103 -10.5t80 -30.5t51.5 -49.5t18.5 -65.5q0 -93 -83 -151q51 -63 107 -127q18 37 38 80q9 21 23.5 27.5t42 6.5t44 -14
t16.5 -40q0 -34 -16.5 -84t-37.5 -86q8 -15 30.5 -31.5t39.5 -30t17 -27.5q0 -20 -16 -39t-55 -19q-36 0 -61 8t-48.5 23.5t-28.5 17.5q-141 -49 -275 -49q-71 0 -127 14.5t-90.5 36.5t-58 51.5t-32.5 58t-9 56.5q0 67 38.5 116.5t97.5 73.5q-57 53 -57 128zM384 529
q0 19 -4.5 33.5t-14.5 23t-24 8.5q-21 0 -32.5 -18.5t-11.5 -47.5q0 -30 11.5 -52.5t32.5 -22.5t32 22.5t11 53.5z" />
    <glyph glyph-name="quotesingle" unicode="'" horiz-adv-x="330" 
d="M53 597q0 34 28 55t80 21q34 0 60 -8t44 -30t18 -57q0 -28 -8 -53.5t-21.5 -45.5t-31 -37t-36.5 -29t-38 -20.5t-36 -12.5t-30 -4q-18 0 -28.5 10.5t-10.5 26.5q0 22 15 29q45 22 66 37.5t37 41.5q-47 0 -77.5 18t-30.5 58z" />
    <glyph glyph-name="parenleft" unicode="(" horiz-adv-x="434" 
d="M303 321q0 -68 10.5 -138.5t23.5 -117.5t23.5 -93t10.5 -71q0 -19 -7.5 -32.5t-19 -19t-25.5 -5.5q-39 0 -82.5 36t-82 96.5t-64 152t-25.5 191.5t25.5 191.5t64 152t82.5 96.5t82 36q22 0 37 -15t15 -43q0 -29 -17 -93t-34 -151.5t-17 -172.5z" />
    <glyph glyph-name="parenright" unicode=")" horiz-adv-x="409" 
d="M145 321q0 85 -17 172.5t-34.5 151.5t-17.5 93q0 28 15.5 43t37.5 15q38 0 82 -36t82.5 -96.5t64 -152t25.5 -191.5q0 -58 -9 -114t-24 -102.5t-35.5 -88t-43.5 -72.5t-47.5 -53.5t-48.5 -34t-46 -11.5t-37.5 14.5t-15.5 42.5q0 29 17.5 93.5t34.5 152.5t17 174z" />
    <glyph glyph-name="asterisk" unicode="*" horiz-adv-x="568" 
d="M212 747q0 22 2.5 38t8.5 27.5t15.5 18t22 9.5t29.5 3q37 0 52 -25t15 -80v-37l59 21q34 12 55 12q17 0 32.5 -10t25 -29t9.5 -41.5t-20 -39.5t-62 -32l-39 -14l45 -63q22 -32 22 -56q0 -26 -25 -48.5t-52 -22.5q-33 0 -63 41l-61 88l-62 -88q-29 -41 -62 -41
q-27 0 -52 22.5t-25 47.5t22 57l45 64l-37 13q-42 15 -62 32t-20 40q0 34 20.5 57t46.5 23q22 0 56 -12l59 -21v46z" />
    <glyph glyph-name="plus" unicode="+" horiz-adv-x="552" 
d="M401 314q59 0 82.5 -19.5t23.5 -66.5q0 -41 -27.5 -57t-88.5 -16h-39v-63q0 -90 -77 -90q-83 0 -83 97v56h-60q-89 0 -89 77q0 38 19.5 60t72.5 22h57v47q0 59 19.5 82t67.5 23q27 0 43 -12.5t23 -37.5t7 -66v-36h49z" />
    <glyph glyph-name="comma" unicode="," horiz-adv-x="311" 
d="M40 69q0 22 12 39t36.5 27t59.5 10q54 0 88 -22t34 -74q0 -38 -15 -72t-38.5 -57t-51 -39.5t-52.5 -24.5t-44 -8q-18 0 -28.5 10.5t-10.5 26.5q0 21 15 28q45 22 66 38t37 42q-47 0 -77.5 18t-30.5 58z" />
    <glyph glyph-name="hyphen" unicode="-" horiz-adv-x="393" 
d="M262 346q36 0 57 -7.5t30 -24.5t9 -46q0 -37 -25 -51.5t-80 -14.5h-137q-81 0 -81 70q0 74 88 74h139z" />
    <glyph glyph-name="period" unicode="." horiz-adv-x="283" 
d="M30 69q0 34 28.5 55t80.5 21q109 0 109 -76q0 -29 -14 -46.5t-37 -23.5t-58 -6q-47 0 -78 18t-31 58z" />
    <glyph glyph-name="slash" unicode="/" horiz-adv-x="546" 
d="M291 620l206 -508q8 -21 8 -36q0 -36 -44 -64.5t-92 -28.5q-30 0 -49 13t-31 41l-203 508q-11 27 -11 42q0 38 42.5 68.5t89.5 30.5q31 0 50 -16t34 -50z" />
    <glyph glyph-name="zero" unicode="0" horiz-adv-x="660" 
d="M330 -6q-64 0 -115.5 17.5t-93 55.5t-64 104t-22.5 155q0 96 22 164t63 106t92 55t118 17q65 0 117 -19.5t91.5 -59.5t61 -106.5t21.5 -156.5t-22 -155.5t-62.5 -103.5t-92 -55.5t-114.5 -17.5zM402 326.5q0 76.5 -19 135.5t-53 59q-24 0 -41.5 -30t-25.5 -73.5t-8 -91.5
q0 -74 19.5 -130t55.5 -56t54 55t18 131.5z" />
    <glyph glyph-name="one" unicode="1" horiz-adv-x="434" 
d="M372 151q0 -81 -29 -115.5t-88 -34.5q-39 0 -63 12t-36.5 44t-13.5 86l-2 373q-48 0 -79 17.5t-31 58.5q0 33 28.5 54.5t79.5 21.5q20 0 56.5 -0.5t51.5 -0.5q74 0 99.5 -24.5t25.5 -85.5z" />
    <glyph glyph-name="two" unicode="2" horiz-adv-x="582" 
d="M351 186h111q84 0 84 -94q0 -53 -26.5 -75.5t-94.5 -22.5h-271q-70 0 -95.5 18.5t-25.5 79.5q0 20 4 34.5t15 28.5t30 27q54 36 85 58t60.5 46.5t43.5 42t25.5 39.5t15 44t3.5 52q0 56 -35 56q-38 0 -38 -66q0 -37 -24 -48t-71 -11q-64 0 -86.5 28t-22.5 93t61.5 108.5
t171.5 43.5q272 0 272 -207q0 -48 -11 -87.5t-27 -66t-43.5 -50.5t-51.5 -39t-59 -32z" />
    <glyph glyph-name="three" unicode="3" horiz-adv-x="586" 
d="M318 451q0 49 -91 49q-19 0 -51.5 -3.5t-47.5 -3.5q-72 0 -72 86q0 89 208 89q135 0 202 -44t67 -115q0 -99 -86 -158q58 -31 81.5 -64.5t23.5 -96.5q0 -87 -68.5 -141.5t-183.5 -54.5q-144 0 -206.5 29.5t-62.5 89.5q0 50 20 68.5t56 18.5q18 0 56 -4t58 -4
q109 0 109 40q0 27 -21 37.5t-79 10.5t-82 15t-24 56q0 62 82 62q53 0 78.5 5t29.5 11.5t4 21.5z" />
    <glyph glyph-name="four" unicode="4" horiz-adv-x="680" 
d="M456 1q-59 0 -86 32.5t-27 113.5h-185q-65 0 -96.5 31t-31.5 80q0 53 27 94q71 111 160 240q52 76 143 76l87 -1q73 0 99 -24.5t26 -85.5v-264q43 -4 59 -21t16 -54q0 -38 -17 -52.5t-58 -17.5q0 -79 -29 -113t-87 -34zM342 289l3 213l-134 -213h131z" />
    <glyph glyph-name="five" unicode="5" horiz-adv-x="595" 
d="M475 506h-205l-2 -65q114 0 183 -27q105 -43 105 -180q0 -114 -73 -177t-221 -63q-120 0 -170 26.5t-50 82.5q0 98 69 98q18 0 63.5 -11t64.5 -11q46 0 68 12t22 43q0 56 -188 56q-52 0 -69 23t-17 92v179q0 42 25.5 62.5t89.5 20.5h284q47 0 64 -18t17 -71
q0 -39 -13.5 -55.5t-46.5 -16.5z" />
    <glyph glyph-name="six" unicode="6" horiz-adv-x="608" 
d="M253 405q52 16 101 16q63 0 113 -24.5t78.5 -68t28.5 -98.5q0 -74 -31.5 -128.5t-87 -83t-128.5 -28.5q-57 0 -103.5 13.5t-78 37.5t-54 54t-34.5 67.5t-17.5 73.5t-5.5 74q0 82 19 147t59 115t107.5 77.5t159.5 27.5q80 0 135 -34.5t55 -88.5q0 -34 -21.5 -60.5
t-57.5 -26.5q-17 0 -53.5 16t-65.5 16q-42 0 -76 -27t-42 -67zM369 215q0 43 -13 75.5t-37 32.5q-25 0 -39.5 -33t-14.5 -75q0 -40 14 -70.5t39.5 -30.5t38 30t12.5 71z" />
    <glyph glyph-name="seven" unicode="7" horiz-adv-x="590" 
d="M108 106q0 52 16.5 112t40 109t47.5 90.5t40 64.5l17 24h-138q-59 0 -80.5 18t-21.5 61q0 51 24.5 66.5t86.5 15.5l296 1q71 0 99.5 -19t28.5 -79q0 -6 -0.5 -12t-2.5 -11.5t-3 -9.5t-4.5 -9.5t-5 -8.5t-7 -9t-7.5 -8.5t-9 -10.5t-10 -11q-85 -94 -123 -181t-55 -186
q-12 -72 -34 -92t-82 -20q-55 0 -84 27.5t-29 77.5z" />
    <glyph glyph-name="eight" unicode="8" horiz-adv-x="615" 
d="M305 -6q-77 0 -138.5 22t-99 66.5t-37.5 104.5q0 108 101 162q-68 50 -68 133q0 87 68 137.5t175 50.5t174.5 -50.5t67.5 -137.5q0 -83 -68 -133q99 -55 99 -162q0 -90 -77.5 -141.5t-196.5 -51.5zM356 189q0 39 -13 68.5t-37 29.5q-25 0 -39 -30t-14 -68
q0 -24 5.5 -45.5t18 -36t29.5 -14.5q25 0 37.5 28.5t12.5 67.5zM354 491q0 31 -12.5 54.5t-34.5 23.5q-16 0 -27.5 -13t-17 -32t-5.5 -40q0 -34 13 -59t36.5 -25t35.5 27t12 64z" />
    <glyph glyph-name="nine" unicode="9" horiz-adv-x="604" 
d="M354 256q-52 -16 -100 -16q-96 0 -158 60t-62 152q0 69 31 120t86.5 77.5t128.5 26.5q68 0 121 -20.5t85 -53t52.5 -77.5t28 -89.5t7.5 -93.5q0 -62 -11.5 -114.5t-37 -96.5t-64 -75t-95 -48t-127.5 -17q-81 0 -136 34t-55 88q0 34 22 61t57 27q17 0 54 -19t66 -19
q24 0 47 12t39 33.5t21 47.5zM233 446q0 -43 13 -75.5t37 -32.5q16 0 28.5 16.5t18.5 41t6 50.5q0 42 -14 74t-39 32t-37.5 -31t-12.5 -75z" />
    <glyph glyph-name="colon" unicode=":" horiz-adv-x="298" 
d="M38 68q0 34 28 55t80 21q109 0 109 -76q0 -43 -27.5 -59.5t-81.5 -16.5q-47 0 -77.5 18t-30.5 58zM38 407q0 34 28 55t80 21q109 0 109 -76q0 -42 -27.5 -59t-81.5 -17q-30 0 -53 7t-39 24.5t-16 44.5z" />
    <glyph glyph-name="semicolon" unicode=";" horiz-adv-x="313" 
d="M52 407q0 34 28.5 55t80.5 21q109 0 109 -76q0 -42 -28 -59t-81 -17q-30 0 -53.5 7t-39.5 24.5t-16 44.5zM50 69q0 34 28.5 55t79.5 21q20 0 37.5 -3t33.5 -9.5t27 -17.5t17.5 -27.5t6.5 -38.5q0 -38 -15 -72t-38 -57t-51 -39.5t-53 -24.5t-44 -8q-17 0 -27.5 10.5
t-10.5 26.5q0 21 14 28q45 22 66 38t38 42h-1q-46 0 -77 18t-31 58z" />
    <glyph glyph-name="less" unicode="&#x3c;" horiz-adv-x="446" 
d="M281 7l-203 151q-38 27 -38 77q0 47 35 74l174 142q53 41 96 41q21 0 43 -23t22 -52q0 -13 -6.5 -25t-19.5 -25t-37 -31l-119 -98l122 -93q40 -28 51 -46t11 -41q0 -29 -22 -52t-44 -23q-31 0 -65 24z" />
    <glyph glyph-name="equal" unicode="=" horiz-adv-x="559" 
d="M442 405q36 0 57 -8t30 -24.5t9 -46.5q0 -36 -25 -51t-80 -15h-329q-81 0 -81 70q0 75 87 75h332zM442 199q36 0 57 -8t30 -24.5t9 -45.5q0 -37 -25 -52t-80 -15h-329q-81 0 -81 70q0 75 87 75h332z" />
    <glyph glyph-name="greater" unicode="&#x3e;" horiz-adv-x="446" 
d="M165 7q-34 -24 -65 -24q-22 0 -44 23t-22 52q0 23 11 41t51 46l122 93l-119 98q-35 27 -49 44.5t-14 36.5q0 29 22 52t43 23q43 0 96 -41l174 -142q35 -27 35 -74q0 -50 -38 -77z" />
    <glyph glyph-name="question" unicode="?" horiz-adv-x="577" 
d="M142 69q0 40 31.5 58t79.5 18q118 0 118 -76q0 -37 -31.5 -56.5t-86.5 -19.5q-52 0 -81.5 21.5t-29.5 54.5zM526 511q0 -65 -30.5 -128.5t-73.5 -106.5t-87.5 -70t-74.5 -27q-73 0 -73 51q0 26 21 56.5t46 56t46 65.5t21 81q0 37 -15.5 67t-39.5 30q-26 0 -26 -25
q0 -5 7.5 -23.5t7.5 -31.5q0 -32 -21.5 -41.5t-64.5 -9.5q-76 0 -110.5 36t-34.5 77q0 123 233 123q131 0 200 -45t69 -135z" />
    <glyph glyph-name="at" unicode="@" horiz-adv-x="1030" 
d="M522 -184q-124 0 -221 32t-158.5 90t-93 137.5t-31.5 176.5q0 195 130 299.5t376 104.5q48 0 94 -4.5t95.5 -15.5t92 -27.5t81.5 -43t66.5 -60.5t43.5 -81.5t16 -103.5q0 -62 -19 -111t-60.5 -88.5t-115.5 -61.5t-176 -22q-53 0 -70 30q-52 -35 -122 -35q-64 0 -106 52
t-42 143q0 92 41.5 146.5t106.5 54.5t121 -46q21 40 70 40q44 0 68 -19t24 -69v-149q83 20 83 111q0 110 -69 154.5t-217 44.5q-70 0 -123.5 -12.5t-97.5 -41t-67.5 -80t-23.5 -124.5q0 -56 14.5 -101.5t46 -83t89 -58t137.5 -20.5q12 0 41 2t44 2q31 0 54 -24t23 -58
q0 -21 -8.5 -36t-21 -23.5t-32.5 -13t-38.5 -6t-44.5 -1.5zM560 153v152q-14 23 -36 23q-14 0 -25 -15.5t-16.5 -38t-5.5 -47.5q0 -14 2 -27.5t5.5 -25.5t9 -21.5t13 -15t16.5 -5.5q23 0 37 21z" />
    <glyph glyph-name="A" unicode="A" horiz-adv-x="712" 
d="M358 522q-43 0 -63.5 -25t-20.5 -89v-118h166v120q0 42 -10 67.5t-27.5 35t-44.5 9.5zM440 152h-166v-53q0 -51 -27 -75t-93 -24q-28 0 -46 8t-31.5 27t-20 55.5t-10 88t-3.5 130.5q0 69 14.5 126.5t39 97.5t55.5 70.5t67.5 47.5t71 25.5t69.5 8.5q42 0 83 -11.5
t83 -39.5t73.5 -69.5t51.5 -107.5t20 -148q0 -132 -9.5 -195.5t-32 -88.5t-69.5 -25q-66 0 -93 24t-27 75v53z" />
    <glyph glyph-name="B" unicode="B" horiz-adv-x="733" 
d="M445 492q0 42 -32.5 57.5t-108.5 15.5v-153q47 0 76.5 7t47 24.5t17.5 48.5zM458 225q0 33 -17 51t-49 25.5t-88 7.5v-173q78 0 116 19.5t38 69.5zM581 356q93 -55 93 -147q0 -40 -15.5 -76.5t-46 -66.5t-80.5 -47.5t-113 -17.5h-232q-61 0 -87.5 31t-26.5 111v423
q0 34 12 60t38.5 42t63.5 16h229q100 -1 166.5 -54.5t66.5 -137.5q0 -27 -4.5 -47.5t-13.5 -36.5t-21 -28t-29 -24z" />
    <glyph glyph-name="C" unicode="C" horiz-adv-x="783" 
d="M473 497q0 21 -17.5 36t-41.5 15q-48 0 -79 -54.5t-31 -123.5q0 -53 20 -95.5t58 -67.5t88 -25q37 0 71 14.5t55 32t43.5 32t39.5 14.5q22 0 38 -17.5t16 -36.5q0 -21 -12.5 -49t-39.5 -59.5t-63 -58t-89.5 -44t-112.5 -17.5q-78 0 -144.5 23.5t-115.5 67t-77 109.5
t-28 148q0 162 97 256t254 94q80 0 148 -27t108 -75t40 -105q0 -66 -44 -119.5t-114 -53.5q-40 0 -72 22t-32 63q0 19 18.5 53t18.5 48z" />
    <glyph glyph-name="D" unicode="D" horiz-adv-x="720" 
d="M299 136q26 0 45.5 5.5t37 20t28.5 38.5t17.5 61.5t6.5 88.5q0 57 -10 96.5t-29 60t-41.5 29t-54.5 9.5v-409zM329 684q156 0 250.5 -90t94.5 -248q0 -51 -9.5 -99t-31.5 -93.5t-55 -79t-84 -54t-115 -20.5h-197q-61 0 -87.5 31t-26.5 112v422q0 119 114 119h147z" />
    <glyph glyph-name="E" unicode="E" horiz-adv-x="672" 
d="M471 406q53 0 74.5 -17t21.5 -58q0 -34 -25.5 -48.5t-79.5 -14.5h-162v-106l217 -1q56 0 80.5 -16.5t24.5 -58.5q0 -48 -28.5 -67t-86.5 -19h-324q-59 0 -86.5 31.5t-27.5 111.5v422q0 120 114 120h324q58 0 86.5 -18t28.5 -65q0 -44 -24.5 -61.5t-80.5 -17.5h-218v-117
h172z" />
    <glyph glyph-name="F" unicode="F" horiz-adv-x="645" 
d="M292 139q0 -68 -30 -103.5t-87 -35.5q-54 0 -84 32.5t-30 110.5v422q0 32 8.5 55.5t24.5 37.5t36 20.5t45 6.5h328q58 0 86.5 -18t28.5 -65q0 -44 -24.5 -61.5t-80.5 -17.5h-221v-117h176q27 0 45.5 -4t30 -13.5t16 -23t4.5 -34.5q0 -34 -25 -48.5t-80 -14.5h-167v-129z
" />
    <glyph glyph-name="G" unicode="G" horiz-adv-x="782" 
d="M452 517q0 31 -41 31q-42 0 -72 -47t-30 -157q0 -102 34.5 -148.5t81.5 -46.5q15 0 27.5 6t20.5 18t8 29q-24 0 -41.5 9t-25.5 22.5t-8 29.5q0 36 19 54t65 18h121q58 0 90 -25t32 -88q0 -92 -88 -160.5t-209 -68.5q-111 0 -197.5 40t-137 119.5t-50.5 188.5
q0 162 98 256t260 94q64 0 115 -9.5t84.5 -25.5t56 -38.5t32 -47.5t9.5 -52q0 -19 -6 -36.5t-21.5 -35t-47.5 -28.5t-77 -11q-66 0 -84 19.5t-18 90.5z" />
    <glyph glyph-name="H" unicode="H" horiz-adv-x="780" 
d="M723 150q0 -81 -29 -115.5t-88 -34.5q-58 0 -85 31.5t-27 111.5l-1 113h-204v-106q0 -82 -28 -116t-89 -34q-58 0 -85 31.5t-27 111.5l-3 422q0 62 31.5 91t83.5 29q60 0 88.5 -22t28.5 -89v-168h203v159q0 42 15.5 69.5t40 39t58.5 11.5q58 0 87.5 -22t29.5 -89v-424z
" />
    <glyph glyph-name="I" unicode="I" horiz-adv-x="364" 
d="M300 150q0 -78 -29 -114t-88 -36q-58 0 -85.5 31t-27.5 111v423q0 120 113 120q58 0 87.5 -22t29.5 -89v-424z" />
    <glyph glyph-name="J" unicode="J" horiz-adv-x="658" 
d="M266 199q0 -29 17 -46t38 -17q25 0 36 13.5t11 49.5v366q0 61 26.5 90.5t87.5 29.5q54 0 85 -25t31 -86v-371q0 -110 -66.5 -160t-195.5 -50q-41 0 -76 6t-62 16.5t-49.5 24.5t-38 31t-27.5 35.5t-18.5 38t-10 37t-3.5 35.5q0 67 22.5 91.5t88.5 24.5q53 0 81.5 -19
t28.5 -52q0 -10 -3 -32t-3 -31z" />
    <glyph glyph-name="K" unicode="K" horiz-adv-x="721" 
d="M529 329q51 -6 93 -51.5t42 -116.5q0 -69 -10 -102.5t-34 -46t-73 -12.5q-39 0 -64.5 11t-37.5 32.5t-12 55.5q0 44 -3.5 73.5t-9 47t-16.5 26.5t-21.5 11.5t-28.5 2.5h-53v-111q0 -80 -31 -114.5t-91 -34.5q-58 0 -85.5 32.5t-27.5 109.5v417q0 63 23.5 94.5t76.5 31.5
q31 0 51.5 -4t40 -14.5t29 -33t9.5 -57.5q0 -31 -0.5 -69.5t-0.5 -54.5q0 -13 6.5 -22t20 -14.5t33.5 -5.5q43 0 57.5 34t14.5 139q0 52 28 77t90 25q67 0 90 -26t23 -93q0 -110 -38.5 -170.5t-90.5 -66.5z" />
    <glyph glyph-name="L" unicode="L" horiz-adv-x="608" 
d="M192 0q-46 1 -74 14.5t-42 44.5t-14 83v423q0 53 31 86.5t82 33.5q60 0 88.5 -22t28.5 -89v-401h171q58 0 81.5 -17t23.5 -70q0 -54 -27 -70t-88 -16h-261z" />
    <glyph glyph-name="M" unicode="M" horiz-adv-x="949" 
d="M657 366l-125 -256q-16 -32 -34 -45.5t-43 -13.5q-32 0 -54 22.5t-57 81.5l-116 211v-283q0 -43 -19.5 -63t-58.5 -20q-44 0 -64 19.5t-20 76.5v436q0 77 35 116t118 39q31 0 54 -10.5t34.5 -24t22.5 -33.5l134 -293l142 288q37 72 133 72q45 0 77 -15.5t50.5 -50
t18.5 -86.5v-435q-1 -99 -125 -99q-45 0 -73.5 24.5t-29.5 79.5v262z" />
    <glyph glyph-name="N" unicode="N" horiz-adv-x="773" 
d="M706 95q0 -44 -26 -69.5t-76 -25.5q-13 0 -26 3t-27.5 11t-25.5 15t-27.5 21.5t-26 23t-29.5 27.5t-29 28l-183 173v-217q0 -49 -18.5 -67t-58.5 -18q-44 0 -65 20t-21 67v483q0 57 29 86t83 29q37 0 59.5 -11.5t53.5 -41.5l253 -252v218q0 43 21.5 64.5t58.5 21.5
q43 0 62 -20t19 -65v-504z" />
    <glyph glyph-name="O" unicode="O" horiz-adv-x="805" 
d="M402 140q34 0 58.5 30t35 74t10.5 94q0 51 -11 96.5t-35.5 77.5t-57.5 32q-32 0 -56 -32t-36 -78t-12 -96t11.5 -94t36 -74t56.5 -30zM401.5 -6q-98.5 0 -177 39.5t-125.5 118.5t-47 186q0 162 97.5 257.5t252.5 95.5t253 -95.5t98 -257.5q0 -107 -47.5 -186
t-126.5 -118.5t-177.5 -39.5z" />
    <glyph glyph-name="P" unicode="P" horiz-adv-x="700" 
d="M429 448q0 37 -7 58.5t-24.5 32.5t-38 14.5t-56.5 3.5v-220q28 0 49.5 5t39.5 17t27.5 34.5t9.5 54.5zM303 150q0 -81 -30 -115.5t-92 -34.5t-91 31.5t-29 111.5v422q0 61 33 90.5t87 29.5h178q65 0 120 -17.5t95.5 -49t63 -79t22.5 -105.5q0 -71 -41 -123.5t-108 -78.5
t-151 -26h-57v-56z" />
    <glyph glyph-name="Q" unicode="Q" horiz-adv-x="805" 
d="M670 -47q39 -2 58 -24t19 -74q0 -60 -32 -82.5t-90 -22.5t-109.5 16.5t-80 35.5t-50.5 42q-15 15 -27.5 38.5t-21.5 54.5t-11 64q-122 23 -197.5 111t-75.5 225q0 163 98.5 258t253.5 95q154 0 251.5 -95t97.5 -258q0 -131 -68.5 -217.5t-181.5 -114.5q41 -45 167 -52z
M506 337.5q0 51.5 -10.5 97t-34.5 77t-57 31.5t-57.5 -32t-36 -77.5t-11.5 -96.5q0 -29 4 -57t12.5 -53.5t20.5 -44.5t29.5 -30.5t38.5 -11.5q34 0 58 30t34 73t10 94.5z" />
    <glyph glyph-name="R" unicode="R" horiz-adv-x="720" 
d="M444 486q0 48 -35 66t-118 18v-173q78 0 115.5 19.5t37.5 69.5zM291 150q0 -150 -117 -150q-59 0 -86.5 31.5t-27.5 111.5v422q0 58 31.5 88.5t82.5 30.5h210q123 0 199 -57.5t76 -147.5q0 -68 -28.5 -106.5t-91.5 -56.5q48 -3 89 -46.5t41 -108.5q0 -66 -12.5 -101.5
t-35.5 -47.5t-65 -12q-59 0 -86.5 24.5t-27.5 74.5q0 62 -12 95.5t-31 43.5t-53 10l-55 -1v-97z" />
    <glyph glyph-name="S" unicode="S" horiz-adv-x="694" 
d="M342 692q119 0 203 -49t84 -104q0 -15 -6.5 -25.5t-16 -15t-20.5 -4.5q-18 0 -54 18.5t-80 37t-81 18.5q-59 0 -59 -48q0 -15 9.5 -28.5t30.5 -28t41 -25.5t55 -29.5t59 -32.5q77 -44 108 -84t31 -92q0 -207 -279 -207q-55 0 -106.5 11t-90 29t-68 40t-44.5 45t-15 43
q0 22 14.5 37.5t42.5 15.5q21 0 101 -26.5t129 -26.5q45 0 45 31q0 9 -3.5 16.5t-12 15t-19 14t-29 16.5l-37 20t-48.5 26t-58 32q-37 21 -63.5 52t-38.5 61.5t-12 56.5q0 84 75 137t213 53z" />
    <glyph glyph-name="T" unicode="T" horiz-adv-x="737" 
d="M492 150q0 -57 -14 -90.5t-38.5 -46.5t-64.5 -13q-59 0 -85.5 31.5t-27.5 111.5l-2 369h-85q-63 0 -94.5 20t-31.5 71q0 31 12.5 49t37.5 25.5t67 7.5h428q56 0 81 -20t25 -69q0 -33 -14.5 -51.5t-38.5 -25.5t-62 -7h-93v-362z" />
    <glyph glyph-name="U" unicode="U" horiz-adv-x="737" 
d="M674 565v-298q0 -146 -70.5 -209.5t-237.5 -63.5q-159 0 -233.5 68t-74.5 205v298q0 53 31.5 86.5t79.5 33.5q59 0 89.5 -22t30.5 -89v-326q1 -32 10.5 -51t25.5 -26.5t41 -7.5t41 6t23.5 19t10 26t2.5 34v327q0 34 8.5 57t26 34t36 15t44.5 4q58 0 87 -28t29 -92z" />
    <glyph glyph-name="V" unicode="V" horiz-adv-x="752" 
d="M372 163q51 0 66.5 26t15.5 89q0 30 0.5 138.5t0.5 165.5q0 53 25.5 77.5t87.5 24.5q55 0 82 -27.5t38 -100t11 -220.5q0 -63 -14.5 -115t-40 -88.5t-57.5 -64t-69 -43.5t-73 -24t-71 -8q-43 0 -86.5 10.5t-88 36.5t-78.5 63.5t-55.5 98t-21.5 134.5q0 148 12 220.5
t41 100t89 27.5q56 0 79 -24.5t23 -77.5q0 -58 0.5 -165.5t0.5 -137.5q0 -26 1.5 -41.5t6 -31.5t13.5 -24.5t24 -13.5t38 -5z" />
    <glyph glyph-name="W" unicode="W" horiz-adv-x="1020" 
d="M663 157q39 0 54 42.5t15 138.5l2 245q0 53 24.5 77.5t84.5 24.5q37 0 59.5 -12t38.5 -47t22 -95t6 -159q0 -59 -10 -110t-27 -89t-40.5 -68.5t-49.5 -50.5t-55 -33.5t-56.5 -19t-53.5 -5.5q-90 0 -163 57q-72 -59 -163 -59q-39 0 -78 11.5t-79.5 39.5t-71.5 69.5
t-50.5 108t-19.5 147.5q0 131 12.5 198t38 91t74.5 24q41 0 65 -11.5t34 -33.5t10 -57l1 -244q0 -96 15 -139t59 -43q22 0 33 18.5t15 59.5q-13 58 -13 181q0 69 3 110t9 71t20 43t31.5 18.5t48.5 5.5q18 0 31.5 -1t25.5 -6t20 -9t15 -15t11 -19t7.5 -26t5 -31.5t2 -40
t1 -46t0.5 -55.5q0 -126 -13 -186q4 -36 15 -53t34 -17z" />
    <glyph glyph-name="X" unicode="X" horiz-adv-x="763" 
d="M233 340l-137 133q-41 44 -41 84q0 49 42 87q46 41 82 41q44 0 77 -39l128 -164l106 142q49 60 110 60q42 0 78 -35q41 -42 41 -80q0 -44 -59 -105l-118 -112l135 -141q42 -47 42 -83q0 -50 -42 -87q-46 -42 -82 -42q-45 0 -77 39l-129 168l-106 -145q-47 -61 -109 -61
q-41 0 -78 37q-41 41 -41 79q0 41 58 105z" />
    <glyph glyph-name="Y" unicode="Y" horiz-adv-x="711" 
d="M470 150q0 -81 -29 -115.5t-89 -34.5q-58 0 -85 31.5t-28 111.5l-1 162l-154 180q-42 48 -42 83q0 55 42 87q40 30 71 30q43 0 77 -39l122 -142l102 119q51 61 109 61q43 0 67 -24q41 -41 41 -79q0 -21 -14 -44.5t-45 -60.5l-144 -176v-150z" />
    <glyph glyph-name="Z" unicode="Z" horiz-adv-x="757" 
d="M599 162q30 0 50 -4.5t31.5 -15t16 -24.5t4.5 -35q0 -51 -32 -67t-111 -16h-375q-28 0 -56.5 16.5t-47.5 46t-19 62.5q0 30 3.5 49.5t16.5 40.5t23.5 33.5t38.5 41.5l255 232h-203q-67 0 -97 19.5t-30 65.5q0 43 24.5 60.5t72.5 17.5h409q30 0 53 -10.5t35 -27t18 -32.5
t6 -30q0 -18 -1 -32t-5.5 -26.5t-6.5 -19.5t-11.5 -19t-13.5 -16t-19 -19.5t-21 -21.5l-292 -269h284z" />
    <glyph glyph-name="bracketleft" unicode="[" horiz-adv-x="478" 
d="M106 -48v739q0 60 26 84.5t99 24.5h108q52 0 80 -21t28 -54q0 -76 -121 -76v-656q121 0 121 -76q0 -34 -28 -55t-80 -21l-108 1q-73 0 -99 24t-26 86z" />
    <glyph glyph-name="backslash" unicode="\" horiz-adv-x="546" 
d="M275 50l-228 549q-9 21 -9 36q0 37 44 65t92 28q30 0 49 -13t31 -41l226 -549q10 -27 10 -43q0 -25 -20 -48t-51 -37t-61 -14q-31 0 -50 16t-33 51z" />
    <glyph glyph-name="bracketright" unicode="]" horiz-adv-x="477" 
d="M372 -48q0 -42 -10.5 -65t-37.5 -34t-77 -11l-108 -1q-52 0 -80 21t-28 55q0 40 34 58t87 18v656q-53 0 -87 18t-34 58q0 33 28 54t80 21h108q73 0 99 -24.5t26 -84.5v-739z" />
    <glyph glyph-name="asciicircum" unicode="^" horiz-adv-x="480" 
d="M376 268q51 -51 51 -84q0 -28 -22.5 -48.5t-49.5 -20.5q-24 0 -54 31q-5 6 -15 16q-14 15 -20 21t-13.5 10.5t-14 4.5t-14 -4.5t-12.5 -9.5t-15.5 -17t-16.5 -18q-30 -32 -58 -32q-29 0 -50.5 20t-21.5 47q0 8 2 15.5t4.5 12.5t8 13t8 11t10 11.5t9.5 10.5q69 81 145 81
q32 0 61 -13t42.5 -25t35.5 -33z" />
    <glyph glyph-name="underscore" unicode="_" horiz-adv-x="651" 
d="M546 142q44 0 61.5 -15t17.5 -56t-20.5 -56t-68.5 -15h-454q-34 0 -48.5 17.5t-14.5 52t15.5 53.5t54.5 19h457z" />
    <glyph glyph-name="grave" unicode="`" horiz-adv-x="371" 
d="M163 762l115 -72q1 -1 9.5 -7t10.5 -7.5t9 -7t9 -8.5t7 -8.5t6.5 -10.5t3 -12t1.5 -14q0 -25 -18.5 -42.5t-48.5 -17.5q-22 0 -46 8l-122 41q-62 23 -62 74q0 35 21.5 66t56.5 31q25 0 48 -13z" />
    <glyph glyph-name="a" unicode="a" 
d="M225 -6q-79 0 -131 64.5t-52 176.5q0 114 51.5 181.5t131.5 67.5q81 0 150 -57q27 50 87 50q54 0 84 -23.5t30 -86.5v-260q0 -60 -25 -83.5t-88 -23.5q-66 0 -87 37q-64 -43 -151 -43zM361 331q-17 29 -44 29q-26 0 -42 -38t-16 -87q0 -46 15 -82t42 -36q28 0 45 27v187z
" />
    <glyph glyph-name="b" unicode="b" horiz-adv-x="629" 
d="M267 436q66 49 143 49q78 0 130 -66t52 -167q0 -122 -79 -190.5t-205 -68.5q-77 0 -134.5 22t-90 66t-33.5 106l-2 377q0 62 30 91t80 29q56 0 82.5 -26.5t26.5 -84.5v-137zM268 153q18 -34 50 -34q27 0 42 34t15 78q0 24 -4 47t-11 41.5t-18 30t-25 11.5q-31 0 -49 -37
v-74.5v-96.5z" />
    <glyph glyph-name="c" unicode="c" horiz-adv-x="599" 
d="M342 374q0 23 -26 23q-19 0 -34 -21t-23 -52.5t-8 -65.5q0 -50 30.5 -81t82.5 -31q51 0 88 12q15 4 36.5 15t30.5 11q14 0 23 -5t12.5 -12t3.5 -15q0 -14 -9.5 -34t-29.5 -42t-46.5 -40.5t-65.5 -30.5t-82 -12q-124 0 -204 66.5t-80 182.5q0 74 36.5 129.5t100.5 84
t147 28.5q79 0 130.5 -18.5t73.5 -49.5t22 -74q0 -19 -7.5 -39t-23 -40t-45.5 -32.5t-70 -12.5q-18 0 -29.5 2t-24 8.5t-18.5 21.5t-6 38q0 20 7.5 48.5t7.5 37.5z" />
    <glyph glyph-name="d" unicode="d" horiz-adv-x="625" 
d="M579 150q0 -81 -27 -115.5t-83 -34.5q-64 0 -88 40q-65 -47 -157 -47q-78 0 -130 64.5t-52 176.5q0 114 51 181.5t131 67.5q72 0 135 -46v128q0 61 30 90.5t80 29.5q55 0 82.5 -22t27.5 -89v-424zM361 144l-1 187q-17 28 -44 28q-17 0 -30.5 -19t-20.5 -47t-7 -59
q0 -46 15 -82t42 -36q5 0 10 1t9 2.5t8 4t7 5.5t6 7z" />
    <glyph glyph-name="e" unicode="e" horiz-adv-x="595" 
d="M321 -6q-122 0 -201.5 63t-79.5 172q0 118 78.5 186.5t202.5 68.5q117 0 171.5 -41.5t54.5 -113.5q0 -14 -3.5 -27t-11 -25.5t-20 -23t-28.5 -19t-38 -13t-47 -4.5l-141 -1q10 -32 36 -50.5t66 -18.5q43 0 88 11q19 5 41.5 16t32.5 11q17 0 26.5 -10t9.5 -25
q0 -18 -16 -43.5t-44.5 -51t-75.5 -43.5t-101 -18zM253 280q69 1 75 1q15 0 22 18q5 13 5 36q0 63 -38 63q-14 0 -27.5 -15t-23.5 -42.5t-13 -60.5z" />
    <glyph glyph-name="f" unicode="f" horiz-adv-x="470" 
d="M339 526q-21 -17 -21 -79q67 0 93 -12.5t26 -54.5q0 -34 -28 -44.5t-91 -10.5v-175q0 -85 -26.5 -117.5t-83.5 -32.5q-56 0 -82 31.5t-26 111.5l1 182q-74 1 -74 58q0 59 75 63q1 129 37.5 183.5t140.5 54.5q83 0 129.5 -34t46.5 -69q0 -15 -12.5 -26.5t-35.5 -11.5
q-49 0 -69 -17z" />
    <glyph glyph-name="g" unicode="g" 
d="M228 -6q-79 0 -131 64.5t-52 177.5q0 114 51 181t131 67q81 0 150 -56q26 49 86 49q54 0 84.5 -24t30.5 -86v-183q0 -97 -12.5 -166.5t-43 -122.5t-84 -79t-131.5 -26q-54 0 -100 15t-73 37t-42 44t-15 38q0 19 11 32t31 13q12 0 60.5 -26t78.5 -26q102 0 102 105
q-58 -28 -132 -28zM364 144l-1 189q-17 28 -43 28q-18 0 -31.5 -19t-20 -47t-6.5 -59q0 -47 15 -82.5t42 -35.5t45 26z" />
    <glyph glyph-name="h" unicode="h" 
d="M359 268q0 57 -44 57q-8 0 -14.5 -2t-12 -5t-10 -8.5t-8 -12t-5 -15.5t-1.5 -20v-110q0 -82 -26.5 -116.5t-80.5 -34.5q-56 0 -82 31.5t-26 111.5l-2 426q0 62 30 91t80 29q53 0 80 -22t27 -89v-145q74 45 180 45q48 0 77 -24.5t43 -77.5t14 -139q0 -44 -1.5 -76
t-4.5 -58.5t-9 -43.5t-14 -29t-20.5 -18.5t-27.5 -9.5t-36 -3q-56 0 -80.5 20.5t-24.5 62.5z" />
    <glyph glyph-name="i" unicode="i" horiz-adv-x="305" 
d="M43 616q0 33 28.5 54.5t80.5 21.5q109 0 109 -76q0 -42 -27.5 -59t-81.5 -17q-47 0 -78 18t-31 58zM260 107q0 -60 -25 -83.5t-88 -23.5q-59 0 -80.5 27.5t-21.5 90.5v246q0 51 27.5 82t73.5 31q54 0 84 -23.5t30 -86.5v-260z" />
    <glyph glyph-name="j" unicode="j" horiz-adv-x="340" 
d="M288 372v-325q0 -112 -43 -181.5t-137 -69.5q-106 0 -171.5 32t-65.5 68q0 27 20.5 38.5t71.5 11.5q28 0 44 2.5t32.5 12t24 31t7.5 56.5v309q0 62 30.5 91t80.5 29q46 0 76 -30.5t30 -74.5zM68 616q0 33 28.5 54.5t80.5 21.5q109 0 109 -76q0 -42 -27.5 -59t-81.5 -17
q-47 0 -78 18t-31 58z" />
    <glyph glyph-name="k" unicode="k" horiz-adv-x="583" 
d="M302 142h-36q0 -52 -30 -97t-80 -45q-56 0 -82.5 31.5t-26.5 111.5v411q0 43 14 69.5t36.5 37.5t58.5 13q62 0 83 -41.5t21 -143.5q0 -79 -9 -139q7 -22 45 -22q24 0 32.5 10.5t8.5 42.5q0 47 24.5 68t83.5 21q62 0 83.5 -22.5t21.5 -81.5q0 -62 -37 -96t-83 -34
q47 0 83.5 -28.5t36.5 -85.5q0 -76 -20.5 -99t-84.5 -23q-59 0 -83.5 21.5t-24.5 67.5q0 23 -4 34.5t-10.5 15t-20.5 3.5z" />
    <glyph glyph-name="l" unicode="l" horiz-adv-x="312" 
d="M266 151q0 -81 -27 -116t-83 -35t-82 31.5t-26 111.5l-2 422q0 26 5.5 46t15 34t23.5 23t30.5 13t35.5 4q55 0 82.5 -22t27.5 -89v-423z" />
    <glyph glyph-name="m" unicode="m" horiz-adv-x="905" 
d="M639 264q0 56 -45 56q-20 0 -30 -23t-10 -58q0 -53 -1.5 -88t-6.5 -63t-12 -44t-19 -26.5t-27 -14t-38 -3.5q-35 0 -56.5 10t-30.5 28t-9 45v181q0 56 -45 56q-18 0 -29.5 -20.5t-11.5 -53.5v-139q0 -60 -25 -83.5t-88 -23.5q-59 0 -80.5 27.5t-21.5 90.5v246
q0 51 27.5 82t73.5 31q82 0 104 -53q38 28 74.5 39t85.5 11q74 0 107 -64l10 8q77 56 189 56q71 0 102 -54t31 -181q0 -53 -1.5 -88t-6.5 -63t-12.5 -44t-21 -26.5t-30 -14t-41.5 -3.5q-38 0 -61.5 10t-33.5 28t-10 45v181z" />
    <glyph glyph-name="n" unicode="n" horiz-adv-x="616" 
d="M353 269q0 56 -44 56q-21 0 -34.5 -17.5t-15.5 -46.5v-154q0 -61 -25 -84t-88 -23q-59 0 -80.5 27.5t-21.5 90.5v246q0 51 27.5 82t73.5 31q38 0 64 -11t39 -38q78 51 190 51q71 0 102.5 -56t31.5 -184q0 -63 -3 -102.5t-9.5 -68t-20.5 -42.5t-32.5 -20t-47.5 -6
q-56 0 -80.5 21t-24.5 62z" />
    <glyph glyph-name="o" unicode="o" horiz-adv-x="631" 
d="M369 237q0 52 -13 91.5t-38 39.5q-17 0 -30 -20t-19 -49t-6 -62q0 -51 14 -89.5t40 -38.5t39 38t13 90zM317 -7q-78 0 -140.5 28t-100 84t-37.5 131q0 114 78 181t200 67t199 -67t77 -181q0 -113 -78.5 -178t-197.5 -65z" />
    <glyph glyph-name="p" unicode="p" horiz-adv-x="621" 
d="M267 -58q0 -81 -27 -115.5t-83 -34.5t-82 31.5t-26 111.5l-2 422q0 62 30 91t80 29q39 0 63 -9.5t36 -37.5q69 54 148 54q80 0 131 -67t51 -182q0 -112 -52 -176.5t-131 -64.5q-76 0 -136 34v-86zM267 145q17 -28 45 -28q27 0 42 36t15 82q0 49 -16 87t-42 38
q-27 0 -44 -29v-186z" />
    <glyph glyph-name="q" unicode="q" horiz-adv-x="626" 
d="M366 43q-66 -49 -143 -49q-78 0 -130 66t-52 167q0 121 82.5 188.5t213.5 67.5q113 0 179.5 -49.5t66.5 -141.5l2 -377q0 -62 -30 -91t-80 -29q-54 0 -82 29.5t-28 81.5zM365 326q-17 34 -48 34q-25 0 -39 -34t-14 -78q0 -51 15 -90.5t39 -39.5q30 0 47 37v171z" />
    <glyph glyph-name="r" unicode="r" horiz-adv-x="472" 
d="M261 107q0 -60 -25 -83.5t-89 -23.5q-59 0 -80 27.5t-21 90.5v246q0 34 12 59.5t35 39.5t54 14q76 0 100 -44q58 44 112 44q105 0 105 -100q0 -40 -23 -65t-60 -25q-22 0 -35.5 9t-25 18t-26.5 9q-22 0 -33 -15v-201z" />
    <glyph glyph-name="s" unicode="s" horiz-adv-x="562" 
d="M281 484q93 0 155 -38t62 -83q0 -13 -11 -24t-28 -11q-15 0 -33 10.5t-34 22.5t-42 22t-55 10q-39 0 -39 -24q0 -17 20 -27t58.5 -21t58.5 -21q75 -29 103 -62.5t28 -88.5q0 -27 -15 -53.5t-45 -50t-81.5 -38t-117.5 -14.5q-129 0 -193 59q-31 29 -31 60q0 19 12.5 30
t35.5 11t70 -22.5t87 -22.5q55 0 55 27q0 14 -29 22.5t-76 20.5t-75 30q-44 19 -61.5 47.5t-17.5 69.5q0 70 66.5 114.5t172.5 44.5z" />
    <glyph glyph-name="t" unicode="t" horiz-adv-x="501" 
d="M96 214v118q-25 1 -40 8.5t-21.5 19.5t-6.5 30q0 57 69 62v93q0 38 55 68.5t109 30.5q33 0 43 -19t10 -57l1 -115h27q55 0 75.5 -14.5t20.5 -52.5q0 -16 -6 -27t-19.5 -17t-32.5 -8.5t-47 -2.5h-18v-110q0 -16 1.5 -26.5t4.5 -16.5t8.5 -8t13.5 -2q12 0 20 8.5t12.5 19
t12 19t17.5 8.5q23 0 35.5 -11t12.5 -27q0 -27 -10.5 -58t-30.5 -60t-55.5 -48t-79.5 -19q-99 0 -140 50t-41 164z" />
    <glyph glyph-name="u" unicode="u" horiz-adv-x="625" 
d="M265 211q0 -57 44 -57q15 0 26.5 9.5t17.5 26.5t6 39v134q0 34 12 59.5t35 39.5t54 14q54 0 84 -23.5t30 -86.5v-260q0 -61 -25 -84t-88 -23q-27 0 -46 5.5t-30.5 16.5t-17.5 29q-41 -27 -86.5 -38t-101.5 -11q-71 0 -102 55.5t-31 182.5q0 63 3 102.5t9.5 68t20 42.5
t32 20t48.5 6q56 0 80.5 -21t24.5 -63z" />
    <glyph glyph-name="v" unicode="v" horiz-adv-x="617" 
d="M307 150q29 0 37 16.5t8 60.5l1 161q0 31 10.5 50t35.5 29t67 10q27 0 44 -6t30 -19.5t19 -41t9 -66t3 -97.5q0 -54 -17 -97t-43.5 -70.5t-61.5 -46t-70 -26t-70.5 -7.5t-70.5 7.5t-70.5 26t-62.5 46t-44 70.5t-17 97q0 98 9 145.5t30.5 66t65.5 18.5q62 0 88 -21.5
t26 -67.5l1 -160v-23.5t1 -18.5t4 -16t7.5 -10.5t12 -7.5t18.5 -2z" />
    <glyph glyph-name="w" unicode="w" horiz-adv-x="890" 
d="M590 150q26 0 32.5 12.5t6.5 46.5l1 179q0 46 26 67.5t88 21.5q27 0 44 -6t29.5 -19.5t19 -41t9.5 -66t3 -98.5q0 -53 -16.5 -96.5t-42 -70.5t-59.5 -45.5t-68 -26t-68 -7.5q-81 0 -149 51q-67 -51 -148 -51q-34 0 -67.5 7.5t-68 26t-60.5 45.5t-42.5 70.5t-16.5 96.5
q0 99 9 146.5t30 66t66 18.5q42 0 67 -10t35.5 -29t10.5 -50l1 -178q0 -15 0.5 -21.5t2.5 -16t6 -13t11 -6.5t18 -3q40 0 47 23q-9 60 -9 129q0 58 4 90.5t17.5 52.5t33.5 26t57 6q33 0 52 -6t31 -26t16 -52.5t4 -90.5q0 -70 -8 -130q7 -22 45 -22z" />
    <glyph glyph-name="x" unicode="x" horiz-adv-x="602" 
d="M302 99q-2 -3 -13 -14t-14.5 -15t-14 -14.5t-16 -15t-15.5 -12.5t-17.5 -11.5t-16.5 -8t-18 -6.5t-18 -2q-44 0 -84 36t-40 77q0 10 8.5 22.5t25 27.5t29 26t32 26t23.5 19q-8 6 -23 18.5t-25 21.5t-23 22.5t-20.5 26t-13.5 28.5t-6 33q0 34 33 63t68 29q19 0 37 -8
t34.5 -22.5t30 -29t30 -34t27.5 -29.5q11 10 34 37t38 42.5t39 29.5t47 14q14 0 29 -5.5t27.5 -15t23 -21t16 -25t5.5 -26.5q0 -17 -6 -33.5t-23 -36t-24.5 -28t-32 -30l-24.5 -21.5q3 -4 23 -19t32.5 -26t28.5 -26t24.5 -27.5t8.5 -22.5q0 -41 -40 -77t-84 -36
q-10 0 -20.5 3t-19 6.5t-19.5 11.5t-17.5 13t-18 16t-16 15.5t-16.5 17.5t-15 16z" />
    <glyph glyph-name="y" unicode="y" horiz-adv-x="607" 
d="M564 282q0 -171 -10 -239q-8 -61 -25 -105.5t-48 -79t-79 -51.5t-114 -17q-53 0 -98.5 15.5t-72 38t-41.5 44.5t-15 38t10.5 29.5t28.5 13.5q13 0 30.5 -8t33.5 -18t38 -18t43 -8q54 0 76.5 27t22.5 77q-17 -7 -33 -12t-31 -8t-28.5 -4t-26.5 -1q-59 0 -101 33
t-60.5 81.5t-18.5 104.5t1.5 95t6.5 69.5t11.5 48.5t18.5 29.5t27 15.5t36 4q63 0 88.5 -21.5t25.5 -67.5l1 -161v-23.5t1.5 -18.5t4 -16t7 -10.5t12 -7.5t18.5 -2q30 0 37.5 16.5t7.5 60.5l1 162q0 31 10.5 50t35.5 29t68 10q26 0 44.5 -8.5t29.5 -22t16.5 -40t7.5 -53.5
t2 -71z" />
    <glyph glyph-name="z" unicode="z" horiz-adv-x="557" 
d="M452 126q29 0 45 -8t22 -23t6 -41q0 -33 -22.5 -43.5t-79.5 -10.5h-295q-34 0 -62.5 23.5t-28.5 61.5q0 42 11 65.5t50 62.5l131 138h-73q-54 0 -78 15t-24 49q0 37 17 49.5t71 12.5h304q37 0 58.5 -20.5t21.5 -56.5q0 -34 -9 -52t-47 -61l-151 -162z" />
    <glyph glyph-name="braceleft" unicode="{" horiz-adv-x="549" 
d="M362 648q0 -308 -74 -328q74 -15 74 -327q53 0 87.5 -18t34.5 -58q0 -33 -28 -54t-80 -21h-108q-73 0 -99 24t-26 86v296q-78 11 -78 74q0 28 20.5 47.5t57.5 25.5v295q0 61 26 85.5t99 24.5h108q52 0 80 -21t28 -55q0 -40 -34.5 -58t-87.5 -18z" />
    <glyph glyph-name="bar" unicode="|" horiz-adv-x="339" 
d="M280 28zM280 28q0 -101 -110 -101q-37 0 -60 8t-36 29t-13 56v613q0 24 8 41.5t23 27.5t34.5 15t43.5 5q17 0 30 -1t26 -4t22.5 -8.5t16.5 -14t11 -21.5t4 -31v-614z" />
    <glyph glyph-name="braceright" unicode="}" horiz-adv-x="556" 
d="M194 648q-53 0 -87.5 18t-34.5 58q0 34 28 55t80 21h108q73 0 99 -24.5t26 -85.5v-295q38 -6 58 -25.5t20 -47.5q0 -63 -78 -74v-296q0 -42 -10.5 -65t-37.5 -34t-77 -11h-108q-52 0 -80 21t-28 54q0 40 34.5 58t87.5 18q0 312 74 327q-74 20 -74 328z" />
    <glyph glyph-name="asciitilde" unicode="~" horiz-adv-x="475" 
d="M154 123q0 -35 -29 -59.5t-72 -24.5q-58 0 -78 29t-20 85q0 39 14 73.5t45 58t73 23.5q25 0 51.5 -5t48.5 -12.5t43 -16.5t37.5 -18t28.5 -16.5t19 -11.5l6 -5q0 34 29.5 59.5t71.5 25.5q58 0 78.5 -29t20.5 -84q0 -62 -35 -109t-98 -47q-41 0 -79.5 13t-62 29t-48.5 29
t-44 13z" />
    <glyph glyph-name="uni0082" horiz-adv-x="560" 
d="M477 450v-313q0 -85 -26.5 -117.5t-83.5 -32.5q-56 0 -82 31.5t-26 111.5l2 327q1 115 40.5 164.5t138.5 49.5q83 0 129 -61t46 -125q0 -15 -12.5 -26t-35.5 -11q-14 0 -29 27.5t-32 27.5t-23 -10.5t-6 -42.5z" />
    <glyph glyph-name="uni0083" horiz-adv-x="698" 
d="M581 381q0 -59 -29.5 -96t-90.5 -37q-29 0 -47 15t-23.5 32.5t-13 32.5t-16.5 15q-21 0 -26.5 -16t-5.5 -55l-87 -1q0 46 18.5 91t52.5 74q36 32 69 44.5t88 12.5q54 0 82.5 -31t28.5 -81z" />
    <glyph glyph-name="uni0084" horiz-adv-x="778" 
d="M340 211q0 -57 44 -57q23 0 36.5 21t13.5 54h88q0 -119 -70 -173q-80 -56 -197 -56q-71 0 -102.5 56t-31.5 183q0 63 3 102.5t9.5 68t20.5 42.5t32.5 20t47.5 6q56 0 80.5 -21.5t24.5 -62.5q0 -36 0.5 -99.5t0.5 -83.5z" />
    <glyph glyph-name="uni0085" unicode="&#x85;" horiz-adv-x="456" 
d="M354 137q0 -55 -13 -88.5t-36.5 -48t-60.5 -14.5q-28 0 -47.5 7t-33.5 23t-20.5 44t-6.5 69l-2 422q0 62 30 91t80 29q26 0 44 -4t34 -15t24 -34t8 -58v-423z" />
    <glyph glyph-name="uni0087" horiz-adv-x="778" 
d="M412 268q0 56 -44 56q-14 0 -25.5 -9.5t-18 -26.5t-6.5 -38l-87 -1q0 119 69 173q80 56 198 56q71 0 102.5 -56t31.5 -184q0 -63 -3 -102.5t-10 -68t-20.5 -42.5t-32 -20t-48.5 -6q-56 0 -80.5 21t-24.5 62z" />
    <glyph glyph-name="uni0089" horiz-adv-x="804" 
d="M299 -6q-78 0 -130 64.5t-52 176.5q0 114 51 181.5t131 67.5q42 0 82 -16t70 -42t53 -57.5t35 -64t12 -60.5q0 -78 -34 -135.5t-90.5 -86t-127.5 -28.5zM457 235q0 32 -6.5 59.5t-22 46.5t-37.5 19q-26 0 -41.5 -38t-15.5 -87q0 -46 14.5 -82t42.5 -36q32 0 49 35t17 83z
" />
    <glyph glyph-name="uni008A" horiz-adv-x="804" 
d="M368 -6q-71 0 -127.5 28.5t-90 86t-33.5 135.5q0 28 12 60.5t35 64t53 57.5t69.5 42t81.5 16q80 0 131.5 -67.5t51.5 -181.5q0 -112 -52 -176.5t-131 -64.5zM211 235q0 -48 16.5 -83t49.5 -35q27 0 42 36t15 82q0 49 -16 87t-42 38q-21 0 -36.5 -19t-22 -46.5t-6.5 -59.5
z" />
    <glyph glyph-name="uni008B" horiz-adv-x="628" 
d="M391 493q54 0 75 -14.5t21 -52.5q0 -32 -24.5 -43.5t-81.5 -11.5h-223q-44 0 -62.5 14.5t-18.5 44.5q0 63 87 63h227z" />
    <glyph glyph-name="nbsp" unicode="&#xa0;" horiz-adv-x="270" 
 />
    <glyph glyph-name="exclamdown" unicode="&#xa1;" horiz-adv-x="341" 
d="M56 616q0 33 29 54t82 21q118 0 118 -75q0 -77 -118 -77q-48 0 -79.5 18.5t-31.5 58.5zM276 83q0 -47 -26 -68.5t-87 -21.5q-58 0 -80 25.5t-22 75.5q0 48 20 162t20 162q0 43 14 62t50 19q37 0 54 -18.5t17 -59.5q0 -49 20 -168t20 -170z" />
    <glyph glyph-name="cent" unicode="&#xa2;" horiz-adv-x="599" 
d="M342 431q0 23 -26 23q-19 0 -34 -20.5t-23 -52t-8 -66.5q0 -49 30.5 -80t82.5 -31q51 0 88 11q15 4 36.5 15.5t30.5 11.5q20 0 29.5 -10t9.5 -22q0 -33 -41.5 -79.5t-108.5 -67.5v-61q0 -39 -11.5 -61.5t-31.5 -31t-53 -8.5q-48 0 -70.5 20.5t-22.5 73.5v70
q-82 25 -130 85.5t-48 149.5q0 85 47.5 144.5t130.5 83.5l1 65q0 30 13 50.5t33 29t48 8.5q46 0 70 -16t24 -64v-65q143 -25 143 -137q0 -19 -7.5 -39t-23 -39.5t-45.5 -32.5t-70 -13q-18 0 -29.5 2t-24 9t-18.5 21.5t-6 37.5q0 21 7.5 49t7.5 37z" />
    <glyph glyph-name="sterling" unicode="&#xa3;" horiz-adv-x="556" 
d="M368 447v-31h41q38 0 54 -13.5t16 -47.5q0 -37 -13.5 -49t-56.5 -12h-40v-132h54q45 0 62 -17.5t17 -63.5t-20.5 -63.5t-67.5 -17.5h-310q-64 0 -64 79q0 35 12 52t41 26q36 11 47 21.5t11 34.5v81h-31q-67 0 -67 59q0 29 16.5 46t50.5 17h32v30q1 129 37.5 183.5
t140.5 54.5q83 0 129.5 -34t46.5 -69q0 -15 -12.5 -26.5t-35.5 -11.5q-49 0 -69 -17q-21 -17 -21 -79z" />
    <glyph glyph-name="currency" unicode="&#xa4;" horiz-adv-x="652" 
d="M400 316q0 22 -7.5 41t-24.5 32t-41 13t-42 -13t-26 -32t-8 -41q0 -33 20 -58.5t56 -25.5t54.5 25t18.5 59zM59 225q-17 41 -17 89q0 51 18 93l-10 7q-50 34 -50 63q0 27 24.5 54.5t45.5 27.5q20 0 53 -23l32 -22q72 42 171 42q96 0 167 -40l29 20q33 23 52 23
q22 0 46 -27.5t24 -54.5q0 -29 -49 -63l-5 -3q19 -44 19 -97q0 -50 -19 -93l20 -13q34 -24 34 -52q0 -27 -23 -55.5t-46 -28.5q-19 0 -41 15l-43 30q-70 -38 -165 -38q-97 0 -169 40l-47 -32q-21 -15 -41 -15q-15 0 -31 13.5t-27 33.5t-11 37q0 28 35 52z" />
    <glyph glyph-name="yen" unicode="&#xa5;" horiz-adv-x="723" 
d="M538 167q37 0 53.5 -11.5t16.5 -40.5t-15.5 -39.5t-54.5 -10.5h-80q-24 -65 -106 -65q-42 0 -66.5 15t-36.5 50h-89q-67 0 -67 50q0 26 14 39t53 13h79v57h-79q-67 0 -67 50q0 17 5 27.5t20 17.5t42 7h60l-136 159q-42 48 -42 83q0 55 42 87q40 30 71 30q43 0 77 -39
l122 -142l102 119q51 61 109 61q43 0 67 -24q41 -41 41 -79q0 -21 -14 -44.5t-45 -60.5l-123 -150h47q38 0 54 -11.5t16 -40.5q0 -10 -1.5 -17.5t-5.5 -13.5t-9 -9.5t-13.5 -5.5t-18 -3t-22.5 -1h-68v-57h68z" />
    <glyph glyph-name="brokenbar" unicode="&#xa6;" horiz-adv-x="339" 
d="M280 73q0 -101 -110 -101q-37 0 -60 8t-36 29t-13 56v145q0 46 29.5 67.5t79.5 21.5q55 0 82.5 -15.5t27.5 -64.5v-146zM280 496q0 -101 -110 -101q-56 0 -82.5 20.5t-26.5 72.5v145q0 46 29.5 67.5t79.5 21.5q55 0 82.5 -15.5t27.5 -64.5v-146z" />
    <glyph glyph-name="section" unicode="&#xa7;" horiz-adv-x="800" 
d="M516 325q0 10 -8.5 18t-31.5 21q-28 16 -59 35.5t-44.5 28.5t-29 15t-28.5 6q-30 0 -30 -31q0 -24 30 -54t73.5 -51t79.5 -21q21 0 34.5 8.5t13.5 24.5zM179 578q0 50 16 92.5t47.5 76.5t84 53.5t121.5 19.5q118 0 197 -48.5t79 -104.5q0 -21 -13 -33t-29 -12
q-18 0 -52 18.5t-76 37t-78 18.5q-58 0 -58 -48q0 -18 16.5 -34.5t38 -27.5t61 -31.5t67.5 -38.5q31 -19 46 -29t36.5 -25t30.5 -24.5t21 -24t16.5 -28t8 -31t3.5 -38.5q0 -62 -36.5 -109t-80.5 -63q2 -15 2 -32q0 -35 -9 -65t-30 -56.5t-53.5 -45.5t-83 -30t-114.5 -11
q-68 0 -130.5 17t-104 42.5t-66 54.5t-24.5 54q0 22 14.5 37.5t43.5 15.5q20 0 97 -26.5t124 -26.5q45 0 45 31q0 11 -5.5 19t-14.5 14.5t-27 15.5t-37.5 18.5t-52 26t-64.5 35.5q-39 22 -63.5 46t-36.5 53t-12 65q0 30 9 57t21 44.5t32 34t35.5 26t37.5 20.5z" />
    <glyph glyph-name="dieresis" unicode="&#xa8;" horiz-adv-x="452" 
d="M241 804q0 32 27 52.5t77 20.5q105 0 105 -73q0 -41 -27 -57t-78 -16q-45 0 -74.5 17.5t-29.5 55.5zM0 804q0 32 27 52.5t77 20.5q105 0 105 -73q0 -41 -26.5 -57t-78.5 -16q-45 0 -74.5 17.5t-29.5 55.5z" />
    <glyph glyph-name="copyright" unicode="&#xa9;" horiz-adv-x="535" 
d="M277 585q0 8 4.5 20.5t4.5 16.5q0 17 -15 17q-14 0 -23.5 -20.5t-9.5 -45.5q0 -27 16.5 -43.5t44.5 -16.5q31 0 53 6q8 3 19.5 9.5t16.5 6.5q14 0 21.5 -6.5t7.5 -15.5q0 -28 -40 -63t-101 -35q-74 0 -121.5 40t-47.5 109q0 66 47 104.5t122 38.5q134 0 134 -84
q0 -27 -21 -50.5t-66 -23.5q-15 0 -23.5 2t-15.5 10t-7 24zM59 563q0 -79 62 -134t150 -55q87 0 147.5 55t60.5 134t-60.5 134t-147.5 55q-88 0 -150 -55t-62 -134zM-4 563q0 104 80.5 177.5t194.5 73.5q112 0 191 -73.5t79 -177.5t-79 -177.5t-191 -73.5
q-114 0 -194.5 73.5t-80.5 177.5z" />
    <glyph glyph-name="ordfeminine" unicode="&#xaa;" 
d="M250 345q-55 0 -91.5 45.5t-36.5 123.5q0 80 36 127.5t92 47.5q57 0 105 -40q19 35 61 35q38 0 59 -16.5t21 -60.5v-183q0 -42 -17.5 -58t-62.5 -16t-60 25q-45 -30 -106 -30zM345 582q-12 20 -31 20q-18 0 -29 -27t-11 -61q0 -32 10.5 -57t29.5 -25t31 19v131z" />
    <glyph glyph-name="guillemotleft" unicode="&#xab;" horiz-adv-x="799" 
d="M292 65l-203 151q-38 27 -38 77q0 47 35 74l174 142q53 41 95 41q22 0 44 -23t22 -52q0 -9 -3.5 -18t-11.5 -19t-19.5 -20t-28.5 -24l-120 -98l122 -93q40 -28 51 -46t11 -41q0 -29 -22 -52t-43 -23q-31 0 -65 24zM644 65l-203 151q-38 27 -38 77q0 47 35 74l175 142
q53 41 95 41q22 0 44 -23t22 -52q0 -13 -7 -25t-20 -25t-37 -31l-119 -98l122 -93q40 -28 51 -46t11 -41q0 -19 -10.5 -37t-26 -28t-29.5 -10q-31 0 -65 24z" />
    <glyph glyph-name="logicalnot" unicode="&#xac;" horiz-adv-x="559" 
d="M540 170q0 -53 -17 -71.5t-62 -18.5q-19 0 -33 5.5t-23.5 17t-14.5 31t-5 45.5v81h-281q-81 0 -81 70q0 75 87 75h332q20 0 34 -2t25 -6q39 -16 39 -81v-146z" />
    <glyph glyph-name="uni00AD" unicode="&#xad;" horiz-adv-x="1096" 
 />
    <glyph glyph-name="registered" unicode="&#xae;" horiz-adv-x="549" 
d="M307 624q0 17 -10.5 23t-40.5 6v-60q28 0 39.5 7t11.5 24zM256 486q0 -62 -48 -62q-24 0 -35.5 13t-11.5 46v173q0 24 13 36.5t34 12.5h76q51 0 82 -23t31 -61q0 -53 -49 -67q20 -1 36.5 -19t16.5 -45q0 -40 -10.5 -53t-35.5 -13q-47 0 -47 41q0 37 -7 49t-22 12h-23v-40
zM66 563q0 -79 62 -134t150 -55q86 0 147 55t61 134t-61 134t-147 55q-88 0 -150 -55t-62 -134zM3 563q0 104 80 177.5t195 73.5q112 0 191 -73.5t79 -177.5t-79 -177.5t-191 -73.5q-115 0 -195 73.5t-80 177.5z" />
    <glyph glyph-name="macron" unicode="&#xaf;" horiz-adv-x="475" 
d="M34 599q0 44 27.5 64.5t69.5 20.5h208q55 0 77 -23t22 -64q0 -36 -25.5 -57t-65.5 -21h-202q-60 0 -85.5 17t-25.5 63z" />
    <glyph glyph-name="degree" unicode="&#xb0;" horiz-adv-x="366" 
d="M220 556q0 18 -9.5 31t-27.5 13t-28.5 -13.5t-10.5 -30t10 -29t29 -12.5q12 0 21 6t12.5 15.5t3.5 19.5zM182 404q-78 0 -130 40.5t-52 110.5q0 72 51 113.5t131 41.5t130.5 -41.5t50.5 -113.5q0 -35 -14 -64t-38.5 -47.5t-57.5 -29t-71 -10.5z" />
    <glyph glyph-name="plusminus" unicode="&#xb1;" horiz-adv-x="552" 
d="M387 443q53 0 73.5 -17t20.5 -60q0 -36 -24.5 -50.5t-78.5 -14.5h-35v-56q0 -79 -68 -79q-74 0 -74 85v50h-54q-79 0 -79 69q0 34 17.5 53.5t64.5 19.5h51v42q0 53 17.5 73.5t59.5 20.5q25 0 39 -11.5t20 -33.5t6 -58v-33h44zM414 131q38 0 53.5 -16t15.5 -54
q0 -33 -18.5 -46t-58.5 -13h-241q-73 0 -73 62q0 67 69 67h253z" />
    <glyph glyph-name="twosuperior" unicode="&#xb2;" horiz-adv-x="582" 
d="M338 405h77q59 0 59 -66q0 -25 -7.5 -39.5t-26 -22t-50.5 -7.5h-190q-49 0 -67 13t-18 56q0 10 1.5 18t5.5 16t11 15t17 13q56 38 83 58.5t47.5 44t26 44t5.5 51.5q0 39 -24 39q-27 0 -27 -46q0 -26 -16.5 -33.5t-49.5 -7.5q-45 0 -61 19.5t-16 65t43.5 76t120.5 30.5
q190 0 190 -145q0 -34 -7.5 -61.5t-19 -46t-30.5 -35.5t-36 -27t-41 -22z" />
    <glyph glyph-name="threesuperior" unicode="&#xb3;" horiz-adv-x="586" 
d="M310 590q0 34 -64 34q-13 0 -36 -2.5t-33 -2.5q-50 0 -50 61q0 62 146 62q94 0 140.5 -31t46.5 -80q0 -70 -60 -111q28 -15 43 -28.5t23 -34t8 -50.5q0 -61 -48 -99t-129 -38q-101 0 -144.5 20.5t-43.5 62.5q0 36 14 48.5t39 12.5q13 0 39.5 -2.5t40.5 -2.5q76 0 76 28
q0 9 -3 15t-11 10.5t-21.5 6t-33.5 1.5q-41 0 -58 10.5t-17 39.5q0 43 57 43q38 0 56 4t20.5 8.5t2.5 14.5z" />
    <glyph glyph-name="acute" unicode="&#xb4;" horiz-adv-x="371" 
d="M208 762q22 13 48 13q35 0 56.5 -31t21.5 -66q0 -50 -62 -74l-122 -41q-25 -8 -46 -8q-20 0 -35.5 8t-23.5 21.5t-8 30.5q0 36 40 64l16 11z" />
    <glyph glyph-name="uni00B5" unicode="&#xb5;" horiz-adv-x="625" 
d="M265 211q0 -57 44 -57q22 0 36 21t14 54v134q0 51 27.5 82t73.5 31q54 0 84 -23.5t30 -86.5v-260q0 -61 -25 -84t-88 -23q-76 0 -94 51q-48 -36 -103 -51v-87q0 -63 -22 -90.5t-83 -27.5q-55 0 -79 45t-28 145q-6 162 -6 276v53t1.5 44t4.5 38.5t8.5 29.5t14 24t20 15.5
t27.5 10.5t37 3q56 0 80.5 -21t24.5 -63q0 -35 0.5 -99t0.5 -84z" />
    <glyph glyph-name="paragraph" unicode="&#xb6;" horiz-adv-x="1000" 
d="M355 118q-84 0 -158 29.5t-125 93.5t-51 151q0 146 90.5 219t244.5 73h546q47 0 63.5 -15t16.5 -55q0 -36 -24 -47t-78 -11v-449q0 -60 -25 -83.5t-88 -23.5q-59 0 -80.5 27.5t-21.5 90.5v438h-95v-449q0 -60 -25 -83.5t-88 -23.5q-59 0 -80.5 27.5t-21.5 90.5z" />
    <glyph glyph-name="periodcentered" unicode="&#xb7;" horiz-adv-x="315" 
d="M44 234q0 34 28.5 55t80.5 21q109 0 109 -76q0 -43 -28 -59.5t-81 -16.5q-47 0 -78 18t-31 58z" />
    <glyph glyph-name="cedilla" unicode="&#xb8;" horiz-adv-x="599" 
d="M365 -36q42 -21 42 -74q0 -61 -42 -98.5t-99 -37.5q-16 0 -36.5 4t-42 11.5t-36 22t-14.5 33.5q0 23 16.5 44.5t33.5 21.5q7 0 21 -6t19 -6q9 0 16 8t7 19q0 9 -19.5 23.5t-19.5 25.5q0 6 8 25t16 34l8 16h130q-21 -41 -21 -53q0 -7 13 -13z" />
    <glyph glyph-name="onesuperior" unicode="&#xb9;" horiz-adv-x="434" 
d="M324 381q0 -57 -20 -81t-62 -24q-41 0 -59.5 21.5t-19.5 77.5l-1 261q-34 0 -55.5 12.5t-21.5 40.5q0 24 19.5 38.5t56.5 14.5h38.5h36.5q35 0 54 -8t26.5 -24t7.5 -45v-284z" />
    <glyph glyph-name="ordmasculine" unicode="&#xba;" horiz-adv-x="631" 
d="M353 512q0 36 -9 63.5t-27 27.5q-17 0 -27.5 -28t-10.5 -63q0 -36 10 -63t28 -27t27 26.5t9 63.5zM316.5 341q-83.5 0 -139 45.5t-55.5 123.5q0 80 54.5 127t140 47t139.5 -46.5t54 -127.5q0 -78 -55 -123.5t-138.5 -45.5z" />
    <glyph glyph-name="guillemotright" unicode="&#xbb;" horiz-adv-x="834" 
d="M533 65q-34 -24 -65 -24q-22 0 -44 23t-22 52q0 23 11 41t51 46l122 93l-119 98q-35 27 -49 44.5t-14 36.5q0 29 22 52t43 23q43 0 96 -41l174 -142q35 -27 35 -74q0 -50 -38 -77zM180 65q-34 -24 -65 -24q-21 0 -43 23t-22 52q0 23 11 41t50 46l123 93l-120 98
q-35 27 -49 44.5t-14 36.5t10.5 37t26 28t29.5 10q42 0 95 -41l174 -142q35 -27 35 -74q0 -50 -38 -77z" />
    <glyph glyph-name="onequarter" unicode="&#xbc;" horiz-adv-x="1033" 
d="M266 393q0 -55 -19.5 -78.5t-60.5 -23.5q-26 0 -42 8.5t-25 30t-9 58.5l-1 252q-75 0 -75 51q0 23 19.5 37.5t54.5 14.5q13 0 37.5 -0.5t35.5 -0.5q49 0 66.5 -16t17.5 -58zM857 17q-40 0 -58 22.5t-18 76.5h-126q-43 0 -64.5 21t-21.5 54q0 36 18 64q48 75 108 162
q35 52 97 52l59 -1q49 0 67 -16.5t18 -57.5v-179q29 -2 39.5 -14t10.5 -37t-11.5 -35t-38.5 -12q0 -54 -19.5 -77t-59.5 -23zM780 212l2 144l-91 -144h89zM352 65q-1 -2 -6.5 -10t-6.5 -9.5t-5.5 -7.5t-7 -7.5t-6.5 -5t-7.5 -4.5t-8.5 -2t-11 -1q-22 0 -44 9.5t-36 26
t-14 34.5q0 19 7 30l368 539q15 21 26 29.5t31 8.5q22 0 44.5 -9t37.5 -24.5t15 -32.5t-6 -25z" />
    <glyph glyph-name="onehalf" unicode="&#xbd;" horiz-adv-x="1083" 
d="M849 132h76q57 0 57 -64q0 -36 -18 -51t-64 -15h-184q-47 0 -64.5 12.5t-17.5 53.5q0 21 7.5 34.5t26.5 26.5q101 68 129 101t28 90q0 38 -23 38q-26 0 -26 -44q0 -18 -9.5 -27t-22 -11.5t-32.5 -2.5q-44 0 -59 19t-15 63.5t41.5 73.5t116.5 29q184 0 184 -140
q0 -40 -10 -70.5t-30.5 -52t-40 -35t-50.5 -28.5zM266 393q0 -55 -19.5 -78.5t-60.5 -23.5q-26 0 -42 8.5t-25 30t-9 58.5l-1 252q-75 0 -75 51q0 23 19.5 37.5t54.5 14.5q13 0 37.5 -0.5t35.5 -0.5q49 0 66.5 -16t17.5 -58zM352 65q-1 -2 -6.5 -10t-6.5 -9.5t-5.5 -7.5
t-7 -7.5t-6.5 -5t-7.5 -4.5t-8.5 -2t-11 -1q-22 0 -44 9.5t-36 26t-14 34.5q0 19 7 30l368 539q15 21 26 29.5t31 8.5q22 0 44.5 -9t37.5 -24.5t15 -32.5t-6 -25z" />
    <glyph glyph-name="threequarters" unicode="&#xbe;" horiz-adv-x="1033" 
d="M207 589q0 33 -62 33q-13 0 -34.5 -2.5t-32.5 -2.5q-48 0 -48 59q0 60 141 60q91 0 136.5 -30t45.5 -78q0 -67 -59 -107q40 -21 55.5 -43.5t15.5 -65.5q0 -59 -46 -96t-124 -37q-98 0 -140 20.5t-42 60.5q0 34 13.5 46.5t37.5 12.5q12 0 38 -2.5t39 -2.5q74 0 74 27
q0 18 -14 25t-53 7q-40 0 -56 10t-16 38q0 42 55 42q36 0 53.5 3.5t20 8t2.5 14.5zM881 -4q-27 0 -43.5 9.5t-25 31t-8.5 58.5h-125q-22 0 -39 6t-27.5 16.5t-15.5 23.5t-5 29q0 36 19 64q48 75 108 162q35 52 97 52l59 -1q49 0 66.5 -16.5t17.5 -57.5v-179q29 -3 40 -14.5
t11 -36.5q0 -17 -5.5 -27t-16 -14.5t-29.5 -5.5q0 -54 -19.5 -77t-58.5 -23zM804 191l2 144l-91 -144h89zM404 65q-1 -2 -6.5 -10t-7 -9.5t-6 -7.5t-6.5 -7.5t-6.5 -5t-8 -4.5t-8.5 -2t-10 -1q-34 0 -64.5 21.5t-30.5 48.5q0 19 8 30l368 539q10 14 16 21t16.5 12t24.5 5
q34 0 65.5 -20t31.5 -46q0 -17 -6 -25z" />
    <glyph glyph-name="questiondown" unicode="&#xbf;" horiz-adv-x="583" 
d="M421 425q0 33 -29 54.5t-81 21.5q-36 0 -62.5 -8.5t-41.5 -25.5t-15 -42q0 -76 119 -76q47 0 78.5 17.5t31.5 58.5zM38 -17q0 -90 69 -135t199 -45q121 0 177.5 32.5t56.5 90.5q0 17 -7.5 35t-23 36.5t-45.5 30t-70 11.5q-43 0 -64.5 -10t-21.5 -41q0 -13 8 -31.5
t8 -23.5q0 -25 -26 -25q-24 0 -39.5 29.5t-15.5 67.5q0 34 14 66t33.5 56t39 46.5t33.5 45.5t14 45q0 52 -73 52q-30 0 -75 -27t-87.5 -70.5t-73 -107.5t-30.5 -128z" />
    <glyph glyph-name="Agrave" unicode="&#xc0;" horiz-adv-x="712" 
d="M358 522q-43 0 -63.5 -25t-20.5 -89v-118h166v120q0 62 -20.5 87t-61.5 25zM440 152h-166v-53q0 -51 -27 -75t-93 -24q-28 0 -46 8t-31.5 27t-20 55.5t-10 88t-3.5 130.5q0 59 11 110t29 89t43.5 68.5t53.5 50.5t59.5 33.5t61.5 19t59 5.5q42 0 83 -11.5t83 -39.5
t73.5 -69.5t51.5 -107.5t20 -148q0 -66 -2 -112t-7 -82t-12.5 -57t-20.5 -34.5t-29.5 -18.5t-39.5 -5q-44 0 -71 11.5t-38 32.5t-11 55v53zM285 964l126 -80q2 -1 6 -4q14 -9 21.5 -14.5t17 -15.5t14 -21.5t4.5 -26.5q0 -28 -20.5 -47t-54.5 -19q-23 0 -50 9l-135 45
q-69 26 -69 82q0 38 24 72t63 34q29 0 53 -14z" />
    <glyph glyph-name="Aacute" unicode="&#xc1;" horiz-adv-x="712" 
d="M358 522q-43 0 -63.5 -25t-20.5 -89v-118h166v120q0 62 -20.5 87t-61.5 25zM440 152h-166v-53q0 -51 -27 -75t-93 -24q-28 0 -46 8t-31.5 27t-20 55.5t-10 88t-3.5 130.5q0 59 11 110t29 89t43.5 68.5t53.5 50.5t59.5 33.5t61.5 19t59 5.5q42 0 83 -11.5t83 -39.5
t73.5 -69.5t51.5 -107.5t20 -148q0 -66 -2 -112t-7 -82t-12.5 -57t-20.5 -34.5t-29.5 -18.5t-39.5 -5q-44 0 -71 11.5t-38 32.5t-11 55v53zM436 977q23 14 52 14q39 0 63 -34t24 -72q0 -56 -69 -82l-134 -45q-28 -9 -51 -9q-33 0 -53.5 19t-20.5 47q0 19 9 35t18.5 23.5
t28.5 19.5q4 3 6 4z" />
    <glyph glyph-name="Acircumflex" unicode="&#xc2;" horiz-adv-x="712" 
d="M358 522q-43 0 -63.5 -25t-20.5 -89v-118h166v120q0 62 -20.5 87t-61.5 25zM440 152h-166v-53q0 -51 -27 -75t-93 -24q-28 0 -46 8t-31.5 27t-20 55.5t-10 88t-3.5 130.5q0 59 11 110t29 89t43.5 68.5t53.5 50.5t59.5 33.5t61.5 19t59 5.5q42 0 83 -11.5t83 -39.5
t73.5 -69.5t51.5 -107.5t20 -148q0 -66 -2 -112t-7 -82t-12.5 -57t-20.5 -34.5t-29.5 -18.5t-39.5 -5q-44 0 -71 11.5t-38 32.5t-11 55v53zM506 906q53 -54 53 -88q0 -29 -23.5 -50.5t-51.5 -21.5q-26 0 -57 32q-12 12 -27.5 31t-23 26t-15.5 7t-17 -8.5t-22 -26t-22 -26.5
q-32 -33 -61 -33q-21 0 -38.5 9.5t-27.5 25.5t-10 35q0 7 1 13.5t4 12.5t6 11t8 11.5t7.5 10t8.5 10t9 9.5q73 85 153 85q25 0 47 -6.5t41.5 -20t30 -22.5t27.5 -26z" />
    <glyph glyph-name="Atilde" unicode="&#xc3;" horiz-adv-x="712" 
d="M358 522q-43 0 -63.5 -25t-20.5 -89v-118h166v120q0 62 -20.5 87t-61.5 25zM440 152h-166v-53q0 -51 -27 -75t-93 -24q-28 0 -46 8t-31.5 27t-20 55.5t-10 88t-3.5 130.5q0 59 11 110t29 89t43.5 68.5t53.5 50.5t59.5 33.5t61.5 19t59 5.5q42 0 83 -11.5t83 -39.5
t73.5 -69.5t51.5 -107.5t20 -148q0 -66 -2 -112t-7 -82t-12.5 -57t-20.5 -34.5t-29.5 -18.5t-39.5 -5q-44 0 -71 11.5t-38 32.5t-11 55v53zM304 811q0 -26 -21.5 -44t-51.5 -18q-22 0 -37 6t-22.5 18t-10 25.5t-2.5 33.5q0 45 25.5 78.5t70.5 33.5q82 0 170 -61
q0 25 21.5 43t52.5 18q42 0 57 -20.5t15 -61.5q0 -44 -25.5 -78.5t-71.5 -34.5q-30 0 -58 9.5t-45 21t-35.5 21.5t-31.5 10z" />
    <glyph glyph-name="Adieresis" unicode="&#xc4;" horiz-adv-x="712" 
d="M358 522q-43 0 -63.5 -25t-20.5 -89v-118h166v120q0 62 -20.5 87t-61.5 25zM440 152h-166v-53q0 -51 -27 -75t-93 -24q-28 0 -46 8t-31.5 27t-20 55.5t-10 88t-3.5 130.5q0 59 11 110t29 89t43.5 68.5t53.5 50.5t59.5 33.5t61.5 19t59 5.5q42 0 83 -11.5t83 -39.5
t73.5 -69.5t51.5 -107.5t20 -148q0 -66 -2 -112t-7 -82t-12.5 -57t-20.5 -34.5t-29.5 -18.5t-39.5 -5q-44 0 -71 11.5t-38 32.5t-11 55v53zM382 823q0 32 27 52.5t77 20.5q105 0 105 -73q0 -41 -26.5 -57t-78.5 -16q-45 0 -74.5 17.5t-29.5 55.5zM141 823q0 32 27.5 52.5
t76.5 20.5q105 0 105 -73q0 -41 -26.5 -57t-78.5 -16q-45 0 -74.5 17.5t-29.5 55.5z" />
    <glyph glyph-name="Aring" unicode="&#xc5;" horiz-adv-x="712" 
d="M358 522q-43 0 -63.5 -25t-20.5 -89v-118h166v120q0 62 -20.5 87t-61.5 25zM440 152h-166v-53q0 -51 -27 -75t-93 -24q-28 0 -46 8t-31.5 27t-20 55.5t-10 88t-3.5 130.5q0 59 11 110t29 89t43.5 68.5t53.5 50.5t59.5 33.5t61.5 19t59 5.5q42 0 83 -11.5t83 -39.5
t73.5 -69.5t51.5 -107.5t20 -148q0 -66 -2 -112t-7 -82t-12.5 -57t-20.5 -34.5t-29.5 -18.5t-39.5 -5q-44 0 -71 11.5t-38 32.5t-11 55v53zM399 879q0 21 -8 37t-23 16t-23.5 -16t-8.5 -36.5t8 -36t24 -15.5q10 0 17.5 7.5t10.5 19t3 24.5zM367.5 742q-70.5 0 -117.5 36.5
t-47 99.5q0 64 46 101.5t118.5 37.5t118 -37.5t45.5 -101.5q0 -63 -46.5 -99.5t-117 -36.5z" />
    <glyph glyph-name="AE" unicode="&#xc6;" horiz-adv-x="942" 
d="M407 156l-136 1v-83q-2 -38 -28.5 -56t-84.5 -18q-62 0 -86.5 32t-24.5 124q0 59 7 153q7 82 29.5 147t56.5 107.5t80 70t95.5 39.5t107.5 12h386q58 0 86.5 -18.5t28.5 -64.5q0 -44 -24.5 -61.5t-80.5 -17.5h-183v-117h137q53 0 74.5 -17t21.5 -58q0 -17 -6.5 -29
t-19.5 -19.5t-32.5 -11t-46.5 -3.5h-127v-106l182 -1q56 0 80.5 -16.5t24.5 -58.5q0 -48 -28.5 -67t-86.5 -19h-288h-1q-59 0 -85.5 34.5t-27.5 121.5zM409 285l-1 236q-43 0 -75 -25.5t-39 -88.5q-5 -39 -10 -122h125z" />
    <glyph glyph-name="Ccedilla" unicode="&#xc7;" horiz-adv-x="783" 
d="M478 -65q41 -21 41 -73q0 -61 -41.5 -98.5t-98.5 -37.5q-17 0 -37.5 3.5t-42 11.5t-35.5 22.5t-14 32.5q0 24 16 45t33 21q6 0 14 -3t15 -5.5t12 -2.5q9 0 16 7.5t7 18.5q0 10 -19.5 24.5t-19.5 24.5q0 14 29 72q-136 17 -219 107.5t-83 235.5q0 162 97 256t254 94
q80 0 148 -27t108 -75t40 -105q0 -42 -18.5 -81t-55.5 -65.5t-84 -26.5q-40 0 -72 22t-32 63q0 19 18.5 53t18.5 48q0 21 -17.5 36t-41.5 15q-48 0 -79 -54.5t-31 -123.5q0 -81 45.5 -134.5t120.5 -53.5q37 0 71 14.5t55 32t43.5 32t39.5 14.5q22 0 38 -17.5t16 -36.5
q0 -18 -10 -42t-31 -52t-49.5 -53t-70 -45.5t-88.5 -28.5q-19 -40 -19 -52q0 -6 13 -13z" />
    <glyph glyph-name="Egrave" unicode="&#xc8;" horiz-adv-x="672" 
d="M471 406q53 0 74.5 -17t21.5 -58q0 -23 -11.5 -36.5t-34.5 -20t-59 -6.5h-162v-106l217 -1q56 0 80.5 -16.5t24.5 -58.5q0 -48 -28.5 -67t-86.5 -19h-324q-59 0 -86.5 31.5t-27.5 111.5v422q0 120 114 120h324q38 0 62 -7t38.5 -25.5t14.5 -50.5q0 -44 -24.5 -61.5
t-80.5 -17.5h-218v-117h172zM274 964l126 -80q2 -1 6 -4q14 -9 21.5 -14.5t17 -15.5t14 -21.5t4.5 -26.5q0 -28 -21 -47t-54 -19q-23 0 -50 9l-135 45q-69 26 -69 82q0 38 24 72t63 34q29 0 53 -14z" />
    <glyph glyph-name="Eacute" unicode="&#xc9;" horiz-adv-x="672" 
d="M471 406q53 0 74.5 -17t21.5 -58q0 -23 -11.5 -36.5t-34.5 -20t-59 -6.5h-162v-106l217 -1q56 0 80.5 -16.5t24.5 -58.5q0 -48 -28.5 -67t-86.5 -19h-324q-59 0 -86.5 31.5t-27.5 111.5v422q0 120 114 120h324q38 0 62 -7t38.5 -25.5t14.5 -50.5q0 -44 -24.5 -61.5
t-80.5 -17.5h-218v-117h172zM386 977q24 14 53 14q39 0 63 -34t24 -72q0 -56 -69 -82l-135 -45q-27 -9 -50 -9q-22 0 -39.5 9t-26.5 24t-9 33q0 19 9.5 35t19 23.5t28.5 19.5q4 3 5 4z" />
    <glyph glyph-name="Ecircumflex" unicode="&#xca;" horiz-adv-x="672" 
d="M471 406q53 0 74.5 -17t21.5 -58q0 -23 -11.5 -36.5t-34.5 -20t-59 -6.5h-162v-106l217 -1q56 0 80.5 -16.5t24.5 -58.5q0 -48 -28.5 -67t-86.5 -19h-324q-59 0 -86.5 31.5t-27.5 111.5v422q0 120 114 120h324q38 0 62 -7t38.5 -25.5t14.5 -50.5q0 -44 -24.5 -61.5
t-80.5 -17.5h-218v-117h172zM488 906q53 -54 53 -88q0 -29 -23.5 -50.5t-51.5 -21.5q-26 0 -57 32q-12 12 -27.5 31t-23 26t-15.5 7q-9 0 -17.5 -8.5t-21.5 -26t-22 -26.5q-32 -33 -61 -33q-21 0 -38.5 9.5t-27.5 25.5t-10 35q0 7 1 13.5t4 12.5l5.5 11t7.5 11.5t8 10t9 10
t9 9.5q73 85 153 85q25 0 47 -6.5t41.5 -20t30 -22.5t27.5 -26z" />
    <glyph glyph-name="Edieresis" unicode="&#xcb;" horiz-adv-x="672" 
d="M471 406q53 0 74.5 -17t21.5 -58q0 -23 -11.5 -36.5t-34.5 -20t-59 -6.5h-162v-106l217 -1q56 0 80.5 -16.5t24.5 -58.5q0 -48 -28.5 -67t-86.5 -19h-324q-59 0 -86.5 31.5t-27.5 111.5v422q0 120 114 120h324q38 0 62 -7t38.5 -25.5t14.5 -50.5q0 -44 -24.5 -61.5
t-80.5 -17.5h-218v-117h172zM355 826q0 32 27 52.5t77 20.5q105 0 105 -73q0 -41 -27 -57t-78 -16q-45 0 -74.5 17.5t-29.5 55.5zM114 826q0 32 27 52.5t77 20.5q105 0 105 -73q0 -41 -27 -57t-78 -16q-45 0 -74.5 17.5t-29.5 55.5z" />
    <glyph glyph-name="Igrave" unicode="&#xcc;" horiz-adv-x="364" 
d="M300 150q0 -78 -29 -114t-88 -36q-39 0 -62.5 12.5t-37 44t-13.5 85.5v423q0 120 113 120q58 0 87.5 -22t29.5 -89v-424zM114 964l126 -80q2 -1 6 -4q19 -12 28.5 -19.5t19 -23.5t9.5 -35q0 -28 -20.5 -47t-54.5 -19q-23 0 -50 9l-135 45q-69 26 -69 82q0 38 24 72t63 34
q29 0 53 -14z" />
    <glyph glyph-name="Iacute" unicode="&#xcd;" horiz-adv-x="364" 
d="M300 150q0 -78 -29 -114t-88 -36q-39 0 -62.5 12.5t-37 44t-13.5 85.5v423q0 120 113 120q58 0 87.5 -22t29.5 -89v-424zM251 977q24 14 53 14q39 0 63 -34t24 -72q0 -56 -69 -82l-135 -45q-27 -9 -50 -9q-22 0 -39.5 9t-26.5 24t-9 33q0 19 9.5 35t19 23.5t28.5 19.5
q4 3 6 4z" />
    <glyph glyph-name="Icircumflex" unicode="&#xce;" horiz-adv-x="364" 
d="M300 150q0 -78 -29 -114t-88 -36q-39 0 -62.5 12.5t-37 44t-13.5 85.5v423q0 120 113 120q58 0 87.5 -22t29.5 -89v-424zM337 906q54 -54 54 -88q0 -29 -24 -50.5t-52 -21.5q-26 0 -57 32q-12 12 -27.5 31t-23 26t-15.5 7t-17 -8.5t-22 -26t-22 -26.5q-32 -33 -61 -33
q-21 0 -38.5 9.5t-27.5 25.5t-10 35q0 8 2 16t4.5 13.5t8.5 13.5t8.5 11.5t10.5 12.5t10 11q73 85 153 85q25 0 47 -6.5t41.5 -20t30 -22.5t27.5 -26z" />
    <glyph glyph-name="Idieresis" unicode="&#xcf;" horiz-adv-x="364" 
d="M300 150q0 -78 -29 -114t-88 -36q-39 0 -62.5 12.5t-37 44t-13.5 85.5v423q0 120 113 120q58 0 87.5 -22t29.5 -89v-424zM212 825q0 32 27 52.5t77 20.5q105 0 105 -73q0 -41 -27 -57t-78 -16q-45 0 -74.5 17.5t-29.5 55.5zM-29 825q0 32 27 52.5t77 20.5q105 0 105 -73
q0 -41 -26.5 -57t-78.5 -16q-45 0 -74.5 17.5t-29.5 55.5z" />
    <glyph glyph-name="Eth" unicode="&#xd0;" horiz-adv-x="720" 
d="M329 684q156 0 250.5 -90t94.5 -248q0 -51 -9.5 -99t-31.5 -93.5t-55 -79t-84 -54t-115 -20.5h-197q-61 0 -87.5 31t-26.5 112v119q-80 0 -80 65q0 67 80 70v168q0 119 114 119h147zM299 136q26 0 45.5 5.5t37 20t28.5 38.5t17.5 61.5t6.5 88.5q0 57 -10 96.5t-29 60
t-41.5 29t-54.5 9.5v-148q29 -2 46 -10t24.5 -23.5t7.5 -40.5q0 -15 -4.5 -25.5t-14.5 -18t-24.5 -11.5t-34.5 -5v-127z" />
    <glyph glyph-name="Ntilde" unicode="&#xd1;" horiz-adv-x="773" 
d="M706 95q0 -44 -26 -69.5t-76 -25.5q-12 0 -24 3t-22.5 7.5t-23.5 13t-22.5 15.5t-23.5 20t-23.5 21.5t-25.5 24t-26 24.5l-183 173v-217q0 -49 -18.5 -67t-58.5 -18q-44 0 -65 20t-21 67v483q0 57 29 86t83 29q15 0 27.5 -2t22.5 -5.5t20.5 -10.5t20 -14.5t22.5 -20.5
l253 -252v218q0 29 10.5 48.5t28 28.5t41.5 9q28 0 46 -8.5t26.5 -27.5t8.5 -49v-504zM322 811q0 -17 -10 -31.5t-26.5 -22.5t-37.5 -8q-22 0 -36.5 6t-22 18t-10 25.5t-2.5 33.5q0 45 25.5 78.5t70.5 33.5q82 0 170 -61q0 25 21.5 43t52.5 18q28 0 44.5 -11t22 -27.5
t5.5 -43.5q0 -44 -26 -78.5t-71 -34.5q-30 0 -58 9.5t-45 21t-35.5 21.5t-31.5 10z" />
    <glyph glyph-name="Ograve" unicode="&#xd2;" horiz-adv-x="805" 
d="M402 140q26 0 46.5 17.5t32.5 46t18.5 63t6.5 71.5q0 51 -11 96.5t-35.5 77.5t-57.5 32q-32 0 -56 -32t-36 -78t-12 -96t11.5 -94t36 -74t56.5 -30zM402 -6q-73 0 -137 23t-111.5 66t-74.5 109t-27 146q0 162 97.5 257.5t252.5 95.5t253 -95.5t98 -257.5
q0 -107 -47.5 -186t-126.5 -118.5t-177 -39.5zM311 964l127 -80q2 -1 5 -4q15 -9 22 -14.5t16.5 -15.5t14 -21.5t4.5 -26.5q0 -28 -20.5 -47t-54.5 -19q-23 0 -50 9l-134 45q-69 26 -69 82q0 38 23.5 72t63.5 34q28 0 52 -14z" />
    <glyph glyph-name="Oacute" unicode="&#xd3;" horiz-adv-x="805" 
d="M402 140q26 0 46.5 17.5t32.5 46t18.5 63t6.5 71.5q0 51 -11 96.5t-35.5 77.5t-57.5 32q-32 0 -56 -32t-36 -78t-12 -96t11.5 -94t36 -74t56.5 -30zM402 -6q-73 0 -137 23t-111.5 66t-74.5 109t-27 146q0 162 97.5 257.5t252.5 95.5t253 -95.5t98 -257.5
q0 -107 -47.5 -186t-126.5 -118.5t-177 -39.5zM473 977q24 14 53 14q39 0 63 -34t24 -72q0 -56 -69 -82l-135 -45q-27 -9 -50 -9q-22 0 -39.5 9t-26.5 24t-9 33q0 19 9.5 35t19 23.5t28.5 19.5q4 3 6 4z" />
    <glyph glyph-name="Ocircumflex" unicode="&#xd4;" horiz-adv-x="805" 
d="M402 140q26 0 46.5 17.5t32.5 46t18.5 63t6.5 71.5q0 51 -11 96.5t-35.5 77.5t-57.5 32q-32 0 -56 -32t-36 -78t-12 -96t11.5 -94t36 -74t56.5 -30zM402 -6q-73 0 -137 23t-111.5 66t-74.5 109t-27 146q0 162 97.5 257.5t252.5 95.5t253 -95.5t98 -257.5
q0 -107 -47.5 -186t-126.5 -118.5t-177 -39.5zM551 906q54 -54 54 -88q0 -19 -11.5 -36t-28.5 -26.5t-36 -9.5q-25 0 -57 32q-12 12 -27 31t-23 26t-16 7t-17 -8.5t-22 -26t-22 -26.5q-32 -33 -61 -33q-20 0 -37.5 9.5t-28 25.5t-10.5 35q0 7 1.5 13.5t4.5 12.5l5.5 11
t7.5 11.5t8 10t9 10t8 9.5q73 85 153 85q26 0 48 -6.5t41 -20t29.5 -22.5t27.5 -26z" />
    <glyph glyph-name="Otilde" unicode="&#xd5;" horiz-adv-x="805" 
d="M402 140q26 0 46.5 17.5t32.5 46t18.5 63t6.5 71.5q0 51 -11 96.5t-35.5 77.5t-57.5 32q-32 0 -56 -32t-36 -78t-12 -96t11.5 -94t36 -74t56.5 -30zM402 -6q-73 0 -137 23t-111.5 66t-74.5 109t-27 146q0 162 97.5 257.5t252.5 95.5t253 -95.5t98 -257.5
q0 -107 -47.5 -186t-126.5 -118.5t-177 -39.5zM348 811q0 -17 -9.5 -31.5t-26.5 -22.5t-37 -8q-22 0 -36.5 6t-22 18t-10.5 25.5t-3 33.5q0 21 6.5 40.5t18 36t30.5 26t42 9.5q81 0 170 -61q0 25 21.5 43t51.5 18q42 0 57 -20.5t15 -61.5q0 -44 -25.5 -78.5t-71.5 -34.5
q-30 0 -57.5 9.5t-45 21t-35.5 21.5t-32 10z" />
    <glyph glyph-name="Odieresis" unicode="&#xd6;" horiz-adv-x="805" 
d="M402 140q26 0 46.5 17.5t32.5 46t18.5 63t6.5 71.5q0 51 -11 96.5t-35.5 77.5t-57.5 32q-32 0 -56 -32t-36 -78t-12 -96t11.5 -94t36 -74t56.5 -30zM402 -6q-73 0 -137 23t-111.5 66t-74.5 109t-27 146q0 162 97.5 257.5t252.5 95.5t253 -95.5t98 -257.5
q0 -107 -47.5 -186t-126.5 -118.5t-177 -39.5zM424 826q0 32 27 52.5t77 20.5q105 0 105 -73q0 -41 -27 -57t-78 -16q-45 0 -74.5 17.5t-29.5 55.5zM183 826q0 32 27 52.5t77 20.5q105 0 105 -73q0 -41 -26.5 -57t-78.5 -16q-45 0 -74.5 17.5t-29.5 55.5z" />
    <glyph glyph-name="multiply" unicode="&#xd7;" horiz-adv-x="602" 
d="M302 113q-3 -3 -10.5 -11.5t-11.5 -12.5t-12 -11.5t-12.5 -12t-12.5 -11t-13.5 -10t-13 -8t-14 -7t-14.5 -4t-15 -1.5q-39 0 -75 32t-36 70q0 8 7.5 19.5t22 25t26 23t29 23.5t21.5 17q-7 6 -24.5 20.5t-27.5 24.5t-22.5 24.5t-19 31t-6.5 34.5q0 15 8.5 30.5t21.5 27
t29.5 18.5t31.5 7q21 0 42.5 -12.5t35 -26.5t34.5 -38t31 -34q9 9 21 23t21 25t22 23.5t24.5 20.5t25.5 13.5t28 5.5q21 0 42.5 -12.5t35 -32.5t13.5 -39q0 -15 -5.5 -30t-20.5 -32t-22 -25t-29 -27.5l-22 -19.5q3 -3 20.5 -17t29 -23.5t26 -23t22 -25t7.5 -19.5
q0 -25 -17 -49t-43 -38.5t-51 -14.5q-9 0 -18.5 2.5t-17 5.5t-17.5 10.5l-16 12t-16.5 14.5t-14.5 14t-15 15.5t-13 14.5z" />
    <glyph glyph-name="Oslash" unicode="&#xd8;" horiz-adv-x="805" 
d="M299 353l163 156q-25 35 -60 35q-44 0 -72 -57.5t-31 -133.5zM402 140q26 0 46.5 17.5t32.5 46t18.5 63t6.5 71.5v10.5t-1 10.5l-175 -166q13 -25 31.5 -39t40.5 -14zM621 659q41 39 68 39q23 0 47 -20t24 -44q0 -33 -44 -75l-18 -17q55 -86 55 -204q0 -107 -47.5 -186
t-126.5 -118.5t-177 -39.5q-125 0 -215 63l-46 -43q-34 -32 -61 -32q-24 0 -45 23.5t-21 48.5q0 29 29 57l51 49q-42 77 -42 178q0 162 97.5 257.5t252.5 95.5q113 0 197 -52z" />
    <glyph glyph-name="Ugrave" unicode="&#xd9;" horiz-adv-x="737" 
d="M674 565v-298q0 -146 -70.5 -209.5t-237.5 -63.5q-159 0 -233.5 68t-74.5 205v298q0 53 31.5 86.5t79.5 33.5q59 0 89.5 -22t30.5 -89v-326q1 -47 20 -66t57 -19q47 0 62 21.5t15 63.5v327q0 34 8.5 57t26 34t36 15t44.5 4q58 0 87 -28t29 -92zM296 964l127 -80
q1 -1 5 -4q19 -12 28.5 -19.5t19 -23.5t9.5 -35q0 -28 -20.5 -47t-54.5 -19q-23 0 -50 9l-135 45q-69 26 -69 82q0 38 24 72t63 34q29 0 53 -14z" />
    <glyph glyph-name="Uacute" unicode="&#xda;" horiz-adv-x="737" 
d="M674 565v-298q0 -146 -70.5 -209.5t-237.5 -63.5q-159 0 -233.5 68t-74.5 205v298q0 53 31.5 86.5t79.5 33.5q59 0 89.5 -22t30.5 -89v-326q1 -47 20 -66t57 -19q47 0 62 21.5t15 63.5v327q0 34 8.5 57t26 34t36 15t44.5 4q58 0 87 -28t29 -92zM455 977q24 14 53 14
q39 0 63 -34t24 -72q0 -56 -69 -82l-135 -45q-27 -9 -50 -9q-22 0 -39.5 9t-26.5 24t-9 33q0 19 9.5 35t19 23.5t28.5 19.5q4 3 6 4z" />
    <glyph glyph-name="Ucircumflex" unicode="&#xdb;" horiz-adv-x="737" 
d="M674 565v-298q0 -146 -70.5 -209.5t-237.5 -63.5q-159 0 -233.5 68t-74.5 205v298q0 53 31.5 86.5t79.5 33.5q59 0 89.5 -22t30.5 -89v-326q1 -47 20 -66t57 -19q47 0 62 21.5t15 63.5v327q0 34 8.5 57t26 34t36 15t44.5 4q58 0 87 -28t29 -92zM514 906q54 -54 54 -88
q0 -19 -11.5 -36t-29 -26.5t-35.5 -9.5q-26 0 -57 32q-12 12 -27.5 31t-23 26t-15.5 7t-17 -8.5t-22 -26t-22 -26.5q-32 -33 -61 -33q-31 0 -53.5 20.5t-22.5 49.5q0 8 2 16t4.5 13.5t8.5 13.5t9 11.5t10.5 12.5t9.5 11q73 85 153 85q17 0 33 -3t30 -9.5t24.5 -12.5
t23 -16.5t18.5 -16.5z" />
    <glyph glyph-name="Udieresis" unicode="&#xdc;" horiz-adv-x="737" 
d="M674 565v-298q0 -146 -70.5 -209.5t-237.5 -63.5q-159 0 -233.5 68t-74.5 205v298q0 53 31.5 86.5t79.5 33.5q59 0 89.5 -22t30.5 -89v-326q1 -47 20 -66t57 -19q47 0 62 21.5t15 63.5v327q0 34 8.5 57t26 34t36 15t44.5 4q58 0 87 -28t29 -92zM380 825q0 32 27 52.5
t77 20.5q105 0 105 -73q0 -41 -27 -57t-78 -16q-45 0 -74.5 17.5t-29.5 55.5zM139 825q0 32 27 52.5t77 20.5q105 0 105 -73q0 -41 -26.5 -57t-78.5 -16q-45 0 -74.5 17.5t-29.5 55.5z" />
    <glyph glyph-name="Yacute" unicode="&#xdd;" horiz-adv-x="711" 
d="M470 150q0 -55 -14 -88.5t-39 -47.5t-65 -14q-58 0 -85 31.5t-28 111.5l-1 162l-154 180q-42 48 -42 83q0 55 42 87q40 30 71 30q43 0 77 -39l122 -142l102 119q51 61 109 61q43 0 67 -24q41 -41 41 -79q0 -21 -14 -44.5t-45 -60.5l-144 -176v-150zM420 977q24 14 53 14
q39 0 63 -34t24 -72q0 -56 -69 -82l-135 -45q-27 -9 -50 -9q-22 0 -39.5 9t-26.5 24t-9 33q0 19 9.5 35t19 23.5t28.5 19.5q4 3 6 4z" />
    <glyph glyph-name="Thorn" unicode="&#xde;" horiz-adv-x="650" 
d="M299 593q133 -5 210 -75t77 -178q0 -106 -78 -174.5t-213 -71.5q-18 -94 -112 -94q-58 0 -85.5 31t-27.5 111v423q0 120 113 120q54 0 83 -18.5t33 -73.5zM300 269q39 4 66 22t27 48q0 31 -27 50t-66 23v-143z" />
    <glyph glyph-name="germandbls" unicode="&#xdf;" horiz-adv-x="700" 
d="M352 703q52 0 99.5 -10t90.5 -32t68.5 -63.5t25.5 -96.5q0 -75 -50 -130q48 -34 67.5 -71t19.5 -105q0 -87 -58.5 -141.5t-156.5 -54.5q-78 0 -111.5 30t-33.5 89t22 75.5t69 16.5q64 0 64 41q0 44 -55 44q-47 0 -68 18.5t-21 57.5q0 30 17 48.5t47 18.5q39 0 54 9t15 33
q0 25 -25 37.5t-56 12.5q-44 0 -77 -24t-33 -78v-298q0 -71 -27 -100.5t-83 -29.5t-82 31.5t-27 111.5v311q0 121 89.5 185t215.5 64z" />
    <glyph glyph-name="agrave" unicode="&#xe0;" 
d="M225 -6q-79 0 -131 64.5t-52 176.5q0 76 24 133t65 86.5t94 29.5q81 0 150 -57q27 50 87 50q54 0 84 -23.5t30 -86.5v-260q0 -60 -25 -83.5t-88 -23.5q-66 0 -87 37q-64 -43 -151 -43zM361 331q-17 29 -44 29q-26 0 -42 -38t-16 -87q0 -46 15 -82t42 -36q28 0 45 27v187z
M281 753l115 -72q2 -1 10.5 -7t10.5 -7.5t9 -7t9 -8.5t6.5 -8.5t6 -10.5t3 -12t1.5 -14q0 -25 -18.5 -42.5t-48.5 -17.5q-22 0 -46 8l-122 41q-62 23 -62 74q0 35 21.5 66t56.5 31q25 0 48 -13z" />
    <glyph glyph-name="aacute" unicode="&#xe1;" 
d="M225 -6q-79 0 -131 64.5t-52 176.5q0 76 24 133t65 86.5t94 29.5q81 0 150 -57q27 50 87 50q54 0 84 -23.5t30 -86.5v-260q0 -60 -25 -83.5t-88 -23.5q-66 0 -87 37q-64 -43 -151 -43zM361 331q-17 29 -44 29q-26 0 -42 -38t-16 -87q0 -46 15 -82t42 -36q28 0 45 27v187z
M376 753q22 12 48 12q36 0 57.5 -31t21.5 -65q0 -50 -63 -74l-122 -41q-24 -8 -45 -8t-36.5 8t-23.5 21.5t-8 30.5t8.5 31.5t17 21t25.5 18.5q4 2 5 3z" />
    <glyph glyph-name="acircumflex" unicode="&#xe2;" 
d="M225 -6q-79 0 -131 64.5t-52 176.5q0 76 24 133t65 86.5t94 29.5q81 0 150 -57q27 50 87 50q54 0 84 -23.5t30 -86.5v-260q0 -60 -25 -83.5t-88 -23.5q-66 0 -87 37q-64 -43 -151 -43zM361 331q-17 29 -44 29q-26 0 -42 -38t-16 -87q0 -46 15 -82t42 -36q28 0 45 27v187z
M470 702q51 -51 51 -83q0 -28 -22.5 -48.5t-49.5 -20.5q-25 0 -54 30q-5 6 -13 14t-11.5 12t-9 9.5t-8.5 8t-7 5t-7 3.5t-7 1q-6 0 -13.5 -4.5t-12.5 -10t-15.5 -17t-16.5 -18.5q-31 -31 -58 -31q-30 0 -51 19.5t-21 47.5q0 7 2 14.5t4 13t8 13t8.5 11t10 12t9.5 10.5
q69 80 145 80q31 0 60 -13t43 -24.5t36 -33.5z" />
    <glyph glyph-name="atilde" unicode="&#xe3;" 
d="M225 -6q-79 0 -131 64.5t-52 176.5q0 76 24 133t65 86.5t94 29.5q81 0 150 -57q27 50 87 50q54 0 84 -23.5t30 -86.5v-260q0 -60 -25 -83.5t-88 -23.5q-66 0 -87 37q-64 -43 -151 -43zM361 331q-17 29 -44 29q-26 0 -42 -38t-16 -87q0 -46 15 -82t42 -36q28 0 45 27v187z
M274 613q0 -16 -9 -29.5t-25 -21.5t-36 -8q-27 0 -43 11t-20.5 27t-4.5 42t10 50t31.5 40t50.5 16q37 0 78 -14.5t62 -29.5l22 -15q0 25 20.5 42t49.5 17q27 0 42.5 -10.5t20.5 -26t5 -41.5q0 -27 -9.5 -50.5t-31 -40.5t-51.5 -17q-36 0 -68 15t-55.5 29.5t-38.5 14.5z" />
    <glyph glyph-name="adieresis" unicode="&#xe4;" 
d="M225 -6q-79 0 -131 64.5t-52 176.5q0 76 24 133t65 86.5t94 29.5q81 0 150 -57q27 50 87 50q54 0 84 -23.5t30 -86.5v-260q0 -60 -25 -83.5t-88 -23.5q-66 0 -87 37q-64 -43 -151 -43zM361 331q-17 29 -44 29q-26 0 -42 -38t-16 -87q0 -46 15 -82t42 -36q28 0 45 27v187z
M352 605q0 32 27.5 52.5t76.5 20.5q105 0 105 -73q0 -41 -26.5 -57t-78.5 -16q-45 0 -74.5 17.5t-29.5 55.5zM112 605q0 32 27 52.5t77 20.5q105 0 105 -73q0 -41 -27 -57t-78 -16q-45 0 -74.5 17.5t-29.5 55.5z" />
    <glyph glyph-name="aring" unicode="&#xe5;" 
d="M225 -6q-79 0 -131 64.5t-52 176.5q0 76 24 133t65 86.5t94 29.5q81 0 150 -57q27 50 87 50q54 0 84 -23.5t30 -86.5v-260q0 -60 -25 -83.5t-88 -23.5q-66 0 -87 37q-64 -43 -151 -43zM361 331q-17 29 -44 29q-26 0 -42 -38t-16 -87q0 -46 15 -82t42 -36q28 0 45 27v187z
M355 696q0 21 -7.5 37t-22.5 16t-24 -16t-9 -36.5t8.5 -36t24.5 -15.5q10 0 17.5 8t10 19t2.5 24zM324.5 559q-70.5 0 -117.5 36.5t-47 99.5q0 64 46 101.5t118 37.5t117.5 -37.5t45.5 -101.5q0 -63 -46 -99.5t-116.5 -36.5z" />
    <glyph glyph-name="ae" unicode="&#xe6;" horiz-adv-x="906" 
d="M563 280q69 1 75 1q14 0 22 18q5 13 5 36q0 63 -38 63q-21 0 -40.5 -34t-23.5 -84zM367 140q-17 41 -17 89q0 56 19 103q-17 28 -44 28q-26 0 -42 -38t-16 -87q0 -46 15 -82t42 -36q26 0 43 23zM423 411q43 35 91 54t117 19q117 0 171.5 -41.5t54.5 -113.5
q0 -45 -37.5 -78t-110.5 -34l-141 -1q10 -32 36 -50.5t66 -18.5q43 0 88 11q19 5 41.5 16t32.5 11q17 0 26.5 -10t9.5 -25q0 -18 -16 -43.5t-44.5 -51t-75.5 -43.5t-101 -18q-72 0 -119.5 17t-91.5 56q-57 -73 -197 -73q-77 0 -130 64.5t-53 175.5q0 114 51.5 181.5
t131.5 67.5q55 0 100 -17t100 -55z" />
    <glyph glyph-name="ccedilla" unicode="&#xe7;" horiz-adv-x="599" 
d="M387 -60q41 -21 41 -74q0 -61 -42 -98.5t-98 -37.5q-17 0 -37.5 4t-42 11.5t-35.5 22t-14 33.5q0 23 16 44.5t33 21.5q6 0 14 -3t15 -6t12 -3q9 0 16 8t7 19q0 9 -20 23.5t-20 25.5q0 12 28 67q-99 17 -159 81t-60 163q0 112 79 177t205 65q117 0 171.5 -38t54.5 -104
q0 -19 -7.5 -39t-23 -40t-45.5 -32.5t-70 -12.5q-18 0 -29.5 2t-24 8.5t-18.5 21.5t-6 38q0 20 7.5 48.5t7.5 37.5q0 23 -26 23q-28 0 -46.5 -42.5t-18.5 -96.5q0 -33 13.5 -58t39.5 -39.5t60 -14.5q51 0 88 12q15 4 36.5 15t30.5 11q20 0 29.5 -9.5t9.5 -22.5
q0 -35 -46.5 -84t-119.5 -67q-18 -37 -18 -48q0 -7 13 -13z" />
    <glyph glyph-name="egrave" unicode="&#xe8;" horiz-adv-x="595" 
d="M321 -6q-122 0 -201.5 63t-79.5 172q0 118 78.5 186.5t202.5 68.5q117 0 171.5 -41.5t54.5 -113.5q0 -45 -37.5 -78t-110.5 -34l-141 -1q10 -32 36 -50.5t66 -18.5q43 0 88 11q19 5 41.5 16t32.5 11q17 0 26.5 -10t9.5 -25q0 -18 -16 -43.5t-44.5 -51t-75.5 -43.5
t-101 -18zM253 280q69 1 75 1q15 0 22 18q5 13 5 36q0 63 -38 63q-21 0 -40.5 -34t-23.5 -84zM267 753l115 -72q2 -1 10.5 -7t10.5 -7.5t9 -7t9 -8.5t6.5 -8.5t6 -10.5t3 -12t1.5 -14q0 -25 -18.5 -42.5t-48.5 -17.5q-22 0 -46 8l-122 41q-62 23 -62 74q0 35 21.5 66
t56.5 31q25 0 48 -13z" />
    <glyph glyph-name="eacute" unicode="&#xe9;" horiz-adv-x="595" 
d="M321 -6q-122 0 -201.5 63t-79.5 172q0 118 78.5 186.5t202.5 68.5q117 0 171.5 -41.5t54.5 -113.5q0 -45 -37.5 -78t-110.5 -34l-141 -1q10 -32 36 -50.5t66 -18.5q43 0 88 11q19 5 41.5 16t32.5 11q17 0 26.5 -10t9.5 -25q0 -18 -16 -43.5t-44.5 -51t-75.5 -43.5
t-101 -18zM253 280q69 1 75 1q15 0 22 18q5 13 5 36q0 63 -38 63q-21 0 -40.5 -34t-23.5 -84zM369 753q21 13 47 13q36 0 57.5 -31t21.5 -66q0 -50 -62 -74l-122 -41q-25 -8 -46 -8q-30 0 -49 17.5t-19 42.5q0 17 8.5 31.5t17.5 21.5t26 18q3 2 5 4z" />
    <glyph glyph-name="ecircumflex" unicode="&#xea;" horiz-adv-x="595" 
d="M321 -6q-122 0 -201.5 63t-79.5 172q0 118 78.5 186.5t202.5 68.5q117 0 171.5 -41.5t54.5 -113.5q0 -45 -37.5 -78t-110.5 -34l-141 -1q10 -32 36 -50.5t66 -18.5q43 0 88 11q19 5 41.5 16t32.5 11q17 0 26.5 -10t9.5 -25q0 -18 -16 -43.5t-44.5 -51t-75.5 -43.5
t-101 -18zM253 280q69 1 75 1q15 0 22 18q5 13 5 36q0 63 -38 63q-21 0 -40.5 -34t-23.5 -84zM445 702q51 -51 51 -83q0 -28 -22.5 -48.5t-49.5 -20.5q-25 0 -54 30q-5 6 -13 14t-11.5 12t-9 9.5t-8.5 8t-7 5t-7 3.5t-7 1q-6 0 -13.5 -4.5t-12.5 -10t-15.5 -17t-16.5 -18.5
q-31 -31 -58 -31q-30 0 -51 19.5t-21 47.5q0 7 2 14.5t4.5 13t8 13t8 11t10 12t9.5 10.5q69 80 145 80q31 0 60 -13t43 -24.5t36 -33.5z" />
    <glyph glyph-name="edieresis" unicode="&#xeb;" horiz-adv-x="595" 
d="M321 -6q-122 0 -201.5 63t-79.5 172q0 118 78.5 186.5t202.5 68.5q117 0 171.5 -41.5t54.5 -113.5q0 -45 -37.5 -78t-110.5 -34l-141 -1q10 -32 36 -50.5t66 -18.5q43 0 88 11q19 5 41.5 16t32.5 11q17 0 26.5 -10t9.5 -25q0 -18 -16 -43.5t-44.5 -51t-75.5 -43.5
t-101 -18zM253 280q69 1 75 1q15 0 22 18q5 13 5 36q0 63 -38 63q-21 0 -40.5 -34t-23.5 -84zM328 605q0 32 27.5 52.5t76.5 20.5q105 0 105 -73q0 -41 -26.5 -57t-78.5 -16q-45 0 -74.5 17.5t-29.5 55.5zM88 605q0 32 27 52.5t77 20.5q105 0 105 -73q0 -41 -27 -57t-78 -16
q-45 0 -74.5 17.5t-29.5 55.5z" />
    <glyph glyph-name="igrave" unicode="&#xec;" horiz-adv-x="283" 
d="M249 107q0 -60 -25 -83.5t-88 -23.5q-59 0 -80.5 27.5t-21.5 90.5v246q0 34 12 59.5t35 39.5t54 14q54 0 84 -23.5t30 -86.5v-260zM85 753l115 -72q2 -1 10.5 -7t10.5 -7.5t9 -7t9 -8.5t6.5 -9t6 -11t3 -11.5t1.5 -13.5q0 -26 -18.5 -43t-48.5 -17q-22 0 -46 8l-122 41
q-62 23 -62 74q0 34 21.5 65.5t56.5 31.5q26 0 48 -13z" />
    <glyph glyph-name="iacute" unicode="&#xed;" horiz-adv-x="283" 
d="M249 107q0 -60 -25 -83.5t-88 -23.5q-59 0 -80.5 27.5t-21.5 90.5v246q0 34 12 59.5t35 39.5t54 14q54 0 84 -23.5t30 -86.5v-260zM198 753q22 12 47 12q36 0 57.5 -31t21.5 -65q0 -50 -62 -74l-122 -41q-25 -8 -46 -8q-30 0 -49 17t-19 43q0 17 9 31.5t17.5 21
t25.5 18.5q3 2 5 3z" />
    <glyph glyph-name="icircumflex" unicode="&#xee;" horiz-adv-x="283" 
d="M249 107q0 -60 -25 -83.5t-88 -23.5q-59 0 -80.5 27.5t-21.5 90.5v246q0 34 12 59.5t35 39.5t54 14q54 0 84 -23.5t30 -86.5v-260zM285 702q51 -51 51 -83q0 -19 -11 -35t-27.5 -25.5t-33.5 -9.5q-24 0 -54 31q-5 6 -13 14t-11.5 12t-9 9.5t-8.5 7.5t-7 5t-7 4t-7 1
q-5 0 -10 -2.5t-11 -8t-11 -10.5t-12.5 -14t-13.5 -15q-31 -32 -58 -32q-30 0 -51 20t-21 48q0 7 2 14.5t4.5 12.5t8 13t8 11t10 11.5t9.5 10.5q69 81 145 81q31 0 60 -13t43 -25t36 -33z" />
    <glyph glyph-name="idieresis" unicode="&#xef;" horiz-adv-x="283" 
d="M249 107q0 -60 -25 -83.5t-88 -23.5q-59 0 -80.5 27.5t-21.5 90.5v246q0 34 12 59.5t35 39.5t54 14q54 0 84 -23.5t30 -86.5v-260zM161 608q0 32 27.5 52.5t76.5 20.5q105 0 105 -73q0 -41 -26.5 -57t-78.5 -16q-45 0 -74.5 17.5t-29.5 55.5zM-79 608q0 32 27 52.5
t77 20.5q105 0 105 -73q0 -41 -27 -57t-78 -16q-45 0 -74.5 17.5t-29.5 55.5z" />
    <glyph glyph-name="eth" unicode="&#xf0;" horiz-adv-x="632" 
d="M473 750q59 0 59 -41q0 -20 -17 -35t-63 -30q65 -69 106 -166.5t41 -186.5q0 -145 -82 -226q-73 -72 -195 -72q-120 0 -199 65t-79 178q0 80 39 137t105 84.5t152 27.5q-31 61 -76 81q-84 -44 -124 -44q-47 0 -47 38q0 46 92 63q-29 15 -48.5 35.5t-19.5 39.5q0 61 79 61
q43 0 81 -16t86 -45q9 5 28 17.5t29 18t25 11t28 5.5zM369 237q0 52 -13 91.5t-38 39.5q-17 0 -30 -20t-19 -49t-6 -62q0 -51 14 -89.5t40 -38.5q18 0 30 19.5t17 47.5t5 61z" />
    <glyph glyph-name="ntilde" unicode="&#xf1;" horiz-adv-x="616" 
d="M353 269q0 56 -44 56q-21 0 -34.5 -17.5t-15.5 -46.5v-154q0 -61 -25 -84t-88 -23q-59 0 -80.5 27.5t-21.5 90.5v246q0 51 27.5 82t73.5 31q80 0 103 -49q78 51 190 51q71 0 102.5 -56t31.5 -184q0 -63 -3 -102.5t-9.5 -68t-20.5 -42.5t-32.5 -20t-47.5 -6
q-56 0 -80.5 21t-24.5 62zM240 613q0 -25 -20 -42t-49 -17q-41 0 -55 20t-14 59q0 20 6 38.5t17 34t29 25t40 9.5q38 0 78.5 -15t62.5 -29l21 -15q0 25 20.5 42t49.5 17q40 0 54 -20t14 -58q0 -27 -9.5 -51t-31 -40.5t-51.5 -16.5q-28 0 -54.5 9t-43 20t-34 20.5t-30.5 9.5z
" />
    <glyph glyph-name="ograve" unicode="&#xf2;" horiz-adv-x="631" 
d="M369 237q0 52 -13 91.5t-38 39.5q-26 0 -40.5 -40t-14.5 -91t14 -89.5t40 -38.5q14 0 24 11t16 29.5t9 41t3 46.5zM317 -7q-78 0 -140.5 28t-100 84t-37.5 131q0 114 78 181t200 67t199 -67t77 -181q0 -113 -78.5 -178t-197.5 -65zM271 753l115 -72q2 -1 10.5 -7
t10.5 -7.5t9 -7t9 -8.5t6.5 -9t6 -11t3 -11.5t1.5 -13.5q0 -26 -18.5 -43t-48.5 -17q-22 0 -46 8l-122 41q-62 23 -62 74q0 34 21.5 65.5t56.5 31.5q26 0 48 -13z" />
    <glyph glyph-name="oacute" unicode="&#xf3;" horiz-adv-x="631" 
d="M369 237q0 52 -13 91.5t-38 39.5q-26 0 -40.5 -40t-14.5 -91t14 -89.5t40 -38.5q14 0 24 11t16 29.5t9 41t3 46.5zM317 -7q-78 0 -140.5 28t-100 84t-37.5 131q0 114 78 181t200 67t199 -67t77 -181q0 -113 -78.5 -178t-197.5 -65zM398 753q22 12 47 12q36 0 57.5 -31
t21.5 -65q0 -50 -62 -74l-122 -41q-25 -8 -46 -8q-20 0 -35.5 8t-24 21.5t-8.5 30.5t9 31.5t17.5 21t25.5 18.5q3 2 5 3z" />
    <glyph glyph-name="ocircumflex" unicode="&#xf4;" horiz-adv-x="631" 
d="M369 237q0 52 -13 91.5t-38 39.5q-26 0 -40.5 -40t-14.5 -91t14 -89.5t40 -38.5q14 0 24 11t16 29.5t9 41t3 46.5zM317 -7q-78 0 -140.5 28t-100 84t-37.5 131q0 114 78 181t200 67t199 -67t77 -181q0 -113 -78.5 -178t-197.5 -65zM452 702q51 -51 51 -83q0 -19 -11 -35
t-27.5 -25.5t-33.5 -9.5q-24 0 -54 31q-5 5 -11.5 12t-10 11t-8.5 9t-8 7.5t-6.5 5.5t-6.5 4.5t-6 2.5t-6 1q-5 0 -10 -2.5t-11 -8t-11 -10.5t-12.5 -14t-13.5 -15q-31 -32 -58 -32q-30 0 -51 20t-21 48q0 7 2 14.5t4.5 12.5t8 13t8 11t10 11.5t9.5 10.5q69 81 145 81
q20 0 38 -5t31 -11t28 -17.5t22 -18.5t20 -19z" />
    <glyph glyph-name="otilde" unicode="&#xf5;" horiz-adv-x="631" 
d="M369 237q0 52 -13 91.5t-38 39.5q-26 0 -40.5 -40t-14.5 -91t14 -89.5t40 -38.5q14 0 24 11t16 29.5t9 41t3 46.5zM317 -7q-78 0 -140.5 28t-100 84t-37.5 131q0 114 78 181t200 67t199 -67t77 -181q0 -113 -78.5 -178t-197.5 -65zM256 613q0 -12 -5.5 -23t-14.5 -19
t-22 -12.5t-28 -4.5q-40 0 -54 20t-14 59q0 20 6 38.5t17 34t29 25t40 9.5q38 0 78.5 -15t61.5 -29l22 -15q0 25 20.5 42t49.5 17q40 0 54 -20t14 -58q0 -27 -9.5 -51t-31 -40.5t-51.5 -16.5q-36 0 -68 14.5t-55 29.5t-39 15z" />
    <glyph glyph-name="odieresis" unicode="&#xf6;" horiz-adv-x="631" 
d="M369 237q0 52 -13 91.5t-38 39.5q-26 0 -40.5 -40t-14.5 -91t14 -89.5t40 -38.5q14 0 24 11t16 29.5t9 41t3 46.5zM317 -7q-78 0 -140.5 28t-100 84t-37.5 131q0 114 78 181t200 67t199 -67t77 -181q0 -113 -78.5 -178t-197.5 -65zM341 605q0 32 27.5 52t76.5 20
q105 0 105 -72q0 -41 -26.5 -57t-78.5 -16q-45 0 -74.5 17t-29.5 56zM101 605q0 32 27 52t77 20q105 0 105 -72q0 -41 -27 -57t-78 -16q-45 0 -74.5 17t-29.5 56z" />
    <glyph glyph-name="divide" unicode="&#xf7;" horiz-adv-x="446" 
d="M365 310q43 0 60 -17.5t17 -60.5q0 -37 -20.5 -51.5t-65.5 -14.5h-271q-81 0 -81 70q0 74 77 74h284zM129 417q0 30 25.5 49.5t71.5 19.5q99 0 99 -69q0 -38 -25 -53.5t-74 -15.5q-42 0 -69.5 16.5t-27.5 52.5zM129 62q0 30 25.5 49.5t71.5 19.5q99 0 99 -69
q0 -38 -25 -53.5t-74 -15.5q-42 0 -69.5 16.5t-27.5 52.5z" />
    <glyph glyph-name="oslash" unicode="&#xf8;" horiz-adv-x="631" 
d="M263 232l8 7l84 82l3 3q-15 44 -40.5 44t-40 -40t-14.5 -91v-2.5v-2.5zM276 149q16 -40 41 -40q14 0 24 11t16 29.5t9 41t3 46.5v1v1l-2 -2l-80 -77zM499 465q25 25 46 25q18 0 30.5 -10.5t12.5 -26.5q0 -21 -32 -50l-15 -13q52 -63 52 -154q0 -113 -78.5 -178
t-197.5 -65q-89 0 -157 37l-24 -24q-22 -24 -44 -24q-15 0 -28 13.5t-13 27.5q0 12 5 20t17 19l22 19q-56 63 -56 155q0 114 78 181t200 67q46 0 87 -10t74 -30z" />
    <glyph glyph-name="ugrave" unicode="&#xf9;" horiz-adv-x="625" 
d="M265 211q0 -57 44 -57q22 0 36 21t14 54v134q0 25 7 46t20 36t32 23t42 8q54 0 84 -23.5t30 -86.5v-260q0 -61 -25 -84t-88 -23q-76 0 -94 51q-76 -49 -188 -49q-71 0 -102 55.5t-31 182.5q0 63 3 102.5t9.5 68t20 42.5t32 20t48.5 6q56 0 80.5 -21t24.5 -63zM263 753
l115 -72q1 -1 10 -7t10.5 -7.5t8.5 -7t9.5 -8.5t7 -9t6 -11t3 -11.5t1.5 -13.5q0 -26 -18.5 -43t-48.5 -17q-22 0 -46 8l-122 41q-62 23 -62 74q0 34 21.5 65.5t56.5 31.5q25 0 48 -13z" />
    <glyph glyph-name="uacute" unicode="&#xfa;" horiz-adv-x="625" 
d="M265 211q0 -57 44 -57q22 0 36 21t14 54v134q0 25 7 46t20 36t32 23t42 8q54 0 84 -23.5t30 -86.5v-260q0 -61 -25 -84t-88 -23q-76 0 -94 51q-76 -49 -188 -49q-71 0 -102 55.5t-31 182.5q0 63 3 102.5t9.5 68t20 42.5t32 20t48.5 6q56 0 80.5 -21t24.5 -63zM366 753
q21 12 47 12q36 0 57.5 -31t21.5 -65q0 -50 -62 -74l-122 -41q-25 -8 -46 -8q-30 0 -49 17t-19 43q0 17 8.5 31.5t17.5 21t26 18.5q3 2 5 3z" />
    <glyph glyph-name="ucircumflex" unicode="&#xfb;" horiz-adv-x="625" 
d="M265 211q0 -57 44 -57q22 0 36 21t14 54v134q0 25 7 46t20 36t32 23t42 8q54 0 84 -23.5t30 -86.5v-260q0 -61 -25 -84t-88 -23q-76 0 -94 51q-76 -49 -188 -49q-71 0 -102 55.5t-31 182.5q0 63 3 102.5t9.5 68t20 42.5t32 20t48.5 6q56 0 80.5 -21t24.5 -63zM456 702
q51 -51 51 -83q0 -19 -11 -35t-27.5 -25.5t-33.5 -9.5q-25 0 -54 31q-5 6 -13 14t-11.5 12t-9 9.5t-8.5 7.5t-7 5t-7 4t-7 1t-8.5 -2t-8.5 -5.5t-9.5 -8.5t-9.5 -9.5t-10.5 -12t-11.5 -12.5q-31 -32 -58 -32q-30 0 -51 20t-21 48q0 7 2 14.5t4 12.5t8 13t8.5 11t10 11.5
t8.5 10.5q70 81 146 81q19 0 37.5 -5t31.5 -11t28 -17.5t22 -18.5t20 -19z" />
    <glyph glyph-name="udieresis" unicode="&#xfc;" horiz-adv-x="625" 
d="M265 211q0 -57 44 -57q22 0 36 21t14 54v134q0 25 7 46t20 36t32 23t42 8q54 0 84 -23.5t30 -86.5v-260q0 -61 -25 -84t-88 -23q-76 0 -94 51q-76 -49 -188 -49q-71 0 -102 55.5t-31 182.5q0 63 3 102.5t9.5 68t20 42.5t32 20t48.5 6q56 0 80.5 -21t24.5 -63zM336 605
q0 32 27.5 52t76.5 20q105 0 105 -72q0 -41 -26.5 -57t-78.5 -16q-45 0 -74.5 17t-29.5 56zM96 605q0 32 27 52t77 20q104 0 104 -72q0 -41 -26.5 -57t-77.5 -16q-45 0 -74.5 17t-29.5 56z" />
    <glyph glyph-name="yacute" unicode="&#xfd;" horiz-adv-x="607" 
d="M564 282q0 -171 -10 -239q-8 -61 -25 -105.5t-48 -79t-79 -51.5t-114 -17q-53 0 -98.5 15.5t-72 38t-41.5 44.5t-15 38t10.5 29.5t28.5 13.5q16 0 39.5 -13t51.5 -26t54 -13q54 0 76.5 27t22.5 77q-61 -25 -119 -25q-44 0 -79.5 19t-57 50.5t-32.5 69.5t-11 80
q0 112 8.5 166t29 75t63.5 21q63 0 88.5 -21.5t25.5 -67.5l1 -161v-23.5t1.5 -18.5t4 -16t7 -10.5t12 -7.5t18.5 -2q30 0 37.5 16.5t7.5 60.5l1 162q0 46 25.5 67.5t88.5 21.5q26 0 44.5 -8.5t29.5 -22t16.5 -40t7.5 -53.5t2 -71zM374 753q21 12 47 12q36 0 57.5 -31
t21.5 -65q0 -50 -62 -74l-122 -41q-25 -8 -46 -8q-20 0 -35.5 8t-24 21.5t-8.5 30.5t8.5 31.5t17.5 21t26 18.5q3 2 5 3z" />
    <glyph glyph-name="thorn" unicode="&#xfe;" horiz-adv-x="650" 
d="M290 340v-204q16 -19 39 -19q27 0 42 36t15 82q0 49 -16 87t-42 38q-22 0 -38 -20zM290 -48q0 -78 -29 -114t-88 -36q-58 0 -85.5 31.5t-27.5 110.5v649q0 120 113 120q58 0 87.5 -22t29.5 -89v-160q62 42 130 42q80 0 131.5 -67.5t51.5 -181.5q0 -112 -52 -176.5
t-131 -64.5q-73 0 -130 30v-72z" />
    <glyph glyph-name="ydieresis" unicode="&#xff;" horiz-adv-x="607" 
d="M564 282q0 -171 -10 -239q-8 -61 -25 -105.5t-48 -79t-79 -51.5t-114 -17q-53 0 -98.5 15.5t-72 38t-41.5 44.5t-15 38t10.5 29.5t28.5 13.5q16 0 39.5 -13t51.5 -26t54 -13q54 0 76.5 27t22.5 77q-61 -25 -119 -25q-44 0 -79.5 19t-57 50.5t-32.5 69.5t-11 80
q0 112 8.5 166t29 75t63.5 21q63 0 88.5 -21.5t25.5 -67.5l1 -161v-23.5t1.5 -18.5t4 -16t7 -10.5t12 -7.5t18.5 -2q30 0 37.5 16.5t7.5 60.5l1 162q0 46 25.5 67.5t88.5 21.5q26 0 44.5 -8.5t29.5 -22t16.5 -40t7.5 -53.5t2 -71zM326 605q0 32 27.5 52t76.5 20
q105 0 105 -72q0 -41 -26.5 -57t-78.5 -16q-45 0 -74.5 17t-29.5 56zM86 605q0 32 27 52t77 20q104 0 104 -72q0 -41 -26.5 -57t-77.5 -16q-45 0 -74.5 17t-29.5 56z" />
    <glyph glyph-name="Amacron" unicode="&#x100;" horiz-adv-x="712" 
d="M358 522q-43 0 -63.5 -25t-20.5 -89v-118h166v120q0 62 -20.5 87t-61.5 25zM440 152h-166v-53q0 -51 -27 -75t-93 -24q-28 0 -46 8t-31.5 27t-20 55.5t-10 88t-3.5 130.5q0 59 11 110t29 89t43.5 68.5t53.5 50.5t59.5 33.5t61.5 19t59 5.5q42 0 83 -11.5t83 -39.5
t73.5 -69.5t51.5 -107.5t20 -148q0 -66 -2 -112t-7 -82t-12.5 -57t-20.5 -34.5t-29.5 -18.5t-39.5 -5q-44 0 -71 11.5t-38 32.5t-11 55v53zM159 839q0 44 27.5 64.5t69.5 20.5h208q55 0 77 -23t22 -64q0 -19 -7 -33.5t-19 -24.5t-28.5 -15t-36.5 -5h-201q-60 0 -86 17
t-26 63z" />
    <glyph glyph-name="amacron" unicode="&#x101;" 
d="M225 -6q-79 0 -131 64.5t-52 176.5q0 76 24 133t65 86.5t94 29.5q81 0 150 -57q27 50 87 50q54 0 84 -23.5t30 -86.5v-260q0 -60 -25 -83.5t-88 -23.5q-66 0 -87 37q-64 -43 -151 -43zM361 331q-17 29 -44 29q-26 0 -42 -38t-16 -87q0 -46 15 -82t42 -36q28 0 45 27v187z
M146 624q0 40 24.5 58.5t62.5 18.5h188q49 -1 69 -21.5t20 -57.5q0 -33 -23.5 -51.5t-58.5 -18.5h-182q-36 0 -56.5 6t-32 22t-11.5 44z" />
    <glyph glyph-name="Abreve" unicode="&#x102;" horiz-adv-x="712" 
d="M358 522q-43 0 -63.5 -25t-20.5 -89v-118h166v120q0 62 -20.5 87t-61.5 25zM440 152h-166v-53q0 -51 -27 -75t-93 -24q-28 0 -46 8t-31.5 27t-20 55.5t-10 88t-3.5 130.5q0 59 11 110t29 89t43.5 68.5t53.5 50.5t59.5 33.5t61.5 19t59 5.5q42 0 83 -11.5t83 -39.5
t73.5 -69.5t51.5 -107.5t20 -148q0 -66 -2 -112t-7 -82t-12.5 -57t-20.5 -34.5t-29.5 -18.5t-39.5 -5q-44 0 -71 11.5t-38 32.5t-11 55v53zM359 882q37 0 37 52q0 53 80 53q90 0 90 -74q0 -161 -207 -161q-47 0 -82.5 8t-64.5 25.5t-44.5 50t-15.5 77.5q0 74 90 74
q80 0 80 -53q0 -27 8 -39.5t29 -12.5z" />
    <glyph glyph-name="abreve" unicode="&#x103;" 
d="M225 -6q-79 0 -131 64.5t-52 176.5q0 76 24 133t65 86.5t94 29.5q81 0 150 -57q27 50 87 50q54 0 84 -23.5t30 -86.5v-260q0 -60 -25 -83.5t-88 -23.5q-66 0 -87 37q-64 -43 -151 -43zM361 331q-17 29 -44 29q-26 0 -42 -38t-16 -87q0 -46 15 -82t42 -36q28 0 45 27v187z
M332 663q33 0 33 47q0 48 72 48q81 0 81 -66q0 -146 -186 -146q-88 0 -137 33t-49 113q0 66 81 66q72 0 72 -48q0 -24 7 -35.5t26 -11.5z" />
    <glyph glyph-name="Aogonek" unicode="&#x104;" horiz-adv-x="712" 
d="M358 522q-43 0 -63.5 -25t-20.5 -89v-118h166v120q0 62 -20.5 87t-61.5 25zM440 152h-166v-53q0 -51 -27 -75t-93 -24q-28 0 -46 8t-31.5 27t-20 55.5t-10 88t-3.5 130.5q0 59 11 110t29 89t43.5 68.5t53.5 50.5t59.5 33.5t61.5 19t59 5.5q42 0 83 -11.5t83 -39.5
t73.5 -69.5t51.5 -107.5t20 -148q0 -209 -28 -264q-12 -25 -32 -35q-23 -63 -23 -99q0 -16 8 -27t21 -11q12 0 31.5 15.5t34.5 15.5q8 0 16.5 -4t16 -10.5t13.5 -14.5t9.5 -17.5t3.5 -17.5q0 -19 -10 -37q-21 -36 -66 -53t-84 -17q-59 0 -103.5 35.5t-44.5 94.5q0 71 57 148
q-51 19 -51 88v53z" />
    <glyph glyph-name="aogonek" unicode="&#x105;" 
d="M225 -6q-79 0 -131 64.5t-52 176.5q0 76 24 133t65 86.5t94 29.5q81 0 150 -57q27 50 87 50q54 0 84 -23.5t30 -86.5v-260q0 -44 -12.5 -67.5t-41.5 -32.5q-17 -34 -27.5 -74t-10.5 -59q0 -16 8.5 -27t20.5 -11q13 0 32.5 15.5t34.5 15.5q10 0 20.5 -6t19 -15t14 -20.5
t5.5 -22.5q0 -19 -11 -37q-20 -36 -65 -53t-84 -17q-59 0 -103.5 35.5t-44.5 94.5q0 43 23 91t61 89q-27 9 -39 31q-64 -43 -151 -43zM361 331q-17 29 -44 29q-26 0 -42 -38t-16 -87q0 -46 15 -82t42 -36q28 0 45 27v187z" />
    <glyph glyph-name="Cacute" unicode="&#x106;" horiz-adv-x="783" 
d="M473 497q0 21 -17.5 36t-41.5 15q-48 0 -79 -54.5t-31 -123.5q0 -81 45.5 -134.5t120.5 -53.5q37 0 71 14.5t55 32t43.5 32t39.5 14.5q22 0 38 -17.5t16 -36.5q0 -21 -12.5 -49t-39.5 -59.5t-63 -58t-89.5 -44t-112.5 -17.5q-105 0 -186.5 40t-130 120t-48.5 188
q0 162 97 256t254 94q80 0 148 -27t108 -75t40 -105q0 -42 -18.5 -81t-55.5 -65.5t-84 -26.5q-40 0 -72 22t-32 63q0 19 18.5 53t18.5 48zM428 977q24 14 53 14q39 0 63 -34t24 -72q0 -56 -69 -82l-135 -45q-27 -9 -50 -9q-22 0 -39.5 9t-26.5 24t-9 33q0 19 9.5 35t19 23.5
t28.5 19.5q4 3 6 4z" />
    <glyph glyph-name="cacute" unicode="&#x107;" horiz-adv-x="599" 
d="M342 374q0 23 -26 23q-28 0 -46.5 -42.5t-18.5 -96.5q0 -33 13.5 -58t39.5 -39.5t60 -14.5q51 0 88 12q15 4 36.5 15t30.5 11q20 0 29.5 -9.5t9.5 -22.5q0 -14 -9.5 -34t-29.5 -42t-46.5 -40.5t-65.5 -30.5t-82 -12q-81 0 -144.5 28.5t-101.5 86t-38 134.5q0 112 79 177
t205 65q117 0 171.5 -38t54.5 -104q0 -19 -7.5 -39t-23 -40t-45.5 -32.5t-70 -12.5q-18 0 -29.5 2t-24 8.5t-18.5 21.5t-6 38q0 20 7.5 48.5t7.5 37.5zM362 762q22 13 48 13q35 0 56.5 -31t21.5 -66q0 -50 -62 -74l-122 -41q-25 -8 -46 -8q-30 0 -48.5 17.5t-18.5 42.5
q0 17 8.5 31.5t17 21.5t25.5 18q3 2 5 4z" />
    <glyph glyph-name="Ccircumflex" unicode="&#x108;" horiz-adv-x="783" 
d="M473 497q0 21 -17.5 36t-41.5 15q-48 0 -79 -54.5t-31 -123.5q0 -81 45.5 -134.5t120.5 -53.5q37 0 71 14.5t55 32t43.5 32t39.5 14.5q22 0 38 -17.5t16 -36.5q0 -21 -12.5 -49t-39.5 -59.5t-63 -58t-89.5 -44t-112.5 -17.5q-105 0 -186.5 40t-130 120t-48.5 188
q0 162 97 256t254 94q80 0 148 -27t108 -75t40 -105q0 -42 -18.5 -81t-55.5 -65.5t-84 -26.5q-40 0 -72 22t-32 63q0 19 18.5 53t18.5 48zM552 906q54 -54 54 -88q0 -19 -11 -36t-28.5 -26.5t-35.5 -9.5q-26 0 -57 32q-12 12 -27.5 31t-23.5 26t-15 7q-9 0 -18 -8.5t-22 -26
t-22 -26.5q-32 -33 -61 -33q-31 0 -53.5 20.5t-22.5 49.5q0 8 2.5 16t5 13.5t8 13.5t8.5 11.5t11 12.5t9 11q73 85 154 85q17 0 32.5 -3t29.5 -9.5t24.5 -12.5t23 -16.5t18.5 -16.5z" />
    <glyph glyph-name="ccircumflex" unicode="&#x109;" horiz-adv-x="599" 
d="M342 374q0 23 -26 23q-28 0 -46.5 -42.5t-18.5 -96.5q0 -33 13.5 -58t39.5 -39.5t60 -14.5q51 0 88 12q15 4 36.5 15t30.5 11q20 0 29.5 -9.5t9.5 -22.5q0 -14 -9.5 -34t-29.5 -42t-46.5 -40.5t-65.5 -30.5t-82 -12q-81 0 -144.5 28.5t-101.5 86t-38 134.5q0 112 79 177
t205 65q117 0 171.5 -38t54.5 -104q0 -19 -7.5 -39t-23 -40t-45.5 -32.5t-70 -12.5q-18 0 -29.5 2t-24 8.5t-18.5 21.5t-6 38q0 20 7.5 48.5t7.5 37.5zM450 703q51 -51 51 -84q0 -28 -22.5 -48.5t-49.5 -20.5q-25 0 -54 31q-5 5 -13 13.5t-11.5 12.5t-9 9t-8.5 7.5t-7 5
t-7 3.5t-7 1q-6 0 -13.5 -4.5t-12.5 -9.5t-15.5 -17t-16.5 -18q-31 -32 -58 -32q-30 0 -51 20t-21 47q0 8 2 15.5t4.5 12.5t8 13t8 11t10 11.5t9.5 10.5q69 81 145 81q31 0 60 -13t43 -25t36 -33z" />
    <glyph glyph-name="NameMe.614" unicode="&#x10a;" horiz-adv-x="783" 
d="M473 497q0 21 -17.5 36t-41.5 15q-48 0 -79 -54.5t-31 -123.5q0 -81 45.5 -134.5t120.5 -53.5q37 0 71 14.5t55 32t43.5 32t39.5 14.5q22 0 38 -17.5t16 -36.5q0 -21 -12.5 -49t-39.5 -59.5t-63 -58t-89.5 -44t-112.5 -17.5q-105 0 -186.5 40t-130 120t-48.5 188
q0 162 97 256t254 94q80 0 148 -27t108 -75t40 -105q0 -42 -18.5 -81t-55.5 -65.5t-84 -26.5q-40 0 -72 22t-32 63q0 19 18.5 53t18.5 48zM295 828q0 33 28.5 54t79.5 21q110 0 110 -75q0 -43 -28 -60t-82 -17q-46 0 -77 18.5t-31 58.5z" />
    <glyph glyph-name="NameMe.613" unicode="&#x10b;" horiz-adv-x="599" 
d="M342 374q0 23 -26 23q-28 0 -46.5 -42.5t-18.5 -96.5q0 -33 13.5 -58t39.5 -39.5t60 -14.5q51 0 88 12q15 4 36.5 15t30.5 11q20 0 29.5 -9.5t9.5 -22.5q0 -14 -9.5 -34t-29.5 -42t-46.5 -40.5t-65.5 -30.5t-82 -12q-81 0 -144.5 28.5t-101.5 86t-38 134.5q0 112 79 177
t205 65q117 0 171.5 -38t54.5 -104q0 -19 -7.5 -39t-23 -40t-45.5 -32.5t-70 -12.5q-18 0 -29.5 2t-24 8.5t-18.5 21.5t-6 38q0 20 7.5 48.5t7.5 37.5zM205 622q0 34 28.5 55t79.5 21q110 0 110 -76q0 -42 -28 -59t-82 -17q-47 0 -77.5 18.5t-30.5 57.5z" />
    <glyph glyph-name="Ccaron" unicode="&#x10c;" horiz-adv-x="783" 
d="M473 497q0 21 -17.5 36t-41.5 15q-48 0 -79 -54.5t-31 -123.5q0 -81 45.5 -134.5t120.5 -53.5q37 0 71 14.5t55 32t43.5 32t39.5 14.5q22 0 38 -17.5t16 -36.5q0 -21 -12.5 -49t-39.5 -59.5t-63 -58t-89.5 -44t-112.5 -17.5q-105 0 -186.5 40t-130 120t-48.5 188
q0 162 97 256t254 94q80 0 148 -27t108 -75t40 -105q0 -42 -18.5 -81t-55.5 -65.5t-84 -26.5q-40 0 -72 22t-32 63q0 19 18.5 53t18.5 48zM551 830q-12 -12 -19 -18.5t-20.5 -18t-25.5 -18.5t-27.5 -14t-33 -10.5t-36.5 -3.5q-89 0 -170 94q-3 3 -9.5 10.5t-10 11.5t-9 11
t-8.5 12.5t-6 12.5t-4.5 14t-1.5 15q0 32 25 55t60 23q32 0 67 -37q7 -7 19.5 -21t18.5 -20t14.5 -11.5t15.5 -5.5q4 0 8 1t8.5 4.5t8 6t10 9l11 11t13.5 14t15 16.5q34 36 63 36q31 0 57.5 -24.5t26.5 -56.5q0 -38 -60 -98z" />
    <glyph glyph-name="ccaron" unicode="&#x10d;" horiz-adv-x="599" 
d="M342 374q0 23 -26 23q-28 0 -46.5 -42.5t-18.5 -96.5q0 -33 13.5 -58t39.5 -39.5t60 -14.5q51 0 88 12q15 4 36.5 15t30.5 11q20 0 29.5 -9.5t9.5 -22.5q0 -14 -9.5 -34t-29.5 -42t-46.5 -40.5t-65.5 -30.5t-82 -12q-81 0 -144.5 28.5t-101.5 86t-38 134.5q0 112 79 177
t205 65q117 0 171.5 -38t54.5 -104q0 -19 -7.5 -39t-23 -40t-45.5 -32.5t-70 -12.5q-18 0 -29.5 2t-24 8.5t-18.5 21.5t-6 38q0 20 7.5 48.5t7.5 37.5zM466 632q-17 -16 -27.5 -25.5t-30 -23t-41.5 -19.5t-47 -6q-80 0 -153 85q-3 2 -7 7t-6.5 8t-6.5 7.5t-6.5 8t-5.5 8.5
t-5 9t-4 9t-2.5 10t-0.5 10q0 29 22.5 50t53.5 21q29 0 61 -34q6 -6 14 -15t13 -14.5t11.5 -11t11.5 -8.5t11 -3q4 0 7 1t7.5 4t7.5 5.5t8.5 8t9.5 10t12 13t14 14.5q31 32 57 32q28 0 51.5 -21.5t23.5 -51.5q0 -34 -53 -88z" />
    <glyph glyph-name="Dcaron" unicode="&#x10e;" horiz-adv-x="720" 
d="M299 136q33 0 56 9.5t41.5 32.5t28 66t9.5 106q0 46 -7 80.5t-18 56t-28.5 34.5t-37 18.5t-44.5 5.5v-409zM329 684q156 0 250.5 -90t94.5 -248q0 -51 -9.5 -99t-31.5 -93.5t-55 -79t-84 -54t-115 -20.5h-197q-61 0 -87.5 31t-26.5 112v422q0 119 114 119h147zM498 830
q-18 -18 -30 -28.5t-33.5 -25.5t-46 -22t-52.5 -7q-89 0 -170 94q-2 3 -10.5 12.5t-12 13.5t-10 13t-9 15t-5 15t-2.5 18q0 21 11.5 39t31 28.5t42.5 10.5q32 0 67 -37q7 -7 19.5 -21t18.5 -20t14.5 -11.5t15.5 -5.5q4 0 8 1t8.5 4.5t8 6t10 9l11 11t13.5 14t15 16.5
q34 36 63 36q31 0 57.5 -24.5t26.5 -56.5q0 -38 -60 -98z" />
    <glyph glyph-name="dcaron" unicode="&#x10f;" horiz-adv-x="895" 
d="M579 150q0 -81 -27 -115.5t-83 -34.5q-64 0 -88 40q-65 -47 -157 -47q-78 0 -130 64.5t-52 176.5q0 114 51 181.5t131 67.5q72 0 135 -46v128q0 61 30 90.5t80 29.5q55 0 82.5 -22t27.5 -89v-424zM361 144l-1 187q-17 28 -44 28q-26 0 -42 -38t-16 -87q0 -46 15 -82
t42 -36q29 0 46 28zM629 605q0 34 28 55t80 21q54 0 88 -22t34 -73q0 -28 -8 -53.5t-21.5 -45.5t-31 -37t-36.5 -29t-38 -20.5t-36 -12.5t-30 -4q-18 0 -28.5 10.5t-10.5 26.5q0 22 15 29q31 15 48 25.5t30.5 23t24.5 30.5q-47 0 -77.5 18t-30.5 58z" />
    <glyph glyph-name="Dcroat" unicode="&#x110;" horiz-adv-x="720" 
d="M329 684q156 0 250.5 -90t94.5 -248q0 -51 -9.5 -99t-31.5 -93.5t-55 -79t-84 -54t-115 -20.5h-197q-61 0 -87.5 31t-26.5 112v114q-80 1 -80 70q0 72 80 75v163q0 119 114 119h147zM299 136q26 0 45.5 5.5t37 20t28.5 38.5t17.5 61.5t6.5 88.5q0 57 -10 96.5t-29 60
t-41.5 29t-54.5 9.5v-143q43 -3 60.5 -21t17.5 -58q0 -21 -8.5 -35t-25.5 -21t-44 -9v-122z" />
    <glyph glyph-name="dcroat" unicode="&#x111;" horiz-adv-x="625" 
d="M579 150q0 -81 -27 -115.5t-83 -34.5q-64 0 -88 40q-65 -47 -157 -47q-78 0 -130 64.5t-52 176.5q0 114 51 181.5t131 67.5q72 0 135 -46v105q-21 -2 -44.5 -5t-37 -4.5t-14.5 -1.5q-21 0 -34.5 13.5t-13.5 34.5q0 59 61 59h100q27 47 93 47q39 0 63 -10t36 -37
q51 -4 51 -57q0 -24 -10 -36t-30 -14v-381zM361 144l-1 187q-17 28 -44 28q-26 0 -42 -38t-16 -87q0 -46 15 -82t42 -36q29 0 46 28z" />
    <glyph glyph-name="Emacron" unicode="&#x112;" horiz-adv-x="672" 
d="M471 406q53 0 74.5 -17t21.5 -58q0 -23 -11.5 -36.5t-34.5 -20t-59 -6.5h-162v-106l217 -1q56 0 80.5 -16.5t24.5 -58.5q0 -48 -28.5 -67t-86.5 -19h-324q-59 0 -86.5 31.5t-27.5 111.5v422q0 120 114 120h324q38 0 62 -7t38.5 -25.5t14.5 -50.5q0 -44 -24.5 -61.5
t-80.5 -17.5h-218v-117h172zM138 839q0 44 27.5 64.5t69.5 20.5h208q55 0 77 -23t22 -64q0 -19 -7 -33.5t-19.5 -24.5t-29 -15t-35.5 -5h-202q-59 0 -85 17t-26 63z" />
    <glyph glyph-name="emacron" unicode="&#x113;" horiz-adv-x="595" 
d="M321 -6q-122 0 -201.5 63t-79.5 172q0 118 78.5 186.5t202.5 68.5q117 0 171.5 -41.5t54.5 -113.5q0 -45 -37.5 -78t-110.5 -34l-141 -1q10 -32 36 -50.5t66 -18.5q43 0 88 11q19 5 41.5 16t32.5 11q17 0 26.5 -10t9.5 -25q0 -18 -16 -43.5t-44.5 -51t-75.5 -43.5
t-101 -18zM253 280q69 1 75 1q15 0 22 18q5 13 5 36q0 63 -38 63q-21 0 -40.5 -34t-23.5 -84zM133 624q0 40 25 58.5t62 18.5h188q33 0 53.5 -11t28 -27.5t7.5 -40.5q0 -32 -23.5 -51t-58.5 -19h-182q-36 0 -56.5 6t-32 22t-11.5 44z" />
    <glyph glyph-name="Ebreve" unicode="&#x114;" horiz-adv-x="672" 
d="M471 406q53 0 74.5 -17t21.5 -58q0 -23 -11.5 -36.5t-34.5 -20t-59 -6.5h-162v-106l217 -1q56 0 80.5 -16.5t24.5 -58.5q0 -48 -28.5 -67t-86.5 -19h-324q-59 0 -86.5 31.5t-27.5 111.5v422q0 120 114 120h324q38 0 62 -7t38.5 -25.5t14.5 -50.5q0 -44 -24.5 -61.5
t-80.5 -17.5h-218v-117h172zM342 882q38 0 38 52q0 53 79 53q91 0 91 -74q0 -161 -208 -161q-46 0 -82 8t-65 25.5t-44 50t-15 77.5q0 74 90 74q80 0 80 -53q0 -27 8 -39.5t28 -12.5z" />
    <glyph glyph-name="ebreve" unicode="&#x115;" horiz-adv-x="595" 
d="M321 -6q-122 0 -201.5 63t-79.5 172q0 118 78.5 186.5t202.5 68.5q117 0 171.5 -41.5t54.5 -113.5q0 -45 -37.5 -78t-110.5 -34l-141 -1q10 -32 36 -50.5t66 -18.5q43 0 88 11q19 5 41.5 16t32.5 11q17 0 26.5 -10t9.5 -25q0 -18 -16 -43.5t-44.5 -51t-75.5 -43.5
t-101 -18zM253 280q69 1 75 1q15 0 22 18q5 13 5 36q0 63 -38 63q-21 0 -40.5 -34t-23.5 -84zM321 663q33 0 33 47q0 48 72 48q81 0 81 -66q0 -146 -186 -146q-88 0 -137 33t-49 113q0 66 81 66q72 0 72 -48q0 -24 7 -35.5t26 -11.5z" />
    <glyph glyph-name="Edotaccent" unicode="&#x116;" horiz-adv-x="672" 
d="M471 406q53 0 74.5 -17t21.5 -58q0 -23 -11.5 -36.5t-34.5 -20t-59 -6.5h-162v-106l217 -1q56 0 80.5 -16.5t24.5 -58.5q0 -48 -28.5 -67t-86.5 -19h-324q-59 0 -86.5 31.5t-27.5 111.5v422q0 120 114 120h324q38 0 62 -7t38.5 -25.5t14.5 -50.5q0 -44 -24.5 -61.5
t-80.5 -17.5h-218v-117h172zM220 825q0 34 28.5 55t80.5 21q109 0 109 -76q0 -42 -28 -59t-81 -17q-47 0 -78 18t-31 58z" />
    <glyph glyph-name="edotaccent" unicode="&#x117;" horiz-adv-x="595" 
d="M321 -6q-122 0 -201.5 63t-79.5 172q0 118 78.5 186.5t202.5 68.5q117 0 171.5 -41.5t54.5 -113.5q0 -45 -37.5 -78t-110.5 -34l-141 -1q10 -32 36 -50.5t66 -18.5q43 0 88 11q19 5 41.5 16t32.5 11q17 0 26.5 -10t9.5 -25q0 -18 -16 -43.5t-44.5 -51t-75.5 -43.5
t-101 -18zM253 280q69 1 75 1q15 0 22 18q5 13 5 36q0 63 -38 63q-21 0 -40.5 -34t-23.5 -84zM200 620q0 34 28.5 55t79.5 21q110 0 110 -76q0 -42 -28 -59t-82 -17q-46 0 -77 18t-31 58z" />
    <glyph glyph-name="Eogonek" unicode="&#x118;" horiz-adv-x="672" 
d="M471 406q53 0 74.5 -17t21.5 -58q0 -23 -11.5 -36.5t-34.5 -20t-59 -6.5h-162v-106l217 -1q56 0 80.5 -16.5t24.5 -58.5q0 -8 -1 -16h1q-1 -1 -1 -2q-4 -24 -17 -39q-22 -62 -22 -97q0 -15 8.5 -26.5t20.5 -11.5q13 0 32 15.5t35 15.5q20 0 39.5 -21t19.5 -43
q0 -19 -11 -37q-20 -35 -65 -52.5t-84 -17.5q-38 0 -71.5 15.5t-55 45.5t-21.5 69q0 55 36 116h-282q-59 0 -86.5 31.5t-27.5 111.5v422q0 120 114 120h324q38 0 62 -7t38.5 -25.5t14.5 -50.5q0 -44 -24.5 -61.5t-80.5 -17.5h-218v-117h172z" />
    <glyph glyph-name="eogonek" unicode="&#x119;" horiz-adv-x="595" 
d="M453 26q-21 -60 -21 -94q0 -15 8.5 -26.5t20.5 -11.5q13 0 32 15.5t35 15.5q20 0 39.5 -21t19.5 -43q0 -19 -11 -37q-20 -35 -65 -52.5t-84 -17.5q-38 0 -71.5 15.5t-55 45.5t-21.5 69q0 52 32 110q-118 3 -194.5 65.5t-76.5 169.5q0 118 78.5 186.5t202.5 68.5
q117 0 171.5 -41.5t54.5 -113.5q0 -45 -37.5 -78t-110.5 -34l-141 -1q10 -32 36 -50.5t66 -18.5q43 0 88 11q19 5 41.5 16t32.5 11q17 0 26.5 -10t9.5 -25q0 -25 -28.5 -62t-76.5 -62zM253 280q69 1 75 1q15 0 22 18q5 13 5 36q0 63 -38 63q-21 0 -40.5 -34t-23.5 -84z" />
    <glyph glyph-name="Ecaron" unicode="&#x11a;" horiz-adv-x="672" 
d="M471 406q53 0 74.5 -17t21.5 -58q0 -23 -11.5 -36.5t-34.5 -20t-59 -6.5h-162v-106l217 -1q56 0 80.5 -16.5t24.5 -58.5q0 -48 -28.5 -67t-86.5 -19h-324q-59 0 -86.5 31.5t-27.5 111.5v422q0 120 114 120h324q38 0 62 -7t38.5 -25.5t14.5 -50.5q0 -44 -24.5 -61.5
t-80.5 -17.5h-218v-117h172zM492 830q-18 -18 -30 -28.5t-33.5 -25.5t-46 -22t-52.5 -7q-89 0 -170 94q-2 3 -11 12.5t-12 13.5t-9.5 13t-9 15t-5 15t-2.5 18q0 15 6.5 30t18 25.5t27 16.5t32.5 6q33 0 68 -37q7 -7 19.5 -21t18.5 -20t14.5 -11.5t15.5 -5.5q4 0 8 1t8.5 4.5
t8 6t10 9l11 11t13 14t15.5 16.5q34 36 63 36q31 0 57.5 -24.5t26.5 -56.5q0 -38 -60 -98z" />
    <glyph glyph-name="ecaron" unicode="&#x11b;" horiz-adv-x="595" 
d="M321 -6q-122 0 -201.5 63t-79.5 172q0 118 78.5 186.5t202.5 68.5q117 0 171.5 -41.5t54.5 -113.5q0 -45 -37.5 -78t-110.5 -34l-141 -1q10 -32 36 -50.5t66 -18.5q43 0 88 11q19 5 41.5 16t32.5 11q17 0 26.5 -10t9.5 -25q0 -18 -16 -43.5t-44.5 -51t-75.5 -43.5
t-101 -18zM253 280q69 1 75 1q15 0 22 18q5 13 5 36q0 63 -38 63q-21 0 -40.5 -34t-23.5 -84zM446 632q-14 -13 -21.5 -20.5t-23 -19.5t-29 -18t-33 -11.5t-39.5 -5.5q-80 0 -153 85q-2 2 -10 11t-10.5 12.5t-8.5 11.5t-8.5 13.5t-4.5 13.5t-2 16q0 19 10 35t27.5 26
t38.5 10q29 0 61 -34q6 -6 17 -18.5t16.5 -18t13 -10.5t14.5 -5q4 0 7 1t7.5 3.5t7.5 5.5l8.5 8.5l9.5 9.5t12 12.5t14 14.5q31 33 57 33q28 0 51.5 -22t23.5 -51q0 -34 -53 -88z" />
    <glyph glyph-name="Gcircumflex" unicode="&#x11c;" horiz-adv-x="782" 
d="M452 517q0 31 -41 31q-42 0 -72 -47t-30 -157q0 -102 34.5 -148.5t81.5 -46.5q24 0 40 14t16 39q-35 0 -55 18t-20 43q0 36 19 54t65 18h121q58 0 90 -25t32 -88q0 -92 -88 -160.5t-209 -68.5q-111 0 -197.5 40t-137 119.5t-50.5 188.5q0 162 98 256t260 94q79 0 138 -14
t93 -39t50 -55t16 -65q0 -19 -6 -36.5t-21.5 -35t-47.5 -28.5t-77 -11q-66 0 -84 19.5t-18 90.5zM548 906q53 -54 53 -88q0 -19 -11 -36t-28.5 -26.5t-35.5 -9.5q-26 0 -57 32q-12 12 -27.5 31t-23 26t-15.5 7q-9 0 -17.5 -8.5t-21.5 -26t-22 -26.5q-32 -33 -61 -33
q-21 0 -38.5 9.5t-27.5 25.5t-10 35q0 7 1 13.5t4 12.5l5.5 11t7.5 11.5t8 10t9 10t9 9.5q73 85 153 85q25 0 47 -6.5t41.5 -20t30 -22.5t27.5 -26z" />
    <glyph glyph-name="Gbreve" unicode="&#x11e;" horiz-adv-x="782" 
d="M452 517q0 31 -41 31q-42 0 -72 -47t-30 -157q0 -102 34.5 -148.5t81.5 -46.5q24 0 40 14t16 39q-35 0 -55 18t-20 43q0 36 19 54t65 18h121q58 0 90 -25t32 -88q0 -92 -88 -160.5t-209 -68.5q-111 0 -197.5 40t-137 119.5t-50.5 188.5q0 162 98 256t260 94q79 0 138 -14
t93 -39t50 -55t16 -65q0 -19 -6 -36.5t-21.5 -35t-47.5 -28.5t-77 -11q-66 0 -84 19.5t-18 90.5zM392 882q38 0 38 52q0 53 79 53q91 0 91 -74q0 -161 -208 -161q-46 0 -81.5 8t-64.5 25.5t-44.5 50t-15.5 77.5q0 74 90 74q80 0 80 -53q0 -27 8 -39.5t28 -12.5z" />
    <glyph glyph-name="gbreve" unicode="&#x11f;" 
d="M228 -6q-79 0 -131 64.5t-52 177.5q0 114 51 181t131 67q81 0 150 -56q26 49 86 49q54 0 84.5 -24t30.5 -86v-183q0 -97 -12.5 -166.5t-43 -122.5t-84 -79t-131.5 -26q-54 0 -100 15t-73 37t-42 44t-15 38q0 19 11 32t31 13q12 0 60.5 -26t78.5 -26q102 0 102 105
q-58 -28 -132 -28zM364 144l-1 189q-17 28 -43 28q-14 0 -25 -11t-18 -29t-11 -40.5t-4 -44.5q0 -47 15 -82.5t42 -35.5t45 26zM326 664q34 0 34 47t71 47q82 0 82 -66q0 -145 -187 -145q-87 0 -136.5 32.5t-49.5 112.5q0 66 82 66q71 0 71 -47q0 -24 7.5 -35.5t25.5 -11.5z
" />
    <glyph glyph-name="Gdotaccent" unicode="&#x120;" horiz-adv-x="782" 
d="M452 517q0 31 -41 31q-42 0 -72 -47t-30 -157q0 -102 34.5 -148.5t81.5 -46.5q24 0 40 14t16 39q-35 0 -55 18t-20 43q0 36 19 54t65 18h121q58 0 90 -25t32 -88q0 -92 -88 -160.5t-209 -68.5q-111 0 -197.5 40t-137 119.5t-50.5 188.5q0 162 98 256t260 94q79 0 138 -14
t93 -39t50 -55t16 -65q0 -19 -6 -36.5t-21.5 -35t-47.5 -28.5t-77 -11q-66 0 -84 19.5t-18 90.5zM303 828q0 33 28.5 54t79.5 21q110 0 110 -75q0 -43 -28 -60t-82 -17q-46 0 -77 18.5t-31 58.5z" />
    <glyph glyph-name="gdotaccent" unicode="&#x121;" 
d="M228 -6q-79 0 -131 64.5t-52 177.5q0 114 51 181t131 67q81 0 150 -56q26 49 86 49q54 0 84.5 -24t30.5 -86v-183q0 -97 -12.5 -166.5t-43 -122.5t-84 -79t-131.5 -26q-54 0 -100 15t-73 37t-42 44t-15 38q0 19 11 32t31 13q12 0 60.5 -26t78.5 -26q102 0 102 105
q-58 -28 -132 -28zM364 144l-1 189q-17 28 -43 28q-14 0 -25 -11t-18 -29t-11 -40.5t-4 -44.5q0 -47 15 -82.5t42 -35.5t45 26zM247 621q0 33 28.5 54t80.5 21q109 0 109 -75q0 -43 -28 -60t-81 -17q-47 0 -78 18.5t-31 58.5z" />
    <glyph glyph-name="Gcommaaccent" unicode="&#x122;" horiz-adv-x="782" 
d="M452 517q0 31 -41 31q-42 0 -72 -47t-30 -157q0 -102 34.5 -148.5t81.5 -46.5q24 0 40 14t16 39q-35 0 -55 18t-20 43q0 36 19 54t65 18h121q58 0 90 -25t32 -88q0 -92 -88 -160.5t-209 -68.5q-111 0 -197.5 40t-137 119.5t-50.5 188.5q0 162 98 256t260 94q79 0 138 -14
t93 -39t50 -55t16 -65q0 -19 -6 -36.5t-21.5 -35t-47.5 -28.5t-77 -11q-66 0 -84 19.5t-18 90.5zM313 -142q0 33 28 54t80 21q54 0 88 -22t34 -73q0 -24 -6.5 -47t-17 -41t-24.5 -34.5t-30 -28.5t-33 -22t-33.5 -16t-31 -9t-26.5 -3q-17 0 -27.5 10t-10.5 26q0 22 15 29
q45 22 65.5 37.5t37.5 41.5q-47 0 -77.5 18.5t-30.5 58.5z" />
    <glyph glyph-name="gcommaaccent" unicode="&#x123;" 
d="M228 -6q-79 0 -131 64.5t-52 177.5q0 114 51 181t131 67q81 0 150 -56q26 49 86 49q54 0 84.5 -24t30.5 -86v-183q0 -97 -12.5 -166.5t-43 -122.5t-84 -79t-131.5 -26q-54 0 -100 15t-73 37t-42 44t-15 38q0 19 11 32t31 13q12 0 60.5 -26t78.5 -26q102 0 102 105
q-58 -28 -132 -28zM364 144l-1 189q-17 28 -43 28q-14 0 -25 -11t-18 -29t-11 -40.5t-4 -44.5q0 -47 15 -82.5t42 -35.5t45 26zM439 601q0 -34 -28 -55t-80 -21q-54 0 -88 22t-34 74q0 38 15 72t38.5 56.5t51 39.5t52.5 25t44 8q18 0 28.5 -10.5t10.5 -26.5q0 -21 -15 -28
q-30 -15 -47.5 -26t-31 -23.5t-24.5 -30.5q47 0 77.5 -18t30.5 -58z" />
    <glyph glyph-name="Hcircumflex" unicode="&#x124;" horiz-adv-x="780" 
d="M723 150q0 -81 -29 -115.5t-88 -34.5q-58 0 -85 31.5t-27 111.5l-1 113h-204v-106q0 -82 -28 -116t-89 -34q-58 0 -85 31.5t-27 111.5l-3 422q0 62 31.5 91t83.5 29q29 0 48 -4t36 -15t25 -34t8 -58v-168h203v159q0 62 31 91t83 29q58 0 87.5 -22t29.5 -89v-424zM545 906
q53 -54 53 -88q0 -19 -11 -36t-28.5 -26.5t-35.5 -9.5q-26 0 -57 32q-12 12 -27.5 31t-23 26t-15.5 7q-9 0 -17.5 -8.5t-21.5 -26t-22 -26.5q-32 -33 -61 -33q-21 0 -38.5 9.5t-27.5 25.5t-10 35q0 6 1 12t2.5 11t5 10.5t6 9.5t7 9.5t7 8.5t7.5 8.5t8 8.5q73 85 153 85
q20 0 39.5 -5t33 -11.5t29 -18.5t23 -19.5t21.5 -20.5z" />
    <glyph glyph-name="hcircumflex" unicode="&#x125;" 
d="M359 268q0 57 -44 57q-24 0 -37.5 -15.5t-13.5 -47.5v-110q0 -82 -26.5 -116.5t-80.5 -34.5q-56 0 -82 31.5t-26 111.5l-2 426q0 62 30 91t80 29q53 0 80 -22t27 -89v-145q74 45 180 45q71 0 102.5 -56.5t31.5 -184.5q0 -62 -3 -101.5t-9.5 -68t-20.5 -42.5t-32.5 -20
t-47.5 -6q-56 0 -80.5 20.5t-24.5 62.5zM304 903q50 -51 50 -83q0 -28 -22 -49t-49 -21q-25 0 -54 31q-6 6 -13.5 14t-11 12t-9 9.5t-8.5 8t-7 5t-7.5 3.5t-6.5 1q-6 0 -13.5 -5t-12.5 -10t-15.5 -17t-16.5 -18q-31 -32 -58 -32q-30 0 -51 20t-21 48q0 7 2 14.5t4 12.5t8 13
t8.5 11.5t10 11.5t8.5 10q70 81 146 81q31 0 60 -13t43 -25t36 -33z" />
    <glyph glyph-name="NameMe.612" unicode="&#x126;" horiz-adv-x="780" 
d="M492 512h-203v-106h203v106zM-10 562q0 30 17 44t43 14h16q12 33 40 49t66 16q49 0 76 -13.5t36 -52.5l216 -1q8 23 24 38.5t36.5 22t45.5 6.5q31 0 51.5 -4.5t37.5 -20t24 -43.5h6q23 0 37 -8t19 -20t5 -29q0 -22 -15 -35t-38 -13h-10v-362q0 -81 -29 -115.5t-88 -34.5
q-58 0 -85 31.5t-27 111.5l-1 113h-204v-106q0 -82 -28 -116t-89 -34q-58 0 -85 31.5t-27 111.5l-2 369h-4q-23 0 -36.5 4t-20.5 15t-7 31z" />
    <glyph glyph-name="NameMe.611" unicode="&#x127;" 
d="M-14 562q0 31 15 44t45 13h7q22 71 104 71q29 0 48 -4.5t34.5 -21t21.5 -45.5h68q23 0 37 -8.5t19 -20.5t5 -30q0 -9 -2.5 -16.5t-6.5 -13t-10 -10t-13.5 -6.5t-15.5 -2q-1 0 -5.5 0.5t-12 1.5t-16.5 2t-21 2.5t-23 2.5v-87q74 45 180 45q71 0 102.5 -56.5t31.5 -184.5
q0 -62 -3 -101.5t-9.5 -68t-20.5 -42.5t-32.5 -20t-47.5 -6q-56 0 -80.5 20.5t-24.5 62.5l-1 185q0 57 -44 57q-24 0 -37.5 -15.5t-13.5 -47.5v-110q0 -82 -26.5 -116.5t-80.5 -34.5q-56 0 -82 31.5t-26 111.5l-2 368q-7 -1 -11 -1q-50 0 -50 51z" />
    <glyph glyph-name="Itilde" unicode="&#x128;" horiz-adv-x="364" 
d="M300 150q0 -78 -29 -114t-88 -36q-39 0 -62.5 12.5t-37 44t-13.5 85.5v423q0 120 113 120q58 0 87.5 -22t29.5 -89v-424zM128 811q0 -26 -21.5 -44t-51.5 -18q-22 0 -37 6t-22.5 18t-10 25.5t-2.5 33.5q0 45 25.5 78.5t70.5 33.5q82 0 170 -61q0 25 22 43t52 18
q42 0 57 -20.5t15 -61.5q0 -28 -10.5 -53t-33 -42.5t-53.5 -17.5q-30 0 -58 9.5t-45 21t-35.5 21.5t-31.5 10z" />
    <glyph glyph-name="itilde" unicode="&#x129;" horiz-adv-x="283" 
d="M249 107q0 -60 -25 -83.5t-88 -23.5q-59 0 -80.5 27.5t-21.5 90.5v246q0 34 12 59.5t35 39.5t54 14q54 0 84 -23.5t30 -86.5v-260zM78 613q0 -25 -20 -42t-50 -17q-40 0 -54 20t-14 59q0 20 6 38.5t17 34t29 25t40 9.5q24 0 49 -6t44.5 -15t35.5 -17.5t25 -14.5l8 -6
q0 25 20.5 42t49.5 17q40 0 54 -20t14 -58q0 -27 -9.5 -51t-31 -40.5t-51.5 -16.5q-36 0 -68 14.5t-55 29.5t-39 15z" />
    <glyph glyph-name="Imacron" unicode="&#x12a;" horiz-adv-x="364" 
d="M300 150q0 -78 -29 -114t-88 -36q-39 0 -62.5 12.5t-37 44t-13.5 85.5v423q0 120 113 120q58 0 87.5 -22t29.5 -89v-424zM-17 839q0 44 27.5 64.5t69.5 20.5h208q55 0 77 -23t22 -64q0 -24 -12 -42t-32.5 -27t-46.5 -9h-202q-59 0 -85 17t-26 63z" />
    <glyph glyph-name="imacron" unicode="&#x12b;" horiz-adv-x="283" 
d="M249 107q0 -60 -25 -83.5t-88 -23.5q-59 0 -80.5 27.5t-21.5 90.5v246q0 34 12 59.5t35 39.5t54 14q54 0 84 -23.5t30 -86.5v-260zM-44 624q0 40 25 58.5t63 18.5h187q49 0 69 -21t20 -58q0 -33 -23 -51.5t-59 -18.5h-182q-53 0 -76.5 15t-23.5 57z" />
    <glyph glyph-name="Ibreve" unicode="&#x12c;" horiz-adv-x="364" 
d="M300 150q0 -78 -29 -114t-88 -36q-39 0 -62.5 12.5t-37 44t-13.5 85.5v423q0 120 113 120q58 0 87.5 -22t29.5 -89v-424zM180 882q38 0 38 52q0 53 79 53q91 0 91 -74q0 -161 -208 -161q-46 0 -81.5 8t-64.5 25.5t-44.5 50t-15.5 77.5q0 74 90 74q80 0 80 -53
q0 -27 8 -39.5t28 -12.5z" />
    <glyph glyph-name="ibreve" unicode="&#x12d;" horiz-adv-x="283" 
d="M249 107q0 -60 -25 -83.5t-88 -23.5q-59 0 -80.5 27.5t-21.5 90.5v246q0 34 12 59.5t35 39.5t54 14q54 0 84 -23.5t30 -86.5v-260zM141 660q33 0 33 48q0 47 72 47q81 0 81 -66q0 -145 -186 -145q-88 0 -137 32.5t-49 112.5q0 66 81 66q72 0 72 -47q0 -24 7 -36t26 -12z
" />
    <glyph glyph-name="Iogonek" unicode="&#x12e;" horiz-adv-x="364" 
d="M134 6q-32 11 -48 43t-16 93v423q0 120 113 120q58 0 87.5 -22t29.5 -89v-424q0 -71 -25 -108q-27 -68 -27 -110q0 -15 8.5 -26.5t20.5 -11.5q13 0 32 15.5t35 15.5q20 0 39.5 -21t19.5 -43q0 -19 -11 -37q-20 -35 -65 -52.5t-84 -17.5q-60 0 -104 36t-44 94t39 122z" />
    <glyph glyph-name="iogonek" unicode="&#x12f;" horiz-adv-x="305" 
d="M104 5q-33 9 -46 36t-13 77v246q0 51 27.5 82t73.5 31q54 0 84 -23.5t30 -86.5v-260q0 -11 -0.5 -20t-2.5 -17h2q-1 -3 -3 -6q-4 -19 -13 -32q-24 -63 -24 -100q0 -15 8.5 -26.5t20.5 -11.5q13 0 32 15.5t35 15.5q20 0 39.5 -21t19.5 -43q0 -19 -11 -37
q-20 -35 -65 -52.5t-84 -17.5q-60 0 -104 36t-44 94q0 57 38 121zM43 616q0 33 28.5 54.5t80.5 21.5q109 0 109 -76q0 -42 -27.5 -59t-81.5 -17q-47 0 -78 18t-31 58z" />
    <glyph glyph-name="Idotaccent" unicode="&#x130;" horiz-adv-x="342" 
d="M74 825q0 33 28.5 54.5t80.5 21.5q109 0 109 -76q0 -42 -27.5 -59t-81.5 -17q-47 0 -78 18t-31 58zM300 150q0 -78 -29 -114t-88 -36q-39 0 -62.5 12.5t-37 44t-13.5 85.5v423q0 120 113 120q58 0 87.5 -22t29.5 -89v-424z" />
    <glyph glyph-name="dotlessi" unicode="&#x131;" horiz-adv-x="283" 
d="M249 107q0 -60 -25 -83.5t-88 -23.5q-41 0 -63.5 13.5t-30.5 38t-8 66.5v246q0 51 27.5 82t73.5 31q54 0 84 -23.5t30 -86.5v-260z" />
    <glyph glyph-name="IJ" unicode="&#x132;" horiz-adv-x="960" 
d="M300 150q0 -78 -29 -114t-88 -36q-39 0 -62.5 12.5t-37 44t-13.5 85.5v423q0 120 113 120q58 0 87.5 -22t29.5 -89v-424zM568 199q0 -29 17 -46t38 -17q16 0 26 5.5t15.5 19.5t5.5 38v366q0 61 26.5 90.5t87.5 29.5q54 0 85 -25t31 -86v-371q0 -110 -66.5 -160
t-195.5 -50q-64 0 -114.5 15t-81.5 38t-52 53.5t-29 59.5t-8 58q0 67 22.5 91.5t88.5 24.5q53 0 81.5 -19t28.5 -52q0 -10 -3 -32t-3 -31z" />
    <glyph glyph-name="ij" unicode="&#x133;" horiz-adv-x="601" 
d="M43 616q0 33 28.5 54.5t80.5 21.5q109 0 109 -76q0 -42 -27.5 -59t-81.5 -17q-47 0 -78 18t-31 58zM260 107q0 -60 -25 -83.5t-88 -23.5q-59 0 -80.5 27.5t-21.5 90.5v246q0 51 27.5 82t73.5 31q54 0 84 -23.5t30 -86.5v-260zM549 372v-325q0 -112 -43 -181.5t-137 -69.5
q-106 0 -171.5 32t-65.5 68q0 27 20.5 38.5t71.5 11.5q28 0 44 2.5t32.5 12t24 31t7.5 56.5v309q0 62 30.5 91t80.5 29q46 0 76 -30.5t30 -74.5zM329 616q0 33 28.5 54.5t80.5 21.5q109 0 109 -76q0 -42 -27.5 -59t-81.5 -17q-47 0 -78 18t-31 58z" />
    <glyph glyph-name="Jcircumflex" unicode="&#x134;" horiz-adv-x="658" 
d="M266 199q0 -29 17 -46t38 -17q16 0 26 5.5t15.5 19.5t5.5 38v366q0 61 26.5 90.5t87.5 29.5q54 0 85 -25t31 -86v-371q0 -110 -66.5 -160t-195.5 -50q-64 0 -114.5 15t-81.5 38t-52 53.5t-29 59.5t-8 58q0 67 22.5 91.5t88.5 24.5q35 0 60 -9t37.5 -24.5t12.5 -37.5
q0 -10 -3 -32t-3 -31zM616 903q50 -51 50 -83q0 -28 -22 -49t-49 -21q-25 0 -54 31q-6 6 -13.5 14t-11 12t-9 9.5t-8.5 8t-7 5t-7.5 3.5t-6.5 1q-6 0 -13.5 -5t-12.5 -10t-15.5 -17t-16.5 -18q-31 -32 -58 -32q-30 0 -51 20t-21 48q0 7 2 14.5t4 12.5t8 13t8.5 11.5t10 11.5
t8.5 10q70 81 146 81q31 0 60 -13t43 -25t36 -33z" />
    <glyph glyph-name="jcircumflex" unicode="&#x135;" horiz-adv-x="340" 
d="M288 372v-325q0 -54 -9.5 -97.5t-30 -79t-56 -55t-84.5 -19.5q-106 0 -171.5 32t-65.5 68q0 27 20.5 38.5t71.5 11.5q27 0 43.5 2.5t33 12t24 31.5t7.5 56v309q0 61 30.5 90.5t80.5 29.5q46 0 76 -30.5t30 -74.5zM317 696q50 -51 50 -83q0 -28 -22 -48.5t-49 -20.5
q-25 0 -54 30q-6 6 -13.5 14t-11 12t-9 9.5t-8.5 8t-7 5t-7.5 3.5t-6.5 1q-5 0 -10.5 -2.5t-11 -8l-10.5 -10.5t-13 -14t-13 -15q-31 -31 -58 -31q-30 0 -51 19.5t-21 47.5q0 7 2 14.5t4 13t8 13t8.5 11t10 12t8.5 10.5q70 80 146 80q31 0 60 -13t43 -24.5t36 -33.5z" />
    <glyph glyph-name="Kcommaaccent" unicode="&#x136;" horiz-adv-x="721" 
d="M529 329q51 -6 93 -51.5t42 -116.5q0 -69 -10 -102.5t-34 -46t-73 -12.5q-59 0 -86.5 24t-27.5 75q0 44 -3.5 73.5t-9 47t-16.5 26.5t-21.5 11.5t-28.5 2.5h-53v-111q0 -80 -31 -114.5t-91 -34.5q-58 0 -85.5 32.5t-27.5 109.5v417q0 63 23.5 94.5t76.5 31.5
q24 0 41.5 -2t35 -9t28.5 -18.5t18 -31.5t7 -48q0 -31 -0.5 -69.5t-0.5 -54.5q0 -13 6.5 -22t20 -14.5t33.5 -5.5q43 0 57.5 34t14.5 139q0 52 28 77t90 25q35 0 57 -6.5t34.5 -21.5t17 -36t4.5 -55q0 -110 -38.5 -170.5t-90.5 -66.5zM238 -136q0 33 28 54.5t80 21.5
q54 0 88 -22.5t34 -73.5q0 -28 -8 -53.5t-21.5 -45t-31 -36.5t-36.5 -29t-38 -20.5t-36 -12.5t-30 -4q-18 0 -28.5 10t-10.5 27q0 21 15 28q45 22 65.5 37.5t37.5 42.5q-30 0 -53 6.5t-39 24.5t-16 45z" />
    <glyph glyph-name="kcommaaccent" unicode="&#x137;" horiz-adv-x="583" 
d="M302 142h-36q0 -52 -30 -97t-80 -45q-56 0 -82.5 31.5t-26.5 111.5v411q0 64 27.5 90.5t81.5 29.5q62 0 83 -41.5t21 -143.5q0 -79 -9 -139q7 -22 45 -22q24 0 32.5 10.5t8.5 42.5q0 47 24.5 68t83.5 21q32 0 52.5 -5t32 -18t16 -32t4.5 -49q0 -62 -37 -96t-83 -34
q29 0 55 -10.5t45.5 -37.5t19.5 -66q0 -76 -20.5 -99t-84.5 -23q-59 0 -83.5 21.5t-24.5 67.5q0 33 -7.5 43t-27.5 10zM168 -136q0 34 28 55t80 21q25 0 46 -4.5t38.5 -15t27.5 -30t10 -45.5q0 -28 -8 -53.5t-21.5 -45.5t-31 -37t-36.5 -29t-38 -20.5t-36 -12.5t-30 -4
q-18 0 -28.5 10.5t-10.5 26.5q0 21 15 29q45 22 65.5 37.5t37.5 41.5q-30 0 -53 7t-39 24.5t-16 44.5z" />
    <glyph glyph-name="kgreenlandic" unicode="&#x138;" horiz-adv-x="583" 
d="M302 235h-36q0 -164 -26 -204q-18 -29 -72 -30q-7 -1 -14 -1q-39 0 -60 10t-34 41.5t-13 91.5v411q0 64 28 92t81 28q62 0 83 -26t21 -91q0 -81 -9 -144q7 -22 45 -22q12 0 19.5 8t12.5 30t7 59t2 97q0 46 24.5 67.5t83.5 21.5q62 0 83.5 -22.5t21.5 -81.5
q0 -116 -37 -179t-83 -63q21 0 41.5 -11.5t38.5 -35t29 -65t11 -94.5q0 -76 -20.5 -99t-84.5 -23q-59 0 -83.5 21.5t-24.5 67.5q0 62 -4 94t-10.5 42t-20.5 10z" />
    <glyph glyph-name="Lacute" unicode="&#x139;" horiz-adv-x="608" 
d="M192 0q-46 1 -74 14.5t-42 44.5t-14 83v423q0 53 31 86.5t82 33.5q30 0 49 -4t35.5 -15t24.5 -34t8 -58v-401h171q58 0 81.5 -17t23.5 -70q0 -54 -27 -70t-88 -16h-261zM279 977q24 14 53 14q39 0 63 -34t24 -72q0 -56 -69 -82l-135 -45q-27 -9 -50 -9q-22 0 -39.5 9
t-26.5 24t-9 33q0 19 9.5 35t19 23.5t28.5 19.5q4 3 6 4z" />
    <glyph glyph-name="lacute" unicode="&#x13a;" horiz-adv-x="312" 
d="M266 151q0 -81 -27 -116t-83 -35t-82 31.5t-26 111.5l-2 422q0 62 30 91t80 29q55 0 82.5 -22t27.5 -89v-423zM232 977q24 14 53 14q39 0 63 -34t24 -72q0 -56 -69 -82l-135 -45q-27 -9 -50 -9q-22 0 -39.5 9t-26.5 24t-9 33q0 19 9.5 35t19 23.5t28.5 19.5q4 3 6 4z" />
    <glyph glyph-name="Lcommaaccent" unicode="&#x13b;" horiz-adv-x="608" 
d="M192 0q-46 1 -74 14.5t-42 44.5t-14 83v423q0 53 31 86.5t82 33.5q30 0 49 -4t35.5 -15t24.5 -34t8 -58v-401h171q58 0 81.5 -17t23.5 -70q0 -54 -27 -70t-88 -16h-261zM199 -136q0 34 28 55t80 21q25 0 46 -4.5t38.5 -15t27.5 -30t10 -46.5t-8 -52.5t-21.5 -45.5
t-31 -37t-36.5 -29t-38 -20.5t-36 -12.5t-30 -4q-18 0 -28.5 10.5t-10.5 26.5q0 21 15 28q45 22 66 38t38 42h-1q-30 0 -53 7t-39 24.5t-16 44.5z" />
    <glyph glyph-name="lcommaaccent" unicode="&#x13c;" horiz-adv-x="312" 
d="M266 151q0 -81 -27 -116t-83 -35t-82 31.5t-26 111.5l-2 422q0 62 30 91t80 29q55 0 82.5 -22t27.5 -89v-423zM46 -136q0 34 28 55t80 21q25 0 46 -4.5t38.5 -15t27.5 -30t10 -45.5q0 -25 -6 -47.5t-17 -41t-25 -34.5t-30 -28t-33 -22t-33.5 -16t-31 -9.5t-25.5 -3.5
q-18 0 -28.5 10.5t-10.5 26.5q0 22 15 29q45 22 65.5 37.5t37.5 41.5q-30 0 -53 7t-39 24.5t-16 44.5z" />
    <glyph glyph-name="Lcaron" unicode="&#x13d;" horiz-adv-x="608" 
d="M192 0q-46 1 -74 14.5t-42 44.5t-14 83v423q0 53 31 86.5t82 33.5q30 0 49 -4t35.5 -15t24.5 -34t8 -58v-401h171q58 0 81.5 -17t23.5 -70q0 -54 -27 -70t-88 -16h-261zM360 605q0 34 28 55t80 21q54 0 88 -22t34 -73q0 -90 -71 -146t-130 -56q-18 0 -28.5 10.5
t-10.5 26.5q0 22 15 29q45 22 66 37.5t37 41.5q-47 0 -77.5 18t-30.5 58z" />
    <glyph glyph-name="lcaron" unicode="&#x13e;" horiz-adv-x="584" 
d="M266 151q0 -81 -27 -116t-83 -35t-82 31.5t-26 111.5l-2 422q0 62 30 91t80 29q55 0 82.5 -22t27.5 -89v-423zM323 605q0 34 28 55t80 21q54 0 88 -22t34 -73q0 -90 -71 -146t-130 -56q-18 0 -28.5 10.5t-10.5 26.5q0 22 15 29q45 22 66 37.5t37 41.5q-47 0 -77.5 18
t-30.5 58z" />
    <glyph glyph-name="NameMe.615" unicode="&#x13f;" horiz-adv-x="608" 
d="M192 0q-46 1 -74 14.5t-42 44.5t-14 83v423q0 53 31 86.5t82 33.5q30 0 49 -4t35.5 -15t24.5 -34t8 -58v-401h171q58 0 81.5 -17t23.5 -70q0 -54 -27 -70t-88 -16h-261zM347 363q0 34 28.5 55t79.5 21q110 0 110 -76q0 -42 -28 -59t-82 -17q-30 0 -53 7t-39 24.5
t-16 44.5z" />
    <glyph glyph-name="NameMe.616" unicode="&#x140;" horiz-adv-x="598" 
d="M266 151q0 -81 -27 -116t-83 -35t-82 31.5t-26 111.5l-2 422q0 62 30 91t80 29q55 0 82.5 -22t27.5 -89v-423zM347 363q0 34 28.5 55t79.5 21q110 0 110 -76q0 -42 -28 -59t-82 -17q-30 0 -53 7t-39 24.5t-16 44.5z" />
    <glyph glyph-name="Lslash" unicode="&#x141;" horiz-adv-x="637" 
d="M233 0q-69 2 -99.5 33.5t-30.5 108.5v103q-31 -17 -54 -17q-27 0 -46.5 20.5t-19.5 48.5q0 21 9 36t23 25t42 25l46 25v157q0 53 31 86.5t82 33.5q30 0 49 -4t35.5 -15t24.5 -34t8 -58v-41l33 18q27 15 47 15q29 0 50.5 -25t21.5 -56q0 -35 -41 -57l-111 -60v-195h171
q58 0 81.5 -17t23.5 -70q0 -54 -27 -70t-88 -16h-261z" />
    <glyph glyph-name="lslash" unicode="&#x142;" horiz-adv-x="485" 
d="M363 151q0 -81 -27 -116t-83 -35t-82 31.5t-26 111.5v40q-15 -9 -29.5 -14t-27.5 -5q-26 0 -44.5 20.5t-18.5 48.5q0 25 13.5 42.5t45.5 42.5l60 48l-1 199q0 62 30 91t80 29q26 0 44 -4t34 -15t23.5 -34t7.5 -58v-34q27 20 59 20q25 0 45.5 -23.5t20.5 -51.5
q0 -30 -45 -66l-79 -63v-205z" />
    <glyph glyph-name="Nacute" unicode="&#x143;" horiz-adv-x="773" 
d="M706 95q0 -44 -26 -69.5t-76 -25.5q-12 0 -24 3t-22.5 7.5t-23.5 13t-22.5 15.5t-23.5 20t-23.5 21.5t-25.5 24t-26 24.5l-183 173v-217q0 -49 -18.5 -67t-58.5 -18q-44 0 -65 20t-21 67v483q0 57 29 86t83 29q15 0 27.5 -2t22.5 -5.5t20.5 -10.5t20 -14.5t22.5 -20.5
l253 -252v218q0 29 10.5 48.5t28 28.5t41.5 9q28 0 46 -8.5t26.5 -27.5t8.5 -49v-504zM456 977q24 14 53 14q39 0 63 -34t24 -72q0 -56 -69 -82l-135 -45q-27 -9 -50 -9q-22 0 -39.5 9t-26.5 24t-9 33q0 19 9.5 35t19 23.5t28.5 19.5q4 3 6 4z" />
    <glyph glyph-name="nacute" unicode="&#x144;" horiz-adv-x="616" 
d="M353 269q0 56 -44 56q-21 0 -34.5 -17.5t-15.5 -46.5v-154q0 -61 -25 -84t-88 -23q-59 0 -80.5 27.5t-21.5 90.5v246q0 51 27.5 82t73.5 31q80 0 103 -49q78 51 190 51q71 0 102.5 -56t31.5 -184q0 -63 -3 -102.5t-9.5 -68t-20.5 -42.5t-32.5 -20t-47.5 -6
q-56 0 -80.5 21t-24.5 62zM374 762q22 13 48 13q35 0 56.5 -31t21.5 -66q0 -50 -62 -74l-122 -41q-25 -8 -46 -8q-20 0 -35.5 8t-23.5 21.5t-8 30.5t8.5 31.5t17 21.5t25.5 18q3 2 5 4z" />
    <glyph glyph-name="Ncommaaccent" unicode="&#x145;" horiz-adv-x="773" 
d="M706 95q0 -44 -26 -69.5t-76 -25.5q-12 0 -24 3t-22.5 7.5t-23.5 13t-22.5 15.5t-23.5 20t-23.5 21.5t-25.5 24t-26 24.5l-183 173v-217q0 -49 -18.5 -67t-58.5 -18q-44 0 -65 20t-21 67v483q0 57 29 86t83 29q15 0 27.5 -2t22.5 -5.5t20.5 -10.5t20 -14.5t22.5 -20.5
l253 -252v218q0 29 10.5 48.5t28 28.5t41.5 9q28 0 46 -8.5t26.5 -27.5t8.5 -49v-504zM268 -136q0 33 28.5 54.5t79.5 21.5q54 0 88 -22.5t34 -73.5q0 -19 -4 -38t-11 -34.5t-16.5 -30t-21.5 -26t-24.5 -22t-26 -18.5t-27 -14t-26 -10t-24 -6t-20.5 -2q-17 0 -27.5 10
t-10.5 27q0 21 14 28q31 15 48.5 25.5t30.5 23.5t25 31h-1q-21 0 -40 4t-34.5 12.5t-24.5 23.5t-9 36z" />
    <glyph glyph-name="ncommaaccent" unicode="&#x146;" horiz-adv-x="616" 
d="M353 269q0 56 -44 56q-21 0 -34.5 -17.5t-15.5 -46.5v-154q0 -61 -25 -84t-88 -23q-59 0 -80.5 27.5t-21.5 90.5v246q0 51 27.5 82t73.5 31q80 0 103 -49q78 51 190 51q71 0 102.5 -56t31.5 -184q0 -63 -3 -102.5t-9.5 -68t-20.5 -42.5t-32.5 -20t-47.5 -6
q-56 0 -80.5 21t-24.5 62zM181 -136q0 34 28.5 55t80.5 21q25 0 45.5 -5t38.5 -15t28 -29.5t10 -46.5t-8 -53t-21.5 -45.5t-31 -36.5t-36.5 -29t-38.5 -20.5t-36 -12.5t-30.5 -4q-17 0 -27.5 10.5t-10.5 26.5q0 21 14 28q45 22 66 38t38 42q-47 0 -78 18t-31 58z" />
    <glyph glyph-name="Ncaron" unicode="&#x147;" horiz-adv-x="773" 
d="M706 95q0 -44 -26 -69.5t-76 -25.5q-12 0 -24 3t-22.5 7.5t-23.5 13t-22.5 15.5t-23.5 20t-23.5 21.5t-25.5 24t-26 24.5l-183 173v-217q0 -49 -18.5 -67t-58.5 -18q-44 0 -65 20t-21 67v483q0 57 29 86t83 29q15 0 27.5 -2t22.5 -5.5t20.5 -10.5t20 -14.5t22.5 -20.5
l253 -252v218q0 29 10.5 48.5t28 28.5t41.5 9q28 0 46 -8.5t26.5 -27.5t8.5 -49v-504zM552 830q-18 -18 -30 -28.5t-33.5 -25.5t-46 -22t-52.5 -7q-89 0 -170 94q-3 3 -9.5 10.5t-10 11.5t-9 11t-8.5 12.5t-6 12.5t-4.5 14t-1.5 15q0 21 11.5 39t31 28.5t42.5 10.5
q32 0 67 -37q7 -7 19.5 -21t18.5 -20t14.5 -11.5t15.5 -5.5q4 0 8 1t8.5 4.5t8 6t10 9l11 11t13.5 14t15 16.5q34 36 63 36q31 0 57.5 -24.5t26.5 -56.5q0 -38 -60 -98z" />
    <glyph glyph-name="ncaron" unicode="&#x148;" horiz-adv-x="616" 
d="M353 269q0 56 -44 56q-21 0 -34.5 -17.5t-15.5 -46.5v-154q0 -61 -25 -84t-88 -23q-59 0 -80.5 27.5t-21.5 90.5v246q0 51 27.5 82t73.5 31q80 0 103 -49q78 51 190 51q71 0 102.5 -56t31.5 -184q0 -63 -3 -102.5t-9.5 -68t-20.5 -42.5t-32.5 -20t-47.5 -6
q-56 0 -80.5 21t-24.5 62zM453 632q-13 -14 -21 -21t-23.5 -19t-29 -18.5t-33 -11.5t-39.5 -5q-80 0 -153 85q-2 2 -10 11t-10.5 12t-8.5 11.5t-8.5 14t-4.5 13.5t-2 15q0 19 10 35.5t27.5 26t38.5 9.5q29 0 61 -33q6 -7 17 -19.5t16.5 -18t13 -10t14.5 -4.5q4 0 7 1
t7.5 3.5t7.5 5t9 8.5l10 10t11.5 12.5t13.5 14.5q31 32 57 32q28 0 51.5 -21.5t23.5 -51.5q0 -34 -53 -87z" />
    <glyph glyph-name="napostrophe" unicode="&#x149;" horiz-adv-x="832" 
d="M569 269q0 56 -44 56q-21 0 -34.5 -17.5t-15.5 -46.5v-154q0 -61 -25 -84t-88 -23q-59 0 -80.5 27.5t-21.5 90.5v246q0 34 12.5 59.5t35.5 39.5t53 14q80 0 103 -49q78 51 190 51q71 0 102.5 -56t31.5 -184q0 -53 -1.5 -88t-7 -63t-13 -44t-21 -26.5t-30 -14t-40.5 -3.5
q-56 0 -80.5 21t-24.5 62zM35 595q0 34 28 55t80 21q54 0 88 -22t34 -73q0 -38 -15 -72t-38.5 -57t-51 -40t-52.5 -25t-44 -8q-18 0 -28.5 10.5t-10.5 26.5q0 22 15 29q45 22 66 37.5t37 41.5q-47 0 -77.5 18t-30.5 58z" />
    <glyph glyph-name="Eng" unicode="&#x14a;" horiz-adv-x="773" 
d="M706 47q0 -43 -6 -79t-19 -68.5t-33.5 -55t-51.5 -35.5t-70 -13q-106 0 -171.5 32t-65.5 68q0 27 20.5 38.5t71.5 11.5q23 0 37.5 1.5t29.5 8t23 18.5t13 33t5 51l-259 244v-217q0 -49 -18.5 -67t-58.5 -18q-44 0 -65 20t-21 67v483q0 57 29 86t83 29q37 0 59.5 -11.5
t53.5 -41.5l253 -252v218q0 43 21.5 64.5t58.5 21.5q43 0 62 -20t19 -65v-552z" />
    <glyph glyph-name="eng" unicode="&#x14b;" horiz-adv-x="616" 
d="M571 47q0 -54 -10 -98t-30.5 -79t-56 -54.5t-84.5 -19.5q-55 0 -101 9.5t-75 24.5t-45 32.5t-16 33.5q0 27 20.5 38.5t71.5 11.5q27 0 43.5 2.5t33 12t24 31.5t7.5 56v221q0 56 -44 56q-21 0 -35.5 -18t-14.5 -46v-154q0 -61 -25 -84t-88 -23q-59 0 -80.5 27.5
t-21.5 90.5v246q0 51 27.5 82t73.5 31q80 0 103 -49q78 51 190 51q71 0 102 -56t31 -184v-192z" />
    <glyph glyph-name="Omacron" unicode="&#x14c;" horiz-adv-x="805" 
d="M402 140q26 0 46.5 17.5t32.5 46t18.5 63t6.5 71.5q0 51 -11 96.5t-35.5 77.5t-57.5 32q-32 0 -56 -32t-36 -78t-12 -96t11.5 -94t36 -74t56.5 -30zM402 -6q-73 0 -137 23t-111.5 66t-74.5 109t-27 146q0 162 97.5 257.5t252.5 95.5t253 -95.5t98 -257.5
q0 -107 -47.5 -186t-126.5 -118.5t-177 -39.5zM199 839q0 18 5.5 32.5t14.5 24.5t21.5 16.5t26 9t29.5 2.5h208q55 0 77 -23t22 -64q0 -19 -7 -33.5t-19.5 -24.5t-29 -15t-35.5 -5h-202q-59 0 -85 17t-26 63z" />
    <glyph glyph-name="omacron" unicode="&#x14d;" horiz-adv-x="631" 
d="M369 237q0 52 -13 91.5t-38 39.5q-26 0 -40.5 -40t-14.5 -91t14 -89.5t40 -38.5q14 0 24 11t16 29.5t9 41t3 46.5zM317 -7q-78 0 -140.5 28t-100 84t-37.5 131q0 114 78 181t200 67t199 -67t77 -181q0 -113 -78.5 -178t-197.5 -65zM141 622q0 40 25 58.5t62 18.5h188
q49 0 69 -20.5t20 -57.5q0 -33 -23.5 -51.5t-58.5 -18.5h-182q-53 0 -76.5 15t-23.5 56z" />
    <glyph glyph-name="Obreve" unicode="&#x14e;" horiz-adv-x="805" 
d="M402 140q26 0 46.5 17.5t32.5 46t18.5 63t6.5 71.5q0 51 -11 96.5t-35.5 77.5t-57.5 32q-32 0 -56 -32t-36 -78t-12 -96t11.5 -94t36 -74t56.5 -30zM402 -6q-73 0 -137 23t-111.5 66t-74.5 109t-27 146q0 162 97.5 257.5t252.5 95.5t253 -95.5t98 -257.5
q0 -107 -47.5 -186t-126.5 -118.5t-177 -39.5zM400 882q38 0 38 52q0 53 79 53q91 0 91 -74q0 -161 -208 -161q-46 0 -81.5 8t-64.5 25.5t-44.5 50t-15.5 77.5q0 74 90 74q80 0 80 -53q0 -27 8 -39.5t28 -12.5z" />
    <glyph glyph-name="obreve" unicode="&#x14f;" horiz-adv-x="631" 
d="M369 237q0 52 -13 91.5t-38 39.5q-26 0 -40.5 -40t-14.5 -91t14 -89.5t40 -38.5q14 0 24 11t16 29.5t9 41t3 46.5zM317 -7q-78 0 -140.5 28t-100 84t-37.5 131q0 114 78 181t200 67t199 -67t77 -181q0 -113 -78.5 -178t-197.5 -65zM317 663q33 0 33 47q0 48 72 48
q81 0 81 -67q0 -145 -186 -145q-88 0 -137 33t-49 112q0 67 81 67q72 0 72 -48q0 -24 7 -35.5t26 -11.5z" />
    <glyph glyph-name="Ohungarumlaut" unicode="&#x150;" horiz-adv-x="805" 
d="M402 140q26 0 46.5 17.5t32.5 46t18.5 63t6.5 71.5q0 51 -11 96.5t-35.5 77.5t-57.5 32q-32 0 -56 -32t-36 -78t-12 -96t11.5 -94t36 -74t56.5 -30zM402 -6q-73 0 -137 23t-111.5 66t-74.5 109t-27 146q0 162 97.5 257.5t252.5 95.5t253 -95.5t98 -257.5
q0 -107 -47.5 -186t-126.5 -118.5t-177 -39.5zM334 970q28 0 57 -23.5t29 -55.5q0 -28 -28 -59l-84 -79q-2 -2 -8.5 -7.5t-9 -7.5t-9 -6t-11 -5.5t-11 -3t-12.5 -1.5q-21 0 -39 16t-18 37q0 5 1 9.5t2.5 9t4.5 10t5 9.5t5.5 10.5t4.5 10.5q27 52 45.5 81t38.5 43
q17 12 37 12zM598 970q28 0 57 -23.5t29 -55.5q0 -28 -28 -59l-84 -79q-2 -2 -8.5 -7.5t-9 -7.5t-9 -6t-11 -5.5t-11 -3t-12.5 -1.5q-21 0 -39 16t-18 37q0 5 1 9.5t2.5 9t4.5 10t5 9.5t5.5 10.5t4.5 10.5q27 52 45.5 81t38.5 43q17 12 37 12z" />
    <glyph glyph-name="ohungarumlaut" unicode="&#x151;" horiz-adv-x="631" 
d="M369 237q0 52 -13 91.5t-38 39.5q-26 0 -40.5 -40t-14.5 -91t14 -89.5t40 -38.5q14 0 24 11t16 29.5t9 41t3 46.5zM317 -7q-78 0 -140.5 28t-100 84t-37.5 131q0 114 78 181t200 67t199 -67t77 -181q0 -113 -78.5 -178t-197.5 -65zM247 763q28 0 57 -23.5t29 -54.5
q0 -29 -28 -59l-84 -80q-2 -2 -7 -6.5t-8 -6.5t-7.5 -5.5t-8.5 -5t-9 -3.5t-10.5 -3t-10.5 -1q-21 0 -39 16t-18 38q0 4 1 8.5t2.5 9t4.5 10t5 9.5t5.5 10.5t4.5 10.5q27 52 45.5 81t38.5 43q17 12 37 12zM511 763q28 0 57 -23.5t29 -54.5q0 -29 -28 -59l-84 -80
q-2 -1 -8.5 -7t-9 -8t-9 -6t-11 -5.5t-11 -3t-12.5 -1.5q-21 0 -39 16t-18 38q0 4 1 9.5t4 12.5t5.5 11.5t7 13t5.5 11.5q27 52 45.5 81t38.5 43q17 12 37 12z" />
    <glyph glyph-name="OE" unicode="&#x152;" horiz-adv-x="1322" 
d="M450 140q26 0 46.5 17.5t32.5 46t18.5 63t6.5 71.5q0 51 -11 96.5t-35.5 77.5t-57.5 32q-32 0 -56 -32t-36 -78t-12 -96t11.5 -94t36 -74t56.5 -30zM1095 406q53 0 74.5 -17t21.5 -58q0 -23 -11.5 -36.5t-34.5 -20t-59 -6.5h-162v-106l217 -1q56 0 80.5 -16.5t24.5 -58.5
q0 -48 -28.5 -67t-86.5 -19h-324q-47 0 -73.5 19t-35.5 64q-97 -89 -248 -89q-99 0 -177.5 39.5t-125.5 118.5t-47 186q0 162 97.5 257.5t252.5 95.5q74 0 137 -23t109 -66q17 83 111 83h324q58 0 86.5 -18t28.5 -65q0 -44 -24.5 -61.5t-80.5 -17.5h-218v-117h172z" />
    <glyph glyph-name="oe" unicode="&#x153;" horiz-adv-x="987" 
d="M365 237q0 33 -5 62t-17 49t-29 20q-26 0 -40.5 -40t-14.5 -91q0 -32 5.5 -60.5t18.5 -48t30 -19.5q26 0 39 38t13 90zM313 -7q-78 0 -140.5 28t-100 84t-37.5 131q0 114 78 181t200 67q125 0 201 -69q77 69 203 69q117 0 171.5 -41.5t54.5 -113.5q0 -45 -37.5 -78
t-110.5 -34l-141 -1q10 -32 36 -50.5t66 -18.5q43 0 88 11q19 5 41.5 16t32.5 11q17 0 26.5 -10t9.5 -25q0 -18 -16 -43.5t-44.5 -51t-75.5 -43.5t-101 -18q-61 0 -114 16.5t-91 48.5q-77 -66 -199 -66zM649 280q69 1 75 1q15 0 22 18q5 13 5 36q0 63 -38 63
q-14 0 -27.5 -15t-23.5 -42.5t-13 -60.5z" />
    <glyph glyph-name="Racute" unicode="&#x154;" horiz-adv-x="720" 
d="M444 486q0 48 -35 66t-118 18v-173q51 0 83.5 7.5t51 27.5t18.5 54zM291 150q0 -150 -117 -150q-39 0 -63 12.5t-37.5 44t-13.5 86.5v422q0 58 31.5 88.5t82.5 30.5h210q123 0 199 -57.5t76 -147.5q0 -68 -28.5 -106.5t-91.5 -56.5q31 -2 60 -21t49.5 -54.5t20.5 -79.5
q0 -66 -12.5 -101.5t-35.5 -47.5t-65 -12q-59 0 -86.5 24.5t-27.5 74.5q0 62 -12 95.5t-31 43.5t-53 10l-55 -1v-97zM408 977q24 14 53 14q39 0 63 -34t24 -72q0 -56 -69 -82l-135 -45q-27 -9 -50 -9q-22 0 -39.5 9t-26.5 24t-9 33q0 19 9.5 35t19 23.5t28.5 19.5q4 3 6 4z
" />
    <glyph glyph-name="racute" unicode="&#x155;" horiz-adv-x="472" 
d="M261 107q0 -60 -25 -83.5t-89 -23.5q-59 0 -80 27.5t-21 90.5v246q0 51 27.5 82t73.5 31q76 0 100 -44q58 44 112 44q105 0 105 -100q0 -26 -10.5 -46.5t-29 -32t-43.5 -11.5q-27 0 -48.5 18t-38.5 18q-22 0 -33 -15v-201zM282 762q22 13 48 13q35 0 56.5 -31t21.5 -66
q0 -50 -62 -74l-122 -41q-25 -8 -46 -8q-30 0 -48.5 17.5t-18.5 42.5q0 17 8.5 31.5t17 21.5t25.5 18q3 2 5 4z" />
    <glyph glyph-name="Rcommaaccent" unicode="&#x156;" horiz-adv-x="720" 
d="M444 486q0 48 -35 66t-118 18v-173q51 0 83.5 7.5t51 27.5t18.5 54zM291 150q0 -150 -117 -150q-39 0 -63 12.5t-37.5 44t-13.5 86.5v422q0 58 31.5 88.5t82.5 30.5h210q123 0 199 -57.5t76 -147.5q0 -68 -28.5 -106.5t-91.5 -56.5q31 -2 60 -21t49.5 -54.5t20.5 -79.5
q0 -66 -12.5 -101.5t-35.5 -47.5t-65 -12q-59 0 -86.5 24.5t-27.5 74.5q0 62 -12 95.5t-31 43.5t-53 10l-55 -1v-97zM242 -136q0 34 28.5 55t79.5 21q54 0 88 -22t34 -74q0 -27 -8 -52.5t-21 -45.5t-30.5 -37t-36.5 -29t-38.5 -20.5t-36.5 -12.5t-30 -4q-17 0 -28 10.5
t-11 26.5q0 21 15 28q45 22 66 38t38 42h-1q-46 0 -77 18t-31 58z" />
    <glyph glyph-name="rcommaaccent" unicode="&#x157;" horiz-adv-x="472" 
d="M261 107q0 -60 -25 -83.5t-89 -23.5q-59 0 -80 27.5t-21 90.5v246q0 51 27.5 82t73.5 31q76 0 100 -44q58 44 112 44q105 0 105 -100q0 -26 -10.5 -46.5t-29 -32t-43.5 -11.5q-27 0 -48.5 18t-38.5 18q-22 0 -33 -15v-201zM42 -136q0 34 28.5 55t79.5 21q54 0 88 -22
t34 -74q0 -24 -6 -46.5t-16.5 -41t-24.5 -34.5t-30.5 -28.5t-33.5 -22t-33 -16t-30.5 -9.5t-26.5 -3q-17 0 -27.5 10.5t-10.5 26.5q0 21 14 28q31 15 48 26t30.5 23.5t25.5 30.5h-1q-29 0 -52.5 7t-39.5 24.5t-16 44.5z" />
    <glyph glyph-name="Rcaron" unicode="&#x158;" horiz-adv-x="720" 
d="M444 486q0 48 -35 66t-118 18v-173q51 0 83.5 7.5t51 27.5t18.5 54zM291 150q0 -150 -117 -150q-39 0 -63 12.5t-37.5 44t-13.5 86.5v422q0 58 31.5 88.5t82.5 30.5h210q123 0 199 -57.5t76 -147.5q0 -68 -28.5 -106.5t-91.5 -56.5q31 -2 60 -21t49.5 -54.5t20.5 -79.5
q0 -66 -12.5 -101.5t-35.5 -47.5t-65 -12q-59 0 -86.5 24.5t-27.5 74.5q0 62 -12 95.5t-31 43.5t-53 10l-55 -1v-97zM503 833q-18 -18 -30 -28.5t-33.5 -25.5t-46 -22t-52.5 -7q-89 0 -170 94q-2 3 -10.5 12.5t-12 13.5t-10 13t-9 15t-5 15t-2.5 18q0 32 25 55t60 23
q32 0 67 -37q7 -7 19.5 -21t18.5 -20t14.5 -11.5t15.5 -5.5q4 0 8 1t8.5 4.5t8 6t10 9l11 11t13.5 14t15 16.5q34 36 63 36q31 0 57.5 -24.5t26.5 -56.5q0 -38 -60 -98z" />
    <glyph glyph-name="rcaron" unicode="&#x159;" horiz-adv-x="472" 
d="M261 107q0 -60 -25 -83.5t-89 -23.5q-59 0 -80 27.5t-21 90.5v246q0 51 27.5 82t73.5 31q76 0 100 -44q58 44 112 44q105 0 105 -100q0 -26 -10.5 -46.5t-29 -32t-43.5 -11.5q-27 0 -48.5 18t-38.5 18q-22 0 -33 -15v-201zM393 632q-17 -17 -27.5 -26t-30 -22.5
t-41.5 -20t-47 -6.5q-80 0 -153 85q-2 2 -10 11t-10.5 12t-8.5 11.5t-8.5 14t-4.5 13.5t-2 15q0 19 10 35.5t27.5 26t38.5 9.5q29 0 61 -33q6 -7 17 -19.5t16.5 -18t13 -10t14.5 -4.5q4 0 7 1t7.5 3.5t7.5 5t8.5 8.5t9.5 10t12 12.5t14 14.5q31 32 57 32q28 0 51.5 -21.5
t23.5 -51.5q0 -34 -53 -87z" />
    <glyph glyph-name="Sacute" unicode="&#x15a;" horiz-adv-x="694" 
d="M342 692q119 0 203 -49t84 -104q0 -21 -13 -33t-30 -12q-18 0 -54 18.5t-80 37t-81 18.5q-59 0 -59 -48q0 -15 9.5 -28.5t30.5 -28t41 -25.5t55 -29.5t59 -32.5q77 -44 108 -84t31 -92q0 -207 -279 -207q-55 0 -106.5 11t-90 29t-68 40t-44.5 45t-15 43q0 22 14.5 37.5
t42.5 15.5q21 0 101 -26.5t129 -26.5q45 0 45 31q0 13 -6.5 22t-25 21t-37.5 22t-60.5 32t-77.5 43q-37 21 -63.5 52t-38.5 61.5t-12 56.5q0 55 32 97t98 67.5t158 25.5zM388 977q24 14 52 14q40 0 63.5 -34t23.5 -72q0 -56 -69 -82l-134 -45q-28 -9 -50 -9q-34 0 -54.5 19
t-20.5 47q0 19 9.5 35t19 23.5t27.5 19.5q4 3 6 4z" />
    <glyph glyph-name="sacute" unicode="&#x15b;" horiz-adv-x="562" 
d="M281 484q93 0 155 -38t62 -83q0 -6 -3 -12t-8 -11t-12.5 -8.5t-15.5 -3.5q-15 0 -33 10.5t-34 22.5t-42 22t-55 10q-39 0 -39 -24q0 -13 14 -23t32 -15t45.5 -13.5t45.5 -17.5q75 -29 103 -62.5t28 -88.5q0 -27 -15 -53.5t-45 -50t-81.5 -38t-117.5 -14.5q-100 0 -162 37
t-62 82q0 19 12.5 30t35.5 11t70 -22.5t87 -22.5q55 0 55 27q0 14 -29 22.5t-76 20.5t-75 30q-44 19 -61.5 47.5t-17.5 69.5q0 46 30 82.5t84.5 56.5t124.5 20zM320 753q21 13 47 13q36 0 57.5 -31t21.5 -66q0 -50 -62 -74l-122 -41q-25 -8 -46 -8q-30 0 -49 17.5t-19 42.5
q0 17 8.5 31.5t17 21.5t26.5 18q3 2 5 4z" />
    <glyph glyph-name="Scircumflex" unicode="&#x15c;" horiz-adv-x="694" 
d="M342 692q119 0 203 -49t84 -104q0 -21 -13 -33t-30 -12q-18 0 -54 18.5t-80 37t-81 18.5q-59 0 -59 -48q0 -15 9.5 -28.5t30.5 -28t41 -25.5t55 -29.5t59 -32.5q77 -44 108 -84t31 -92q0 -207 -279 -207q-55 0 -106.5 11t-90 29t-68 40t-44.5 45t-15 43q0 22 14.5 37.5
t42.5 15.5q21 0 101 -26.5t129 -26.5q45 0 45 31q0 13 -6.5 22t-25 21t-37.5 22t-60.5 32t-77.5 43q-37 21 -63.5 52t-38.5 61.5t-12 56.5q0 55 32 97t98 67.5t158 25.5zM494 906q53 -54 53 -88q0 -29 -23.5 -50.5t-51.5 -21.5q-26 0 -57 32q-12 12 -27.5 31t-23 26t-15.5 7
q-9 0 -17.5 -8.5t-21.5 -26t-22 -26.5q-32 -33 -61 -33q-21 0 -38.5 9.5t-27.5 25.5t-10 35q0 7 1 13.5t4 12.5l5.5 11t7.5 11.5t8 10t9 10t9 9.5q73 85 153 85q25 0 47 -6.5t41.5 -20t30 -22.5t27.5 -26z" />
    <glyph glyph-name="scircumflex" unicode="&#x15d;" horiz-adv-x="562" 
d="M281 484q93 0 155 -38t62 -83q0 -6 -3 -12t-8 -11t-12.5 -8.5t-15.5 -3.5q-15 0 -33 10.5t-34 22.5t-42 22t-55 10q-39 0 -39 -24q0 -13 14 -23t32 -15t45.5 -13.5t45.5 -17.5q75 -29 103 -62.5t28 -88.5q0 -27 -15 -53.5t-45 -50t-81.5 -38t-117.5 -14.5q-100 0 -162 37
t-62 82q0 19 12.5 30t35.5 11t70 -22.5t87 -22.5q55 0 55 27q0 14 -29 22.5t-76 20.5t-75 30q-44 19 -61.5 47.5t-17.5 69.5q0 46 30 82.5t84.5 56.5t124.5 20zM418 697q51 -51 51 -84q0 -28 -22.5 -48.5t-48.5 -20.5q-25 0 -54 31q-6 6 -13.5 14t-11 12t-9 9t-8.5 7.5
t-7 5.5t-7.5 3.5t-6.5 0.5q-7 0 -14 -4.5t-12 -9.5t-15.5 -17t-16.5 -18q-31 -32 -58 -32q-20 0 -36.5 9t-26.5 24.5t-10 33.5q0 7 1.5 13t4 12t5.5 10.5t7.5 10.5t7.5 9.5t8.5 9.5t7.5 9q70 81 146 81q31 0 60 -13t43 -25t35 -33z" />
    <glyph glyph-name="Scedilla" unicode="&#x15e;" horiz-adv-x="694" 
d="M419 -36q41 -21 41 -74q0 -61 -41.5 -98.5t-98.5 -37.5q-17 0 -37.5 4t-42 11.5t-35.5 22t-14 33.5q0 23 16 44.5t33 21.5q7 0 21.5 -6t19.5 -6q9 0 16 8t7 19q0 9 -19.5 23.5t-19.5 25.5q0 3 2.5 11t6 16.5t8.5 18.5q-103 17 -171 66t-68 94q0 22 14.5 37.5t42.5 15.5
q21 0 101 -26.5t129 -26.5q45 0 45 31q0 13 -6.5 22t-25 21t-37.5 22t-60.5 32t-77.5 43q-37 21 -63.5 52t-38.5 61.5t-12 56.5q0 55 32 97t98 67.5t158 25.5q119 0 203 -49t84 -104q0 -21 -13 -33t-30 -12q-18 0 -54 18.5t-80 37t-81 18.5q-59 0 -59 -48q0 -15 9.5 -28.5
t30.5 -28t41 -25.5t55 -29.5t59 -32.5q77 -44 108 -84t31 -92q0 -190 -235 -205q-5 -13 -5 -18q0 -7 13 -13z" />
    <glyph glyph-name="scedilla" unicode="&#x15f;" horiz-adv-x="562" 
d="M365 -36q42 -21 42 -74q0 -61 -42 -98.5t-99 -37.5q-16 0 -36.5 4t-42 11.5t-36 22t-14.5 33.5q0 23 16.5 44.5t33.5 21.5q7 0 21 -6t19 -6q9 0 16 8t7 19q0 9 -19.5 23.5t-19.5 25.5q0 8 14 40q-83 7 -133.5 42t-50.5 75q0 19 12.5 30t35.5 11t70 -22.5t87 -22.5
q55 0 55 27q0 14 -29 22.5t-76 20.5t-75 30q-44 19 -61.5 47.5t-17.5 69.5q0 46 30 82.5t84.5 56.5t124.5 20q93 0 155 -38t62 -83q0 -6 -3 -12t-8 -11t-12.5 -8.5t-15.5 -3.5q-15 0 -33 10.5t-34 22.5t-42 22t-55 10q-39 0 -39 -24q0 -13 14 -23t32 -15t45.5 -13.5
t45.5 -17.5q75 -29 103 -62.5t28 -88.5q0 -46 -41.5 -88t-122.5 -59q-8 -19 -8 -25q0 -7 13 -13z" />
    <glyph glyph-name="Scaron" unicode="&#x160;" horiz-adv-x="694" 
d="M342 692q119 0 203 -49t84 -104q0 -21 -13 -33t-30 -12q-18 0 -54 18.5t-80 37t-81 18.5q-59 0 -59 -48q0 -15 9.5 -28.5t30.5 -28t41 -25.5t55 -29.5t59 -32.5q77 -44 108 -84t31 -92q0 -207 -279 -207q-55 0 -106.5 11t-90 29t-68 40t-44.5 45t-15 43q0 22 14.5 37.5
t42.5 15.5q21 0 101 -26.5t129 -26.5q45 0 45 31q0 13 -6.5 22t-25 21t-37.5 22t-60.5 32t-77.5 43q-37 21 -63.5 52t-38.5 61.5t-12 56.5q0 55 32 97t98 67.5t158 25.5zM515 830q-19 -18 -30.5 -28.5t-33 -25.5t-46 -22t-52.5 -7q-89 0 -171 94q-2 3 -10.5 12.5t-11.5 13.5
t-9.5 13t-9.5 15t-5 15t-2 18q0 32 24.5 55t59.5 23q32 0 68 -37q7 -7 19 -21t18 -20t14.5 -11.5t16.5 -5.5q4 0 7.5 1t8.5 4.5t8.5 6t9.5 9t10.5 11t13.5 14t15 16.5q35 36 64 36q31 0 57 -24.5t26 -56.5q0 -38 -59 -98z" />
    <glyph glyph-name="scaron" unicode="&#x161;" horiz-adv-x="562" 
d="M281 484q93 0 155 -38t62 -83q0 -6 -3 -12t-8 -11t-12.5 -8.5t-15.5 -3.5q-15 0 -33 10.5t-34 22.5t-42 22t-55 10q-39 0 -39 -24q0 -13 14 -23t32 -15t45.5 -13.5t45.5 -17.5q75 -29 103 -62.5t28 -88.5q0 -27 -15 -53.5t-45 -50t-81.5 -38t-117.5 -14.5q-100 0 -162 37
t-62 82q0 19 12.5 30t35.5 11t70 -22.5t87 -22.5q55 0 55 27q0 14 -29 22.5t-76 20.5t-75 30q-44 19 -61.5 47.5t-17.5 69.5q0 46 30 82.5t84.5 56.5t124.5 20zM426 632q-17 -17 -27.5 -26t-30 -22.5t-41.5 -20t-47 -6.5q-80 0 -154 85q-2 3 -8 9.5t-9 10.5t-8 10t-7.5 11
l-5.5 11t-4.5 12.5t-1.5 13.5q0 29 22.5 50t54.5 21q28 0 61 -34q6 -6 17 -18.5t16.5 -18t13 -10.5t14.5 -5q3 0 6 1t6 2.5t7 4.5t7 6l8 8l9 9t11 11.5t12 12.5q31 33 57 33q28 0 51.5 -22t23.5 -51q0 -34 -53 -88z" />
    <glyph glyph-name="Tcedilla" unicode="&#x162;" horiz-adv-x="737" 
d="M441 -36q41 -21 41 -74q0 -61 -41.5 -98.5t-98.5 -37.5q-17 0 -37.5 4t-42 11.5t-35.5 22t-14 33.5q0 23 16 44.5t33 21.5q7 0 21.5 -6t19.5 -6q6 0 11 3.5t8.5 9.5t3.5 14q0 9 -19.5 23.5t-19.5 25.5t23 59q-24 14 -35.5 45t-12.5 84l-2 369h-85q-63 0 -94.5 20
t-31.5 71q0 46 27 64t90 18h428q56 0 81 -20t25 -69q0 -33 -14.5 -51.5t-38.5 -25.5t-62 -7h-93v-362q0 -107 -51 -136q-13 -28 -13 -37q0 -7 13 -13z" />
    <glyph glyph-name="tcedilla" unicode="&#x163;" horiz-adv-x="501" 
d="M330 -36q42 -21 42 -74q0 -61 -42 -98.5t-99 -37.5q-16 0 -36.5 4t-42 11.5t-36 22t-14.5 33.5q0 23 16.5 44.5t33.5 21.5q7 0 21 -6t19 -6q9 0 16 8t7 19q0 9 -19.5 23.5t-19.5 25.5t22 56q-55 17 -78.5 65.5t-23.5 137.5v118q-36 2 -52 16.5t-16 41.5q0 57 69 62v93
q0 38 55 68.5t109 30.5q33 0 43 -19t10 -57l1 -115h27q55 0 75.5 -14.5t20.5 -52.5q0 -31 -24.5 -43t-80.5 -12h-18v-110q0 -32 6 -42.5t22 -10.5q12 0 20 8.5t12.5 19t12 19t17.5 8.5q23 0 35.5 -11t12.5 -27q0 -32 -12.5 -66.5t-42.5 -67t-71 -44.5q-10 -23 -10 -30
t13 -13z" />
    <glyph glyph-name="Tcaron" unicode="&#x164;" horiz-adv-x="737" 
d="M492 150q0 -84 -28.5 -117t-88.5 -33q-59 0 -85.5 31.5t-27.5 111.5l-2 369h-85q-63 0 -94.5 20t-31.5 71q0 46 27 64t90 18h428q56 0 81 -20t25 -69q0 -33 -14.5 -51.5t-38.5 -25.5t-62 -7h-93v-362zM545 830q-15 -15 -23.5 -22.5t-26 -21t-32 -20.5t-36.5 -13t-44 -6
q-89 0 -171 94q-2 3 -10.5 12.5t-11.5 13.5t-9.5 13t-9 15t-5 15t-2.5 18q0 32 24.5 55t59.5 23q32 0 68 -37q7 -7 19 -21t18 -20t14.5 -11.5t16.5 -5.5q4 0 8 1t8.5 4.5t8 6t10 9t10.5 11t13 14t15 16.5q35 36 64 36q31 0 57 -24.5t26 -56.5q0 -38 -59 -98z" />
    <glyph glyph-name="tcaron" unicode="&#x165;" horiz-adv-x="739" 
d="M96 214v118q-36 2 -52 16.5t-16 41.5q0 57 69 62v93q0 38 55 68.5t109 30.5q33 0 43 -19t10 -57l1 -115h27q55 0 75.5 -14.5t20.5 -52.5q0 -31 -24.5 -43t-80.5 -12h-18v-110q0 -32 6 -42.5t22 -10.5q12 0 20 8.5t12.5 19t12 19t17.5 8.5q23 0 35.5 -11t12.5 -27
q0 -27 -10.5 -58t-30.5 -60t-55.5 -48t-79.5 -19q-99 0 -140 50t-41 164zM485 595q0 34 28 55t80 21q54 0 88 -22t34 -73q0 -28 -8 -53.5t-21.5 -45.5t-31 -37t-36.5 -29t-38 -20.5t-36 -12.5t-30 -4q-18 0 -28.5 10.5t-10.5 26.5q0 22 15 29q45 22 66 37.5t37 41.5
q-47 0 -77.5 18t-30.5 58z" />
    <glyph glyph-name="Tbar" unicode="&#x166;" horiz-adv-x="737" 
d="M565 352q38 0 54 -12t16 -41q0 -20 -6.5 -30.5t-20.5 -14.5t-43 -4h-73v-100q0 -84 -28.5 -117t-88.5 -33q-59 0 -85.5 31.5t-27.5 111.5v107h-75q-67 0 -67 50q0 52 67 52h74l-1 160h-85q-63 0 -94.5 20t-31.5 71q0 46 27 64t90 18h428q56 0 81 -20t25 -69
q0 -33 -14.5 -51.5t-38.5 -25.5t-62 -7h-93v-160h73z" />
    <glyph glyph-name="tbar" unicode="&#x167;" horiz-adv-x="501" 
d="M371 352q33 0 47 -10t14 -33q0 -30 -12.5 -39.5t-48.5 -9.5h-56v-39q0 -16 1.5 -26.5t4.5 -16.5t8.5 -8t13.5 -2q12 0 20 8.5t12.5 19t12 19t17.5 8.5q23 0 35.5 -11t12.5 -27q0 -27 -10.5 -58t-30.5 -60t-55.5 -48t-79.5 -19q-99 0 -140 47.5t-41 156.5v56h-4
q-67 0 -67 39q0 53 67 53h4v26q-68 3 -68 47q0 47 69 51v69q0 38 55 68.5t109 30.5q33 0 43 -19t10 -57l1 -91h61q35 0 48.5 -12t13.5 -44q0 -17 -8 -26.5t-23 -13t-40 -3.5h-52v-26h56z" />
    <glyph glyph-name="Utilde" unicode="&#x168;" horiz-adv-x="737" 
d="M674 565v-298q0 -146 -70.5 -209.5t-237.5 -63.5q-159 0 -233.5 68t-74.5 205v298q0 53 31.5 86.5t79.5 33.5q59 0 89.5 -22t30.5 -89v-326q1 -47 20 -66t57 -19q47 0 62 21.5t15 63.5v327q0 34 8.5 57t26 34t36 15t44.5 4q58 0 87 -28t29 -92zM311 811q0 -17 -9.5 -31.5
t-26.5 -22.5t-37 -8q-22 0 -37 6t-22 18t-10 25.5t-3 33.5q0 45 25.5 78.5t71.5 33.5q81 0 170 -61q0 25 21.5 43t51.5 18q42 0 57 -20.5t15 -61.5q0 -44 -25.5 -78.5t-71.5 -34.5q-30 0 -58 9.5t-45 21t-35 21.5t-32 10z" />
    <glyph glyph-name="utilde" unicode="&#x169;" horiz-adv-x="625" 
d="M265 211q0 -57 44 -57q22 0 36 21t14 54v134q0 25 7 46t20 36t32 23t42 8q54 0 84 -23.5t30 -86.5v-260q0 -61 -25 -84t-88 -23q-76 0 -94 51q-76 -49 -188 -49q-71 0 -102 55.5t-31 182.5q0 63 3 102.5t9.5 68t20 42.5t32 20t48.5 6q56 0 80.5 -21t24.5 -63zM269 613
q0 -25 -20.5 -42t-49.5 -17q-28 0 -43.5 11t-20 27t-4.5 41q0 20 6 38.5t17 34t29 25t40 9.5q37 0 77.5 -15t62.5 -29l22 -15q0 25 20 42t50 17q27 0 42.5 -10.5t20.5 -26.5t5 -41q0 -27 -10 -51t-31.5 -40.5t-50.5 -16.5q-36 0 -68 14.5t-55.5 29.5t-38.5 15z" />
    <glyph glyph-name="Umacron" unicode="&#x16a;" horiz-adv-x="737" 
d="M674 565v-298q0 -146 -70.5 -209.5t-237.5 -63.5q-159 0 -233.5 68t-74.5 205v298q0 53 31.5 86.5t79.5 33.5q59 0 89.5 -22t30.5 -89v-326q1 -47 20 -66t57 -19q47 0 62 21.5t15 63.5v327q0 34 8.5 57t26 34t36 15t44.5 4q58 0 87 -28t29 -92zM171 839q0 44 27.5 64.5
t69.5 20.5h208q55 0 77 -23t22 -64q0 -19 -7 -33.5t-19.5 -24.5t-29 -15t-35.5 -5h-202q-59 0 -85 17t-26 63z" />
    <glyph glyph-name="umacron" unicode="&#x16b;" horiz-adv-x="625" 
d="M265 211q0 -57 44 -57q22 0 36 21t14 54v134q0 25 7 46t20 36t32 23t42 8q54 0 84 -23.5t30 -86.5v-260q0 -61 -25 -84t-88 -23q-76 0 -94 51q-76 -49 -188 -49q-71 0 -102 55.5t-31 182.5q0 63 3 102.5t9.5 68t20 42.5t32 20t48.5 6q56 0 80.5 -21t24.5 -63zM135 624
q0 40 24.5 58.5t62.5 18.5h187q34 0 54.5 -11t28 -27.5t7.5 -40.5q0 -33 -23.5 -51.5t-58.5 -18.5h-182q-36 0 -56.5 6t-32 22t-11.5 44z" />
    <glyph glyph-name="Ubreve" unicode="&#x16c;" horiz-adv-x="737" 
d="M674 565v-298q0 -146 -70.5 -209.5t-237.5 -63.5q-159 0 -233.5 68t-74.5 205v298q0 53 31.5 86.5t79.5 33.5q59 0 89.5 -22t30.5 -89v-326q1 -47 20 -66t57 -19q47 0 62 21.5t15 63.5v327q0 34 8.5 57t26 34t36 15t44.5 4q58 0 87 -28t29 -92zM374 880q38 0 38 52
q0 53 79 53q91 0 91 -74q0 -161 -208 -161q-36 0 -66 4.5t-56.5 16t-44.5 29.5t-28.5 46.5t-10.5 64.5q0 74 90 74q80 0 80 -53q0 -27 8 -39.5t28 -12.5z" />
    <glyph glyph-name="ubreve" unicode="&#x16d;" horiz-adv-x="625" 
d="M265 211q0 -57 44 -57q22 0 36 21t14 54v134q0 25 7 46t20 36t32 23t42 8q54 0 84 -23.5t30 -86.5v-260q0 -61 -25 -84t-88 -23q-76 0 -94 51q-76 -49 -188 -49q-71 0 -102 55.5t-31 182.5q0 63 3 102.5t9.5 68t20 42.5t32 20t48.5 6q56 0 80.5 -21t24.5 -63zM326 663
q34 0 34 47q0 48 72 48q81 0 81 -67q0 -145 -187 -145q-87 0 -136 33t-49 112q0 67 81 67q72 0 72 -48q0 -24 7 -35.5t25 -11.5z" />
    <glyph glyph-name="Uring" unicode="&#x16e;" horiz-adv-x="737" 
d="M674 565v-298q0 -146 -70.5 -209.5t-237.5 -63.5q-159 0 -233.5 68t-74.5 205v298q0 53 31.5 86.5t79.5 33.5q59 0 89.5 -22t30.5 -89v-326q1 -47 20 -66t57 -19q47 0 62 21.5t15 63.5v327q0 34 8.5 57t26 34t36 15t44.5 4q58 0 87 -28t29 -92zM393 879q0 21 -8 37
t-22 16q-15 0 -24 -16t-9 -36.5t8.5 -36t24.5 -15.5q10 0 17 7.5t10 19t3 24.5zM362 742q-46 0 -82.5 15.5t-59 47t-22.5 73.5q0 64 46 101.5t118 37.5t117.5 -37.5t45.5 -101.5q0 -63 -46 -99.5t-117 -36.5z" />
    <glyph glyph-name="uring" unicode="&#x16f;" horiz-adv-x="625" 
d="M265 211q0 -57 44 -57q22 0 36 21t14 54v134q0 25 7 46t20 36t32 23t42 8q54 0 84 -23.5t30 -86.5v-260q0 -61 -25 -84t-88 -23q-76 0 -94 51q-76 -49 -188 -49q-71 0 -102 55.5t-31 182.5q0 63 3 102.5t9.5 68t20 42.5t32 20t48.5 6q56 0 80.5 -21t24.5 -63zM351 696
q0 21 -7.5 37t-22.5 16q-10 0 -17.5 -8.5t-11.5 -20t-4 -24.5q0 -20 8.5 -35.5t24 -15.5t23 15t7.5 36zM320.5 559q-70.5 0 -117.5 36.5t-47 99.5q0 64 46 101.5t118 37.5t117.5 -37.5t45.5 -101.5q0 -63 -46 -99.5t-116.5 -36.5z" />
    <glyph glyph-name="Uhungarumlaut" unicode="&#x170;" horiz-adv-x="737" 
d="M674 565v-298q0 -146 -70.5 -209.5t-237.5 -63.5q-159 0 -233.5 68t-74.5 205v298q0 53 31.5 86.5t79.5 33.5q59 0 89.5 -22t30.5 -89v-326q1 -47 20 -66t57 -19q47 0 62 21.5t15 63.5v327q0 34 8.5 57t26 34t36 15t44.5 4q58 0 87 -28t29 -92zM295 970q28 0 57.5 -23.5
t29.5 -55.5q0 -28 -29 -59l-84 -79q-1 -2 -8 -7.5t-9.5 -7.5t-9 -6t-10.5 -5.5t-10.5 -3t-13.5 -1.5q-21 0 -39 16t-18 37q0 5 1 9.5t2.5 9t4.5 10t5 9.5t5.5 10.5t5.5 10.5q26 52 44.5 81t38.5 43q18 12 37 12zM559 970q28 0 57.5 -23.5t29.5 -55.5q0 -28 -29 -59l-84 -79
q-2 -2 -7 -6.5t-7.5 -6.5t-7.5 -5.5t-9 -5t-9 -4t-10 -3t-11 -0.5q-21 0 -39 16t-18 37q0 5 1 9.5t2.5 9t4.5 10t5 9.5t5.5 10.5t5.5 10.5q26 52 44.5 81t38.5 43q18 12 37 12z" />
    <glyph glyph-name="uhungarumlaut" unicode="&#x171;" horiz-adv-x="625" 
d="M265 211q0 -57 44 -57q22 0 36 21t14 54v134q0 25 7 46t20 36t32 23t42 8q54 0 84 -23.5t30 -86.5v-260q0 -61 -25 -84t-88 -23q-76 0 -94 51q-76 -49 -188 -49q-71 0 -102 55.5t-31 182.5q0 63 3 102.5t9.5 68t20 42.5t32 20t48.5 6q56 0 80.5 -21t24.5 -63zM225 763
q28 0 57 -23.5t29 -54.5q0 -29 -28 -59l-84 -80q-2 -2 -7.5 -6.5t-8 -6.5t-7 -5.5t-8.5 -5t-9 -3.5t-10.5 -3t-10.5 -1q-22 0 -39.5 16t-17.5 38q0 4 1 9.5t4 12.5t5.5 11.5t7 13t5.5 11.5q27 52 45.5 81t38.5 43q17 12 37 12zM489 763q28 0 57 -23.5t29 -54.5
q0 -29 -28 -59l-84 -80q-2 -1 -8.5 -7t-9 -8t-9 -6t-11 -5.5t-11 -3t-12.5 -1.5q-22 0 -39.5 16t-17.5 38q0 4 1 9.5t4 12.5t5.5 11.5t7 13t5.5 11.5q27 52 45.5 81t38.5 43q17 12 37 12z" />
    <glyph glyph-name="Uogonek" unicode="&#x172;" horiz-adv-x="737" 
d="M674 565v-298q0 -71 -16 -121.5t-50 -83.5q-3 -7 -6.5 -15t-6 -15.5l-5 -15l-5 -15t-4 -15t-3 -14t-3 -12.5t-2 -11t-1 -9.5t-0.5 -7.5q0 -15 8.5 -26.5t20.5 -11.5q13 0 32 15.5t35 15.5q20 0 39.5 -21t19.5 -43q0 -19 -11 -37q-20 -35 -65 -52.5t-84 -17.5
q-60 0 -104 36t-44 94q0 27 9 56.5t26 58.5q-39 -5 -88 -5q-159 0 -233.5 68t-74.5 205v298q0 53 31.5 86.5t79.5 33.5q59 0 89.5 -22t30.5 -89v-326q1 -47 20 -66t57 -19q47 0 62 21.5t15 63.5v327q0 34 8.5 57t26 34t36 15t44.5 4q58 0 87 -28t29 -92z" />
    <glyph glyph-name="uogonek" unicode="&#x173;" horiz-adv-x="673" 
d="M265 211q0 -57 44 -57q22 0 36 21t14 54v134q0 25 7 46t20 36t32 23t42 8q54 0 84 -23.5t30 -86.5v-260q0 -60 -25 -84q-20 -57 -20 -90q0 -15 8.5 -26.5t20.5 -11.5q13 0 32 15.5t35 15.5q20 0 39.5 -21t19.5 -43q0 -19 -11 -37q-20 -35 -65 -52.5t-84 -17.5
q-60 0 -104 36t-44 94q0 57 38 121q-35 10 -47 45q-76 -49 -188 -49q-71 0 -102 55.5t-31 182.5q0 63 3 102.5t9.5 68t20 42.5t32 20t48.5 6q56 0 80.5 -21t24.5 -63z" />
    <glyph glyph-name="Wcircumflex" unicode="&#x174;" horiz-adv-x="1020" 
d="M663 157q39 0 54 42.5t15 138.5l2 245q0 53 24.5 77.5t84.5 24.5q50 0 75.5 -24t38 -91t12.5 -198q0 -82 -19 -148t-49.5 -107.5t-70 -69.5t-77.5 -39.5t-76 -11.5q-90 0 -163 57q-72 -59 -163 -59q-39 0 -78 11.5t-79.5 39.5t-71.5 69.5t-50.5 108t-19.5 147.5
q0 131 12.5 198t38 91t74.5 24q60 0 84.5 -24.5t24.5 -77.5l1 -244q0 -47 3 -78.5t11 -56t22.5 -36t37 -11.5t33.5 18.5t15 59.5q-13 58 -13 181q0 69 3 110t9 71t20 43t31.5 18.5t48.5 5.5q18 0 31.5 -1t25.5 -6t20 -9t15 -15t11 -19t7.5 -26t5 -31.5t2 -40t1 -46
t0.5 -55.5q0 -126 -13 -186q4 -36 15 -53t34 -17zM651 906q53 -54 53 -88q0 -19 -11 -36t-28.5 -26.5t-35.5 -9.5q-26 0 -57 32q-12 12 -27.5 31t-23 26t-15.5 7q-9 0 -17.5 -8.5t-21.5 -26t-22 -26.5q-32 -33 -61 -33q-16 0 -30 5.5t-24 15t-16 22.5t-6 27q0 7 1 13.5
t4 12.5l5.5 11t7.5 11.5t8 10t9 10t9 9.5q73 85 153 85q25 0 47 -6.5t41.5 -20t30 -22.5t27.5 -26z" />
    <glyph glyph-name="wcircumflex" unicode="&#x175;" horiz-adv-x="890" 
d="M590 150q26 0 32.5 12.5t6.5 46.5l1 179q0 46 26 67.5t88 21.5q19 0 32.5 -3t25.5 -9t19.5 -18.5t13 -29t8.5 -42t4.5 -56t1.5 -73.5q0 -53 -16.5 -96.5t-42 -70.5t-59.5 -45.5t-68 -26t-68 -7.5q-81 0 -149 51q-67 -51 -148 -51q-28 0 -56 5.5t-57.5 17t-54.5 31.5
t-44.5 46t-31 64t-11.5 82q0 50 2 84t6.5 61t11.5 42.5t19.5 26t27.5 14t38 3.5q42 0 67 -10t35.5 -29t10.5 -50l1 -178q0 -15 0.5 -21.5t2.5 -16t6 -13t11 -6.5t18 -3q40 0 47 23q-9 60 -9 129q0 58 4 90.5t17.5 52.5t33.5 26t57 6q44 0 65 -13t29.5 -49t8.5 -113
q0 -70 -8 -130q7 -22 45 -22zM583 696q51 -51 51 -83q0 -28 -22.5 -48.5t-48.5 -20.5q-25 0 -54 30q-6 6 -13.5 14t-11 12t-9 9.5t-8.5 8t-7 5t-7.5 3.5t-6.5 1q-5 0 -10.5 -2.5t-11 -8l-10.5 -10.5t-13 -14t-13 -15q-31 -31 -58 -31q-30 0 -51.5 19.5t-21.5 47.5
q0 5 1.5 11t3 10.5t4.5 9.5t5.5 9t6.5 9t7 8t7.5 8.5t6.5 8.5q70 80 146 80q31 0 60 -13t43 -24.5t35 -33.5z" />
    <glyph glyph-name="Ycircumflex" unicode="&#x176;" horiz-adv-x="711" 
d="M470 150q0 -55 -14 -88.5t-39 -47.5t-65 -14q-58 0 -85 31.5t-28 111.5l-1 162l-154 180q-42 48 -42 83q0 55 42 87q40 30 71 30q43 0 77 -39l122 -142l102 119q51 61 109 61q43 0 67 -24q41 -41 41 -79q0 -21 -14 -44.5t-45 -60.5l-144 -176v-150zM502 906
q53 -54 53 -88q0 -29 -23.5 -50.5t-51.5 -21.5q-26 0 -57 32q-12 12 -27.5 31t-23 26t-15.5 7q-9 0 -17.5 -8.5t-21.5 -26t-22 -26.5q-32 -33 -61 -33q-21 0 -38.5 9.5t-27.5 25.5t-10 35q0 7 1 13.5t4 12.5l5.5 11t7.5 11.5t8 10t9 10t9 9.5q73 85 153 85q25 0 47 -6.5
t41.5 -20t30 -22.5t27.5 -26z" />
    <glyph glyph-name="ycircumflex" unicode="&#x177;" horiz-adv-x="607" 
d="M564 282q0 -171 -10 -239q-8 -61 -25 -105.5t-48 -79t-79 -51.5t-114 -17q-53 0 -98.5 15.5t-72 38t-41.5 44.5t-15 38t10.5 29.5t28.5 13.5q16 0 39.5 -13t51.5 -26t54 -13q54 0 76.5 27t22.5 77q-61 -25 -119 -25q-44 0 -79.5 19t-57 50.5t-32.5 69.5t-11 80
q0 112 8.5 166t29 75t63.5 21q63 0 88.5 -21.5t25.5 -67.5l1 -161v-23.5t1.5 -18.5t4 -16t7 -10.5t12 -7.5t18.5 -2q30 0 37.5 16.5t7.5 60.5l1 162q0 46 25.5 67.5t88.5 21.5q26 0 44.5 -8.5t29.5 -22t16.5 -40t7.5 -53.5t2 -71zM446 696q51 -51 51 -83q0 -11 -4 -22
t-11 -19.5t-16 -14.5t-19.5 -9.5t-20.5 -3.5q-25 0 -54 30q-6 6 -13.5 14t-11 12t-9 9.5t-8.5 8t-7 5t-7.5 3.5t-6.5 1q-5 0 -10.5 -2.5t-11 -8l-10.5 -10.5t-13 -14t-13 -15q-31 -31 -58 -31q-30 0 -51.5 19.5t-21.5 47.5q0 7 2.5 14.5t4.5 13t7.5 13t8.5 11t10.5 12
t8.5 10.5q70 80 146 80q31 0 60 -13t43 -24.5t35 -33.5z" />
    <glyph glyph-name="Ydieresis" unicode="&#x178;" horiz-adv-x="711" 
d="M470 150q0 -55 -14 -88.5t-39 -47.5t-65 -14q-58 0 -85 31.5t-28 111.5l-1 162l-154 180q-42 48 -42 83q0 55 42 87q40 30 71 30q43 0 77 -39l122 -142l102 119q51 61 109 61q43 0 67 -24q41 -41 41 -79q0 -21 -14 -44.5t-45 -60.5l-144 -176v-150zM376 823q0 32 27 52.5
t77 20.5q105 0 105 -73q0 -41 -27 -57t-78 -16q-45 0 -74.5 17.5t-29.5 55.5zM135 823q0 32 27 52.5t77 20.5q105 0 105 -73q0 -41 -26.5 -57t-78.5 -16q-45 0 -74.5 17.5t-29.5 55.5z" />
    <glyph glyph-name="Zacute" unicode="&#x179;" horiz-adv-x="757" 
d="M599 162q58 0 80 -18.5t22 -60.5q0 -51 -32 -67t-111 -16h-375q-44 0 -83.5 37.5t-39.5 87.5q0 24 3.5 42.5t8 31t17 30t21.5 27.5t32 34l255 232h-203q-67 0 -97 19.5t-30 65.5q0 30 12.5 47.5t33 24t51.5 6.5h409q30 0 53 -10.5t35 -27t18 -32.5t6 -30q0 -16 -1.5 -29
t-3 -23t-6 -20t-7.5 -15.5t-11.5 -15.5t-13 -14.5t-16.5 -17t-19 -19.5l-292 -269h284zM434 977q24 14 53 14q39 0 63 -34t24 -72q0 -56 -69 -82l-135 -45q-27 -9 -50 -9q-22 0 -39.5 9t-26.5 24t-9 33q0 19 9.5 35t19 23.5t28.5 19.5q4 3 6 4z" />
    <glyph glyph-name="zacute" unicode="&#x17a;" horiz-adv-x="557" 
d="M452 126q42 0 57.5 -17t15.5 -55q0 -33 -22.5 -43.5t-79.5 -10.5h-295q-34 0 -62.5 23.5t-28.5 61.5q0 42 11 65.5t50 62.5l131 138h-73q-54 0 -78 15t-24 49q0 37 17 49.5t71 12.5h304q37 0 58.5 -20.5t21.5 -56.5q0 -34 -9 -52t-47 -61l-151 -162zM324 762q22 13 48 13
q35 0 56.5 -31t21.5 -66q0 -50 -62 -74l-122 -41q-25 -8 -46 -8q-20 0 -35.5 8t-23.5 21.5t-8 30.5t8.5 31.5t17 21.5t25.5 18q3 2 5 4z" />
    <glyph glyph-name="Zdotaccent" unicode="&#x17b;" horiz-adv-x="757" 
d="M599 162q58 0 80 -18.5t22 -60.5q0 -51 -32 -67t-111 -16h-375q-44 0 -83.5 37.5t-39.5 87.5q0 24 3.5 42.5t8 31t17 30t21.5 27.5t32 34l255 232h-203q-67 0 -97 19.5t-30 65.5q0 30 12.5 47.5t33 24t51.5 6.5h409q30 0 53 -10.5t35 -27t18 -32.5t6 -30q0 -16 -1.5 -29
t-3 -23t-6 -20t-7.5 -15.5t-11.5 -15.5t-13 -14.5t-16.5 -17t-19 -19.5l-292 -269h284zM281 827q0 33 28.5 54.5t80.5 21.5q109 0 109 -76q0 -43 -28 -59.5t-81 -16.5q-47 0 -78 18t-31 58z" />
    <glyph glyph-name="zdotaccent" unicode="&#x17c;" horiz-adv-x="557" 
d="M452 126q42 0 57.5 -17t15.5 -55q0 -33 -22.5 -43.5t-79.5 -10.5h-295q-34 0 -62.5 23.5t-28.5 61.5q0 42 11 65.5t50 62.5l131 138h-73q-54 0 -78 15t-24 49q0 37 17 49.5t71 12.5h304q37 0 58.5 -20.5t21.5 -56.5q0 -34 -9 -52t-47 -61l-151 -162zM185 620
q0 33 28.5 54.5t80.5 21.5q109 0 109 -76q0 -43 -28 -59.5t-81 -16.5q-47 0 -78 18t-31 58z" />
    <glyph glyph-name="Zcaron" unicode="&#x17d;" horiz-adv-x="757" 
d="M599 162q58 0 80 -18.5t22 -60.5q0 -51 -32 -67t-111 -16h-375q-44 0 -83.5 37.5t-39.5 87.5q0 24 3.5 42.5t8 31t17 30t21.5 27.5t32 34l255 232h-203q-67 0 -97 19.5t-30 65.5q0 30 12.5 47.5t33 24t51.5 6.5h409q30 0 53 -10.5t35 -27t18 -32.5t6 -30q0 -16 -1.5 -29
t-3 -23t-6 -20t-7.5 -15.5t-11.5 -15.5t-13 -14.5t-16.5 -17t-19 -19.5l-292 -269h284zM536 830q-18 -18 -30 -28.5t-33.5 -25.5t-46 -22t-52.5 -7q-89 0 -170 94q-2 3 -10.5 12.5t-12 13.5t-10 13t-9 15t-5 15t-2.5 18q0 21 11.5 39t31 28.5t42.5 10.5q32 0 67 -37
q7 -7 19.5 -21t18.5 -20t14.5 -11.5t15.5 -5.5q4 0 7.5 1t6.5 3l7.5 5t8 6.5l9 9l10 10t12 12.5t13.5 15q34 36 63 36q31 0 57.5 -24.5t26.5 -56.5q0 -38 -60 -98z" />
    <glyph glyph-name="zcaron" unicode="&#x17e;" horiz-adv-x="557" 
d="M452 126q42 0 57.5 -17t15.5 -55q0 -33 -22.5 -43.5t-79.5 -10.5h-295q-34 0 -62.5 23.5t-28.5 61.5q0 42 11 65.5t50 62.5l131 138h-73q-54 0 -78 15t-24 49q0 37 17 49.5t71 12.5h304q37 0 58.5 -20.5t21.5 -56.5q0 -34 -9 -52t-47 -61l-151 -162zM439 632
q-17 -17 -27.5 -26t-30 -22.5t-41.5 -20t-47 -6.5q-80 0 -153 85q-2 2 -10 11t-10.5 12t-8.5 11.5t-8.5 14t-4.5 13.5t-2 15q0 29 22.5 50t53.5 21q29 0 61 -33q6 -7 17 -19.5t16.5 -18t13 -10t14.5 -4.5q3 0 6.5 1t6 2t6.5 4.5t7 6t8 8t9 9.5l11 11t12 13q31 32 57 32
q28 0 51.5 -21.5t23.5 -51.5q0 -34 -53 -87z" />
    <glyph glyph-name="Schwa" unicode="&#x18f;" horiz-adv-x="595" 
d="M277 484q122 0 201.5 -63t79.5 -172q0 -118 -78.5 -186.5t-202.5 -68.5q-117 0 -171.5 41.5t-54.5 113.5q0 45 37.5 78t110.5 34l141 1q-10 32 -36 50.5t-66 18.5q-43 0 -89 -11q-18 -5 -40.5 -16t-32.5 -11q-17 0 -26.5 10t-9.5 24q0 18 16 44t44.5 51.5t75.5 43.5
t101 18zM345 198q-69 -1 -75 -1q-15 0 -22 -18q-5 -14 -5 -36q0 -63 38 -63q21 0 40.5 34t23.5 84z" />
    <glyph glyph-name="uni0192" unicode="&#x192;" horiz-adv-x="498" 
d="M139 150v158h-47q-67 0 -67 59q0 30 14 46.5t53 16.5h47v30q2 121 39.5 172.5t139.5 51.5q83 0 129.5 -34t46.5 -69q0 -15 -12.5 -26.5t-35.5 -11.5q-49 0 -69 -17q-21 -17 -21 -71v-25h46q38 0 54 -13.5t16 -47.5q0 -36 -15.5 -48.5t-54.5 -12.5h-46v-170
q-3 -122 -40 -173.5t-139 -51.5q-84 0 -129.5 33.5t-45.5 69.5q0 15 12.5 26t35.5 11q49 0 69 17q20 18 20 80z" />
    <glyph glyph-name="Ohorn" unicode="&#x1a0;" horiz-adv-x="989" 
d="M402 140q26 0 46.5 17.5t32.5 46t18.5 63t6.5 71.5q0 51 -11 96.5t-35.5 77.5t-57.5 32q-32 0 -56 -32t-36 -78t-12 -96t11.5 -94t36 -74t56.5 -30zM720 694q0 34 22 52t63 18q42 0 68.5 -22t26.5 -74q0 -40 -16.5 -75t-42.5 -59t-54 -39.5t-55 -22.5q21 -62 21 -134
q0 -107 -47.5 -186t-126.5 -118.5t-177 -39.5q-73 0 -137 23t-111.5 66t-74.5 109t-27 146q0 162 97.5 257.5t252.5 95.5q60 0 113.5 -15.5t97 -45.5t74.5 -72q14 21 18 34q15 49 15 102z" />
    <glyph glyph-name="ohorn" unicode="&#x1a1;" horiz-adv-x="803" 
d="M369 237q0 52 -13 91.5t-38 39.5q-26 0 -40.5 -40t-14.5 -91t14 -89.5t40 -38.5q14 0 24 11t16 29.5t9 41t3 46.5zM566 565q0 23 9.5 38.5t29 23.5t46.5 8q42 0 68.5 -22t26.5 -74q0 -41 -17.5 -77t-45 -60t-56 -39.5t-55.5 -21.5q21 -47 21 -105q0 -113 -78.5 -178
t-197.5 -65q-78 0 -140.5 28t-100 84t-37.5 131q0 114 78 181t200 67q128 0 205 -73q25 39 29 52q15 49 15 102z" />
    <glyph glyph-name="Uhorn" unicode="&#x1af;" horiz-adv-x="935" 
d="M709 694q0 34 22 52t63 18q42 0 68.5 -22t26.5 -74q0 -27 -8 -52.5t-21.5 -45.5t-31 -37t-36.5 -29t-38 -20.5t-36 -12.5t-30 -4q-8 0 -14 2v-202q0 -146 -70.5 -209.5t-237.5 -63.5q-159 0 -233.5 68t-74.5 205v298q0 53 31.5 86.5t79.5 33.5q59 0 89.5 -22t30.5 -89
v-326q1 -47 20 -66t57 -19q47 0 62 21.5t15 63.5v327q0 34 8.5 57t26 34t36 15t44.5 4q58 0 87 -28t29 -92v-5.5v-5.5q15 24 20 38q15 49 15 102z" />
    <glyph glyph-name="uhorn" unicode="&#x1b0;" horiz-adv-x="808" 
d="M603 565q0 23 9.5 38.5t29 23.5t46.5 8q42 0 68.5 -22t26.5 -74q0 -27 -8 -52.5t-21.5 -45.5t-31 -37t-36.5 -29t-38 -20.5t-36 -12.5t-30 -4q-4 0 -8 1v-233q0 -61 -25 -84t-88 -23q-76 0 -94 51q-76 -49 -188 -49q-71 0 -102 55.5t-31 182.5q0 63 3 102.5t9.5 68
t20 42.5t32 20t48.5 6q56 0 80.5 -21t24.5 -63l1 -183q0 -57 44 -57q22 0 36 21t14 54v134q0 25 7 46t20 36t32 23t42 8q84 0 105 -55q18 28 23 42q15 49 15 102z" />
    <glyph glyph-name="DZcaron" unicode="&#x1c4;" horiz-adv-x="1425" 
d="M299 136q33 0 56 9.5t41.5 32.5t28 66t9.5 106q0 46 -7 80.5t-18 56t-28.5 34.5t-37 18.5t-44.5 5.5v-409zM329 684q156 0 250.5 -90t94.5 -248q0 -51 -9.5 -99t-31.5 -93.5t-55 -79t-84 -54t-115 -20.5h-197q-61 0 -87.5 31t-26.5 112v422q0 119 114 119h147zM1267 162
q58 0 80 -18.5t22 -60.5q0 -22 -6 -36.5t-16 -24t-28.5 -14.5t-39.5 -6.5t-53 -1.5h-375q-44 0 -83.5 37.5t-39.5 87.5q0 30 3.5 49.5t16.5 40.5t23.5 33.5t38.5 41.5l255 232h-203q-45 0 -72.5 8.5t-41 27t-13.5 49.5q0 30 12.5 47.5t33 24t51.5 6.5h409q30 0 53 -10.5
t35 -27t18 -32.5t6 -30q0 -18 -1 -32t-5.5 -26.5t-6.5 -19.5t-11.5 -19t-13.5 -16t-19 -19.5t-21 -21.5l-292 -269h284zM1204 830q-18 -18 -30 -28.5t-33.5 -25.5t-46 -22t-52.5 -7q-89 0 -170 94q-3 3 -9.5 10.5t-10 11.5t-9 11t-8.5 12.5t-6 12.5t-4.5 14t-1.5 15
q0 32 25 55t60 23q32 0 67 -37q7 -7 19.5 -21t18.5 -20t14.5 -11.5t15.5 -5.5q4 0 8 1t8.5 4.5t8 6t10 9l11 11t13.5 14t15 16.5q34 36 63 36q31 0 57.5 -24.5t26.5 -56.5q0 -38 -60 -98z" />
    <glyph glyph-name="Dzcaron" unicode="&#x1c5;" horiz-adv-x="1245" 
d="M299 136q33 0 56 9.5t41.5 32.5t28 66t9.5 106q0 46 -7 80.5t-18 56t-28.5 34.5t-37 18.5t-44.5 5.5v-409zM329 684q156 0 250.5 -90t94.5 -248q0 -51 -9.5 -99t-31.5 -93.5t-55 -79t-84 -54t-115 -20.5h-197q-61 0 -87.5 31t-26.5 112v422q0 119 114 119h147zM1140 126
q42 0 57.5 -17t15.5 -55q0 -33 -22.5 -43.5t-79.5 -10.5h-295q-34 0 -62.5 23.5t-28.5 61.5q0 42 11 65.5t50 62.5l131 138h-73q-54 0 -78 15t-24 49q0 37 17 49.5t71 12.5h304q37 0 58.5 -20.5t21.5 -56.5q0 -24 -4 -38t-14.5 -29t-37.5 -46l-151 -162zM1127 632
q-17 -17 -27.5 -26t-30 -22.5t-41.5 -20t-47 -6.5q-80 0 -153 85q-3 3 -9 9.5t-9 10t-8 10t-7.5 11t-5.5 11t-4 13t-1 12.5q0 29 22.5 50t53.5 21q29 0 61 -33q6 -7 17 -19.5t16.5 -18t13 -10t14.5 -4.5q3 0 6.5 1t6 2t6.5 4.5t7 6t8 8t9 9.5l11 11t12 13q31 32 57 32
q28 0 51.5 -21.5t23.5 -51.5q0 -34 -53 -87z" />
    <glyph glyph-name="dzcaron" unicode="&#x1c6;" horiz-adv-x="1182" 
d="M579 150q0 -81 -27 -115.5t-83 -34.5q-64 0 -88 40q-65 -47 -157 -47q-78 0 -130 64.5t-52 176.5q0 114 51 181.5t131 67.5q72 0 135 -46v128q0 61 30 90.5t80 29.5q55 0 82.5 -22t27.5 -89v-424zM361 144l-1 187q-17 28 -44 28q-26 0 -42 -38t-16 -87q0 -46 15 -82
t42 -36q29 0 46 28zM1077 126q42 0 57.5 -17t15.5 -55q0 -33 -22.5 -43.5t-79.5 -10.5h-295q-34 0 -62.5 23.5t-28.5 61.5q0 42 11 65.5t50 62.5l131 138h-73q-54 0 -78 15t-24 49q0 37 17 49.5t71 12.5h304q37 0 58.5 -20.5t21.5 -56.5q0 -34 -9 -52t-47 -61l-151 -162z
M1064 632q-17 -17 -27.5 -26t-30 -22.5t-41.5 -20t-47 -6.5q-80 0 -153 85q-3 3 -9 9.5t-9 10t-8 10t-7.5 11t-5.5 11t-4 13t-1 12.5q0 29 22.5 50t53.5 21q29 0 61 -33q6 -7 17 -19.5t16.5 -18t13 -10t14.5 -4.5q3 0 6.5 1t6 2t6.5 4.5t7 6t8 8t9 9.5l11 11t12 13
q31 32 57 32q28 0 51.5 -21.5t23.5 -51.5q0 -34 -53 -87z" />
    <glyph glyph-name="LJ" unicode="&#x1c7;" horiz-adv-x="1200" 
d="M192 0q-46 1 -74 14.5t-42 44.5t-14 83v423q0 53 31 86.5t82 33.5q30 0 49 -4t35.5 -15t24.5 -34t8 -58v-401h171q58 0 81.5 -17t23.5 -70q0 -54 -27 -70t-88 -16h-261zM812 199q0 -29 17 -46t38 -17q16 0 26 5.5t15.5 19.5t5.5 38v366q0 61 26.5 90.5t87.5 29.5
q54 0 85 -25t31 -86v-371q0 -110 -66.5 -160t-195.5 -50q-64 0 -114.5 15t-81.5 38t-52 53.5t-29 59.5t-8 58q0 67 22.5 91.5t88.5 24.5q35 0 60 -9t37.5 -24.5t12.5 -37.5q0 -10 -3 -32t-3 -31z" />
    <glyph glyph-name="Lj" unicode="&#x1c8;" horiz-adv-x="902" 
d="M192 0q-46 1 -74 14.5t-42 44.5t-14 83v423q0 53 31 86.5t82 33.5q30 0 49 -4t35.5 -15t24.5 -34t8 -58v-401h171q58 0 81.5 -17t23.5 -70q0 -54 -27 -70t-88 -16h-261zM850 372v-325q0 -112 -43 -181.5t-137 -69.5q-106 0 -171.5 32t-65.5 68q0 27 20.5 38.5t71.5 11.5
q28 0 44 2.5t32.5 12t24 31t7.5 56.5v309q0 62 30.5 91t80.5 29q46 0 76 -30.5t30 -74.5zM630 616q0 33 28.5 54.5t80.5 21.5q109 0 109 -76q0 -42 -27.5 -59t-81.5 -17q-47 0 -78 18t-31 58z" />
    <glyph glyph-name="lj" unicode="&#x1c9;" horiz-adv-x="652" 
d="M266 151q0 -81 -27 -116t-83 -35t-82 31.5t-26 111.5l-2 422q0 62 30 91t80 29q55 0 82.5 -22t27.5 -89v-423zM600 372v-325q0 -112 -43 -181.5t-137 -69.5q-106 0 -171.5 32t-65.5 68q0 27 20.5 38.5t71.5 11.5q28 0 44 2.5t32.5 12t24 31t7.5 56.5v309q0 62 30.5 91
t80.5 29q46 0 76 -30.5t30 -74.5zM380 616q0 33 28.5 54.5t80.5 21.5q109 0 109 -76q0 -42 -27.5 -59t-81.5 -17q-47 0 -78 18t-31 58z" />
    <glyph glyph-name="NJ" unicode="&#x1ca;" horiz-adv-x="1371" 
d="M706 95q0 -44 -26 -69.5t-76 -25.5q-12 0 -24 3t-22.5 7.5t-23.5 13t-22.5 15.5t-23.5 20t-23.5 21.5t-25.5 24t-26 24.5l-183 173v-217q0 -49 -18.5 -67t-58.5 -18q-44 0 -65 20t-21 67v483q0 57 29 86t83 29q15 0 27.5 -2t22.5 -5.5t20.5 -10.5t20 -14.5t22.5 -20.5
l253 -252v218q0 29 10.5 48.5t28 28.5t41.5 9q28 0 46 -8.5t26.5 -27.5t8.5 -49v-504zM979 199q0 -29 17 -46t38 -17q16 0 26 5.5t15.5 19.5t5.5 38v366q0 61 26.5 90.5t87.5 29.5q54 0 85 -25t31 -86v-371q0 -110 -66.5 -160t-195.5 -50q-64 0 -114.5 15t-81.5 38t-52 53.5
t-29 59.5t-8 58q0 67 22.5 91.5t88.5 24.5q53 0 81.5 -19t28.5 -52q0 -10 -3 -32t-3 -31z" />
    <glyph glyph-name="Nj" unicode="&#x1cb;" horiz-adv-x="1073" 
d="M706 95q0 -44 -26 -69.5t-76 -25.5q-12 0 -24 3t-22.5 7.5t-23.5 13t-22.5 15.5t-23.5 20t-23.5 21.5t-25.5 24t-26 24.5l-183 173v-217q0 -49 -18.5 -67t-58.5 -18q-44 0 -65 20t-21 67v483q0 57 29 86t83 29q15 0 27.5 -2t22.5 -5.5t20.5 -10.5t20 -14.5t22.5 -20.5
l253 -252v218q0 29 10.5 48.5t28 28.5t41.5 9q28 0 46 -8.5t26.5 -27.5t8.5 -49v-504zM1021 372v-325q0 -112 -43 -181.5t-137 -69.5q-106 0 -171.5 32t-65.5 68q0 27 20.5 38.5t71.5 11.5q28 0 44 2.5t32.5 12t24 31t7.5 56.5v309q0 62 30.5 91t80.5 29q46 0 76 -30.5
t30 -74.5zM801 616q0 33 28.5 54.5t80.5 21.5q109 0 109 -76q0 -42 -27.5 -59t-81.5 -17q-47 0 -78 18t-31 58z" />
    <glyph glyph-name="nj" unicode="&#x1cc;" horiz-adv-x="916" 
d="M353 269q0 56 -44 56q-21 0 -34.5 -17.5t-15.5 -46.5v-154q0 -61 -25 -84t-88 -23q-59 0 -80.5 27.5t-21.5 90.5v246q0 51 27.5 82t73.5 31q80 0 103 -49q78 51 190 51q71 0 102.5 -56t31.5 -184q0 -63 -3 -102.5t-9.5 -68t-20.5 -42.5t-32.5 -20t-47.5 -6
q-56 0 -80.5 21t-24.5 62zM864 372v-325q0 -112 -43 -181.5t-137 -69.5q-106 0 -171.5 32t-65.5 68q0 27 20.5 38.5t71.5 11.5q28 0 44 2.5t32.5 12t24 31t7.5 56.5v309q0 62 30.5 91t80.5 29q46 0 76 -30.5t30 -74.5zM644 616q0 33 28.5 54.5t80.5 21.5q109 0 109 -76
q0 -42 -27.5 -59t-81.5 -17q-47 0 -78 18t-31 58z" />
    <glyph glyph-name="uni01E2" unicode="&#x1e2;" horiz-adv-x="942" 
d="M407 156l-136 1v-83q-2 -38 -28.5 -56t-84.5 -18q-62 0 -86.5 32t-24.5 124q0 59 7 153q7 82 29.5 147t56.5 107.5t80 70t95.5 39.5t107.5 12h386q58 0 86.5 -18.5t28.5 -64.5q0 -44 -24.5 -61.5t-80.5 -17.5h-183v-117h137q53 0 74.5 -17t21.5 -58q0 -23 -11.5 -36.5
t-34.5 -20t-59 -6.5h-127v-106l182 -1q56 0 80.5 -16.5t24.5 -58.5q0 -48 -28.5 -67t-86.5 -19h-288h-1q-59 0 -85.5 34.5t-27.5 121.5zM409 285l-1 236q-43 0 -75 -25.5t-39 -88.5q-5 -39 -10 -122h125zM305 839q0 23 8 40t22 26.5t30.5 14t36.5 4.5h208q55 0 77 -23
t22 -64q0 -19 -7 -33.5t-19.5 -24.5t-29 -15t-35.5 -5h-202q-59 0 -85 17t-26 63z" />
    <glyph glyph-name="uni01E3" unicode="&#x1e3;" horiz-adv-x="906" 
d="M563 280q69 1 75 1q14 0 22 18q5 13 5 36q0 63 -38 63q-21 0 -40.5 -34t-23.5 -84zM367 140q-17 41 -17 89q0 56 19 103q-17 28 -44 28q-26 0 -42 -38t-16 -87q0 -46 15 -82t42 -36q26 0 43 23zM423 411q43 35 91 54t117 19q117 0 171.5 -41.5t54.5 -113.5
q0 -45 -37.5 -78t-110.5 -34l-141 -1q7 -21 20 -36.5t34 -24t48 -8.5q43 0 88 11q19 5 41.5 16t32.5 11q17 0 26.5 -10t9.5 -25q0 -18 -16 -43.5t-44.5 -51t-75.5 -43.5t-101 -18q-72 0 -119.5 17t-91.5 56q-57 -73 -197 -73q-50 0 -91 27.5t-66.5 83t-25.5 129.5
q0 76 24 133t65 86.5t94 29.5q55 0 100 -17t100 -55zM243 626q0 40 24.5 58.5t62.5 18.5h188q33 -1 53.5 -11.5t28 -27t7.5 -40.5q0 -33 -23.5 -51.5t-58.5 -18.5h-182q-36 0 -56.5 6t-32 22t-11.5 44z" />
    <glyph glyph-name="Oogonek" unicode="&#x1ea;" horiz-adv-x="805" 
d="M450 -3q-16 -34 -26 -73t-10 -58q0 -7 2.5 -14t6 -12t9 -8t11.5 -3q13 0 32 15.5t35 15.5q10 0 20.5 -6t19 -15t14 -21t5.5 -23q0 -18 -11 -37q-20 -35 -65 -52.5t-84 -17.5q-60 0 -104 36t-44 94q0 91 83 180q-130 17 -211 107t-81 233q0 162 97.5 257.5t252.5 95.5
t253 -95.5t98 -257.5q0 -175 -122 -271q-76 -59 -181 -70zM402 140q26 0 46.5 17.5t32.5 46t18.5 63t6.5 71.5q0 51 -11 96.5t-35.5 77.5t-57.5 32q-32 0 -56 -32t-36 -78t-12 -96t11.5 -94t36 -74t56.5 -30z" />
    <glyph glyph-name="oogonek" unicode="&#x1eb;" horiz-adv-x="631" 
d="M365 -4q-16 -34 -26 -73t-10 -57q0 -8 2.5 -15t6 -12t9 -8t11.5 -3q13 0 32 15.5t35 15.5q13 0 26.5 -10t23 -25t9.5 -29q0 -19 -11 -37q-20 -36 -65 -53t-84 -17q-60 0 -104 35.5t-44 94.5q0 43 22.5 91t60.5 88q-98 16 -159 78.5t-61 160.5q0 114 78 181t200 67
t199 -67t77 -181q0 -101 -63 -164t-165 -76zM369 237q0 52 -13 91.5t-38 39.5q-26 0 -40.5 -40t-14.5 -91t14 -89.5t40 -38.5q14 0 24 11t16 29.5t9 41t3 46.5z" />
    <glyph glyph-name="DZ" unicode="&#x1f1;" horiz-adv-x="1411" 
d="M299 136q33 0 56 9.5t41.5 32.5t28 66t9.5 106q0 46 -7 80.5t-18 56t-28.5 34.5t-37 18.5t-44.5 5.5v-409zM329 684q156 0 250.5 -90t94.5 -248q0 -51 -9.5 -99t-31.5 -93.5t-55 -79t-84 -54t-115 -20.5h-197q-61 0 -87.5 31t-26.5 112v422q0 119 114 119h147zM1253 162
q58 0 80 -18.5t22 -60.5q0 -22 -6 -36.5t-16 -24t-28.5 -14.5t-39.5 -6.5t-53 -1.5h-375q-44 0 -83.5 37.5t-39.5 87.5q0 30 3.5 49.5t16.5 40.5t23.5 33.5t38.5 41.5l255 232h-203q-67 0 -97 19.5t-30 65.5q0 30 12.5 47.5t33 24t51.5 6.5h409q30 0 53 -10.5t35 -27
t18 -32.5t6 -30q0 -16 -1.5 -29t-3 -23t-6 -20t-7.5 -15.5t-11.5 -15.5t-13 -14.5t-16.5 -17t-19 -19.5l-292 -269h284z" />
    <glyph glyph-name="Dz" unicode="&#x1f2;" horiz-adv-x="1227" 
d="M299 136q33 0 56 9.5t41.5 32.5t28 66t9.5 106q0 46 -7 80.5t-18 56t-28.5 34.5t-37 18.5t-44.5 5.5v-409zM329 684q156 0 250.5 -90t94.5 -248q0 -51 -9.5 -99t-31.5 -93.5t-55 -79t-84 -54t-115 -20.5h-197q-61 0 -87.5 31t-26.5 112v422q0 119 114 119h147zM1122 126
q42 0 57.5 -17t15.5 -55q0 -33 -22.5 -43.5t-79.5 -10.5h-295q-34 0 -62.5 23.5t-28.5 61.5q0 42 11 65.5t50 62.5l131 138h-73q-54 0 -78 15t-24 49q0 37 17 49.5t71 12.5h304q37 0 58.5 -20.5t21.5 -56.5q0 -34 -9 -52t-47 -61l-151 -162z" />
    <glyph glyph-name="dz" unicode="&#x1f3;" horiz-adv-x="1144" 
d="M579 150q0 -81 -27 -115.5t-83 -34.5q-64 0 -88 40q-65 -47 -157 -47q-78 0 -130 64.5t-52 176.5q0 114 51 181.5t131 67.5q72 0 135 -46v128q0 61 30 90.5t80 29.5q55 0 82.5 -22t27.5 -89v-424zM361 144l-1 187q-17 28 -44 28q-26 0 -42 -38t-16 -87q0 -46 15 -82
t42 -36q29 0 46 28zM1039 126q42 0 57.5 -17t15.5 -55q0 -33 -22.5 -43.5t-79.5 -10.5h-295q-34 0 -62.5 23.5t-28.5 61.5q0 42 11 65.5t50 62.5l131 138h-73q-54 0 -78 15t-24 49q0 37 17 49.5t71 12.5h304q37 0 58.5 -20.5t21.5 -56.5q0 -34 -9 -52t-47 -61l-151 -162z
" />
    <glyph glyph-name="Gacute" unicode="&#x1f4;" horiz-adv-x="782" 
d="M452 517q0 31 -41 31q-42 0 -72 -47t-30 -157q0 -102 34.5 -148.5t81.5 -46.5q24 0 40 14t16 39q-35 0 -55 18t-20 43q0 36 19 54t65 18h121q58 0 90 -25t32 -88q0 -92 -88 -160.5t-209 -68.5q-111 0 -197.5 40t-137 119.5t-50.5 188.5q0 162 98 256t260 94q79 0 138 -14
t93 -39t50 -55t16 -65q0 -19 -6 -36.5t-21.5 -35t-47.5 -28.5t-77 -11q-66 0 -84 19.5t-18 90.5zM533 977q24 14 53 14q39 0 63 -34t24 -72q0 -56 -69 -82l-135 -45q-27 -9 -50 -9q-22 0 -39.5 9t-26.5 24t-9 33q0 19 9.5 35t19 23.5t28.5 19.5q4 3 6 4z" />
    <glyph glyph-name="gacute" unicode="&#x1f5;" 
d="M228 -6q-79 0 -131 64.5t-52 177.5q0 114 51 181t131 67q81 0 150 -56q26 49 86 49q54 0 84.5 -24t30.5 -86v-183q0 -97 -12.5 -166.5t-43 -122.5t-84 -79t-131.5 -26q-54 0 -100 15t-73 37t-42 44t-15 38q0 19 11 32t31 13q12 0 60.5 -26t78.5 -26q102 0 102 105
q-58 -28 -132 -28zM364 144l-1 189q-17 28 -43 28q-14 0 -25 -11t-18 -29t-11 -40.5t-4 -44.5q0 -47 15 -82.5t42 -35.5t45 26zM398 762q22 13 48 13q35 0 56.5 -31t21.5 -66q0 -50 -62 -74l-122 -41q-25 -8 -46 -8q-20 0 -35.5 8t-23.5 21.5t-8 30.5t8.5 31.5t17 21.5
t25.5 18q3 2 5 4z" />
    <glyph glyph-name="NameMe.619" unicode="&#x1fa;" horiz-adv-x="712" 
d="M358 522q-43 0 -63.5 -25t-20.5 -89v-118h166v120q0 62 -20.5 87t-61.5 25zM440 152h-166v-53q0 -51 -27 -75t-93 -24q-28 0 -46 8t-31.5 27t-20 55.5t-10 88t-3.5 130.5q0 59 11 110t29 89t43.5 68.5t53.5 50.5t59.5 33.5t61.5 19t59 5.5q42 0 83 -11.5t83 -39.5
t73.5 -69.5t51.5 -107.5t20 -148q0 -66 -2 -112t-7 -82t-12.5 -57t-20.5 -34.5t-29.5 -18.5t-39.5 -5q-44 0 -71 11.5t-38 32.5t-11 55v53zM379 844q0 17 -6.5 30t-17.5 13q-13 0 -20 -13t-7 -29.5t7 -29t19.5 -12.5t18.5 12t6 29zM354 733q-57 0 -95 29.5t-38 80.5
q0 52 37.5 82.5t96 30.5t95 -30.5t36.5 -82.5q0 -34 -17.5 -59t-47.5 -38t-67 -13zM389 1156q18 10 39 10q28 0 45.5 -25t17.5 -52q0 -40 -50 -60l-98 -33q-20 -6 -37 -6q-24 0 -39 14t-15 34q0 15 8 27.5t14 17t23 15.5z" />
    <glyph glyph-name="NameMe.620" unicode="&#x1fb;" 
d="M225 -6q-79 0 -131 64.5t-52 176.5q0 76 24 133t65 86.5t94 29.5q81 0 150 -57q27 50 87 50q54 0 84 -23.5t30 -86.5v-260q0 -60 -25 -83.5t-88 -23.5q-66 0 -87 37q-64 -43 -151 -43zM361 331q-17 29 -44 29q-26 0 -42 -38t-16 -87q0 -46 15 -82t42 -36q28 0 45 27v187z
M379 634q0 17 -6.5 30t-17.5 13q-13 0 -20 -13t-7 -29.5t7 -29t19.5 -12.5t18.5 12t6 29zM354 523q-57 0 -95 29.5t-38 80.5q0 52 37.5 82.5t96 30.5t95 -30.5t36.5 -82.5q0 -34 -17.5 -59t-47.5 -38t-67 -13zM389 946q18 10 39 10q28 0 45.5 -25t17.5 -52q0 -40 -50 -60
l-98 -33q-20 -6 -37 -6q-24 0 -39 14t-15 34q0 15 8 27.5t14 17t23 15.5z" />
    <glyph glyph-name="NameMe.625" unicode="&#x1fc;" horiz-adv-x="942" 
d="M407 156l-136 1v-83q-2 -38 -28.5 -56t-84.5 -18q-62 0 -86.5 32t-24.5 124q0 59 7 153q7 82 29.5 147t56.5 107.5t80 70t95.5 39.5t107.5 12h386q58 0 86.5 -18.5t28.5 -64.5q0 -44 -24.5 -61.5t-80.5 -17.5h-183v-117h137q53 0 74.5 -17t21.5 -58q0 -23 -11.5 -36.5
t-34.5 -20t-59 -6.5h-127v-106l182 -1q56 0 80.5 -16.5t24.5 -58.5q0 -48 -28.5 -67t-86.5 -19h-288h-1q-59 0 -85.5 34.5t-27.5 121.5zM409 285l-1 236q-43 0 -75 -25.5t-39 -88.5q-5 -39 -10 -122h125zM691 977q24 14 53 14q39 0 63 -34t24 -72q0 -56 -69 -82l-135 -45
q-27 -9 -50 -9q-22 0 -39.5 9t-26.5 24t-9 33q0 39 43 69q2 1 20 13z" />
    <glyph glyph-name="aeacute" unicode="&#x1fd;" horiz-adv-x="906" 
d="M563 280q69 1 75 1q14 0 22 18q5 13 5 36q0 63 -38 63q-21 0 -40.5 -34t-23.5 -84zM367 140q-17 41 -17 89q0 56 19 103q-17 28 -44 28q-26 0 -42 -38t-16 -87q0 -46 15 -82t42 -36q26 0 43 23zM423 411q43 35 91 54t117 19q117 0 171.5 -41.5t54.5 -113.5
q0 -45 -37.5 -78t-110.5 -34l-141 -1q7 -21 20 -36.5t34 -24t48 -8.5q43 0 88 11q19 5 41.5 16t32.5 11q17 0 26.5 -10t9.5 -25q0 -18 -16 -43.5t-44.5 -51t-75.5 -43.5t-101 -18q-72 0 -119.5 17t-91.5 56q-57 -73 -197 -73q-50 0 -91 27.5t-66.5 83t-25.5 129.5
q0 76 24 133t65 86.5t94 29.5q55 0 100 -17t100 -55zM556 762q22 13 48 13q35 0 56.5 -31t21.5 -66q0 -50 -62 -74l-122 -41q-25 -8 -46 -8q-30 0 -48.5 17.5t-18.5 42.5q0 17 8.5 31.5t17 21.5t25.5 18q3 2 5 4z" />
    <glyph glyph-name="Oslashacute" unicode="&#x1fe;" horiz-adv-x="805" 
d="M299 353l163 156q-12 16 -27 25.5t-33 9.5q-30 0 -53.5 -29t-35.5 -71.5t-14 -90.5zM402 140q26 0 46.5 17.5t32.5 46t18.5 63t6.5 71.5v10.5t-1 10.5l-175 -166q13 -25 31.5 -39t40.5 -14zM621 659q41 39 68 39q23 0 47 -20t24 -44q0 -33 -44 -75l-18 -17
q55 -86 55 -204q0 -107 -47.5 -186t-126.5 -118.5t-177 -39.5q-125 0 -215 63l-46 -43q-34 -32 -61 -32q-24 0 -45 23.5t-21 48.5q0 29 29 57l51 49q-42 77 -42 178q0 162 97.5 257.5t252.5 95.5q28 0 54.5 -3.5t51.5 -10t48 -16.5t43 -22zM533 977q24 14 53 14q39 0 63 -34
t24 -72q0 -56 -69 -82l-135 -45q-27 -9 -50 -9q-22 0 -39.5 9t-26.5 24t-9 33q0 19 9.5 35t19 23.5t28.5 19.5q4 3 6 4z" />
    <glyph glyph-name="oslashacute" unicode="&#x1ff;" horiz-adv-x="631" 
d="M263 232l8 7l84 82l3 3q-15 44 -40.5 44t-40 -40t-14.5 -91v-2.5v-2.5zM276 149q5 -12 11 -21t14 -14t16 -5q14 0 24 11t16 29.5t9 41t3 46.5v1v1l-2 -2l-80 -77zM499 465q25 25 46 25q18 0 30.5 -10.5t12.5 -26.5q0 -21 -32 -50l-15 -13q17 -20 28.5 -43.5t17.5 -52
t6 -58.5q0 -113 -78.5 -178t-197.5 -65q-89 0 -157 37l-24 -24q-22 -24 -44 -24q-15 0 -28 13.5t-13 27.5q0 12 5 20t17 19l22 19q-56 63 -56 155q0 114 78 181t200 67q46 0 87 -10t74 -30zM398 762q22 13 48 13q35 0 56.5 -31t21.5 -66q0 -50 -62 -74l-122 -41
q-25 -8 -46 -8q-20 0 -35.5 8t-23.5 21.5t-8 30.5t8.5 31.5t17 21.5t25.5 18q3 2 5 4z" />
    <glyph glyph-name="NameMe.621" unicode="&#x200;" horiz-adv-x="712" 
d="M358 522q-43 0 -63.5 -25t-20.5 -89v-118h166v120q0 62 -20.5 87t-61.5 25zM440 152h-166v-53q0 -51 -27 -75t-93 -24q-28 0 -46 8t-31.5 27t-20 55.5t-10 88t-3.5 130.5q0 59 11 110t29 89t43.5 68.5t53.5 50.5t59.5 33.5t61.5 19t59 5.5q42 0 83 -11.5t83 -39.5
t73.5 -69.5t51.5 -107.5t20 -148q0 -66 -2 -112t-7 -82t-12.5 -57t-20.5 -34.5t-29.5 -18.5t-39.5 -5q-44 0 -71 11.5t-38 32.5t-11 55v53zM432 969q-29 0 -58 -24t-29 -55q0 -29 29 -59l84 -80q2 -2 7 -6l7.5 -6t7.5 -5.5t8.5 -5.5t8.5 -4t10.5 -3t11.5 -1q13 0 26.5 7.5
t22 20t8.5 26.5q0 5 -1.5 10.5t-4.5 12t-5 11t-6.5 13t-6.5 12.5q-26 51 -45 80t-38 43q-18 13 -37 13zM168 969q-29 0 -58 -24t-29 -55q0 -29 29 -59l84 -80q1 -1 8 -6.5t9.5 -7.5t8.5 -6t10.5 -6t11 -3.5t13.5 -1.5q21 0 39 16.5t18 37.5q0 5 -1.5 10.5t-4.5 12t-5 11
t-6.5 13t-6.5 12.5q-26 51 -45 80t-38 43q-18 13 -37 13z" />
    <glyph glyph-name="NameMe.622" unicode="&#x201;" 
d="M225 -6q-79 0 -131 64.5t-52 176.5q0 76 24 133t65 86.5t94 29.5q81 0 150 -57q27 50 87 50q54 0 84 -23.5t30 -86.5v-260q0 -60 -25 -83.5t-88 -23.5q-66 0 -87 37q-64 -43 -151 -43zM361 331q-17 29 -44 29q-26 0 -42 -38t-16 -87q0 -46 15 -82t42 -36q28 0 45 27v187z
M418 785q-29 0 -58 -24t-29 -55q0 -29 29 -59l84 -80q2 -2 7 -6l7.5 -6t7.5 -5.5t8.5 -5.5t8.5 -4t10.5 -3t11.5 -1q13 0 26.5 7.5t22 20t8.5 26.5q0 5 -1.5 10.5t-4.5 12t-5 11t-6.5 13t-6.5 12.5q-26 51 -45 80t-38 43q-18 13 -37 13zM154 785q-29 0 -58 -24t-29 -55
q0 -29 29 -59l84 -80q1 -1 8 -6.5t9.5 -7.5t8.5 -6t10.5 -6t11 -3.5t13.5 -1.5q21 0 39 16.5t18 37.5q0 4 -1.5 9t-3 9t-4 10t-4.5 10t-5.5 10.5t-5.5 10.5q-26 51 -45 80t-38 43q-18 13 -37 13z" />
    <glyph glyph-name="NameMe.623" unicode="&#x202;" horiz-adv-x="712" 
d="M358 522q-43 0 -63.5 -25t-20.5 -89v-118h166v120q0 62 -20.5 87t-61.5 25zM440 152h-166v-53q0 -51 -27 -75t-93 -24q-28 0 -46 8t-31.5 27t-20 55.5t-10 88t-3.5 130.5q0 59 11 110t29 89t43.5 68.5t53.5 50.5t59.5 33.5t61.5 19t59 5.5q42 0 83 -11.5t83 -39.5
t73.5 -69.5t51.5 -107.5t20 -148q0 -66 -2 -112t-7 -82t-12.5 -57t-20.5 -34.5t-29.5 -18.5t-39.5 -5q-44 0 -71 11.5t-38 32.5t-11 55v53zM356 857q38 0 38 -52q0 -53 79 -53q91 0 91 74q0 161 -208 161q-36 0 -66 -4.5t-56.5 -16t-44.5 -29.5t-28.5 -46t-10.5 -65
q0 -74 90 -74q80 0 80 53q0 27 8 39.5t28 12.5z" />
    <glyph glyph-name="NameMe.624" unicode="&#x203;" 
d="M225 -6q-79 0 -131 64.5t-52 176.5q0 76 24 133t65 86.5t94 29.5q81 0 150 -57q27 50 87 50q54 0 84 -23.5t30 -86.5v-260q0 -60 -25 -83.5t-88 -23.5q-66 0 -87 37q-64 -43 -151 -43zM361 331q-17 29 -44 29q-26 0 -42 -38t-16 -87q0 -46 15 -82t42 -36q28 0 45 27v187z
M332 641q33 0 33 -47q0 -48 72 -48q81 0 81 67q0 145 -186 145q-88 0 -137 -33t-49 -112q0 -67 81 -67q72 0 72 48q0 24 7 35.5t26 11.5z" />
    <glyph glyph-name="Edblgrave" unicode="&#x204;" horiz-adv-x="672" 
d="M471 406q53 0 74.5 -17t21.5 -58q0 -23 -11.5 -36.5t-34.5 -20t-59 -6.5h-162v-106l217 -1q56 0 80.5 -16.5t24.5 -58.5q0 -48 -28.5 -67t-86.5 -19h-324q-59 0 -86.5 31.5t-27.5 111.5v422q0 120 114 120h324q38 0 62 -7t38.5 -25.5t14.5 -50.5q0 -44 -24.5 -61.5
t-80.5 -17.5h-218v-117h172zM424 969q-29 0 -58 -24t-29 -55q0 -29 29 -59l84 -80q1 -1 8 -6.5t9.5 -7.5t8.5 -6t10.5 -6t11 -3.5t13.5 -1.5q13 0 26.5 7.5t22 20t8.5 26.5q0 5 -1.5 10.5t-4.5 12t-5 11t-6.5 13t-6.5 12.5q-26 51 -45 80t-38 43q-18 13 -37 13zM160 969
q-29 0 -58 -24t-29 -55q0 -29 29 -59l84 -80q1 -1 8 -6.5t9.5 -7.5t8.5 -6t10.5 -6t11 -3.5t13.5 -1.5q21 0 39 16.5t18 37.5q0 5 -1.5 10.5t-4.5 12t-5 11t-6.5 13t-6.5 12.5q-18 34 -29.5 54.5t-26 39.5t-27.5 29q-18 13 -37 13z" />
    <glyph glyph-name="edblgrave" unicode="&#x205;" horiz-adv-x="595" 
d="M321 -6q-122 0 -201.5 63t-79.5 172q0 118 78.5 186.5t202.5 68.5q117 0 171.5 -41.5t54.5 -113.5q0 -45 -37.5 -78t-110.5 -34l-141 -1q10 -32 36 -50.5t66 -18.5q43 0 88 11q19 5 41.5 16t32.5 11q17 0 26.5 -10t9.5 -25q0 -18 -16 -43.5t-44.5 -51t-75.5 -43.5
t-101 -18zM253 280q69 1 75 1q15 0 22 18q5 13 5 36q0 63 -38 63q-21 0 -40.5 -34t-23.5 -84zM394 785q-29 0 -58 -24t-29 -55q0 -29 29 -59l84 -80q1 -1 8 -6.5t9.5 -7.5t8.5 -6t10.5 -6t11 -3.5t13.5 -1.5q13 0 26.5 7.5t22 20t8.5 26.5q0 5 -1.5 10.5t-4.5 12t-5 11
t-6.5 13t-6.5 12.5q-26 51 -45 80t-38 43q-18 13 -37 13zM130 785q-29 0 -58 -24t-29 -55q0 -29 29 -59l84 -80q1 -1 8 -6.5t9.5 -7.5t8.5 -6t10.5 -6t11 -3.5t13.5 -1.5q21 0 39 16.5t18 37.5q0 5 -1.5 10.5t-4.5 12t-5 11t-6.5 13t-6.5 12.5q-26 51 -45 80t-38 43
q-18 13 -37 13z" />
    <glyph glyph-name="Einvertedbreve" unicode="&#x206;" horiz-adv-x="672" 
d="M471 406q53 0 74.5 -17t21.5 -58q0 -23 -11.5 -36.5t-34.5 -20t-59 -6.5h-162v-106l217 -1q56 0 80.5 -16.5t24.5 -58.5q0 -48 -28.5 -67t-86.5 -19h-324q-59 0 -86.5 31.5t-27.5 111.5v422q0 120 114 120h324q38 0 62 -7t38.5 -25.5t14.5 -50.5q0 -44 -24.5 -61.5
t-80.5 -17.5h-218v-117h172zM345 845q33 0 33 -47t72 -47q81 0 81 66q0 145 -186 145q-87 0 -136.5 -32.5t-49.5 -112.5q0 -66 81 -66q72 0 72 47q0 24 7 35.5t26 11.5z" />
    <glyph glyph-name="einvertedbreve" unicode="&#x207;" horiz-adv-x="595" 
d="M321 -6q-122 0 -201.5 63t-79.5 172q0 118 78.5 186.5t202.5 68.5q117 0 171.5 -41.5t54.5 -113.5q0 -45 -37.5 -78t-110.5 -34l-141 -1q10 -32 36 -50.5t66 -18.5q43 0 88 11q19 5 41.5 16t32.5 11q17 0 26.5 -10t9.5 -25q0 -18 -16 -43.5t-44.5 -51t-75.5 -43.5
t-101 -18zM253 280q69 1 75 1q15 0 22 18q5 13 5 36q0 63 -38 63q-21 0 -40.5 -34t-23.5 -84zM321 639q33 0 33 -47q0 -48 72 -48q81 0 81 67q0 145 -186 145q-88 0 -137 -33t-49 -112q0 -67 81 -67q72 0 72 48q0 24 7 35.5t26 11.5z" />
    <glyph glyph-name="Idblgrave" unicode="&#x208;" horiz-adv-x="364" 
d="M300 150q0 -78 -29 -114t-88 -36q-39 0 -62.5 12.5t-37 44t-13.5 85.5v423q0 120 113 120q58 0 87.5 -22t29.5 -89v-424zM258 969q-18 0 -38 -10t-34.5 -29t-14.5 -40q0 -29 29 -59l84 -80q1 -1 8 -6.5t9.5 -7.5t8.5 -6t10.5 -6t11 -3.5t13.5 -1.5q21 0 39 16.5t18 37.5
q0 5 -1.5 10.5t-4.5 12t-5 11t-6.5 13t-6.5 12.5q-26 51 -45 80t-38 43q-18 13 -37 13zM-6 969q-29 0 -58 -24t-29 -55q0 -29 29 -59l84 -80q1 -1 8 -6.5t9.5 -7.5t8.5 -6t10.5 -6t11 -3.5t13.5 -1.5q21 0 39 16.5t18 37.5q0 5 -1.5 10.5t-4.5 12t-5 11t-6.5 13t-6.5 12.5
q-26 51 -45 80t-38 43q-18 13 -37 13z" />
    <glyph glyph-name="idblgrave" unicode="&#x209;" horiz-adv-x="283" 
d="M249 107q0 -60 -25 -83.5t-88 -23.5q-59 0 -80.5 27.5t-21.5 90.5v246q0 34 12 59.5t35 39.5t54 14q54 0 84 -23.5t30 -86.5v-260zM220 785q-29 0 -58 -24t-29 -55q0 -29 29 -59l84 -80q1 -1 8 -6.5t9.5 -7.5t8.5 -6t10.5 -6t11 -3.5t13.5 -1.5q21 0 39 16.5t18 37.5
q0 5 -1.5 10.5t-4.5 12t-5 11t-6.5 13t-6.5 12.5q-26 51 -45 80t-38 43q-18 13 -37 13zM-44 785q-29 0 -58 -24t-29 -55q0 -29 29 -59l84 -80q1 -1 8 -6.5t9.5 -7.5t8.5 -6t10.5 -6t11 -3.5t13.5 -1.5q21 0 39 16.5t18 37.5q0 5 -1.5 10.5t-4.5 12t-5 11t-6.5 13t-6.5 12.5
q-26 51 -45 80t-38 43q-18 13 -37 13z" />
    <glyph glyph-name="Iinvertedbreve" unicode="&#x20a;" horiz-adv-x="364" 
d="M300 150q0 -78 -29 -114t-88 -36q-39 0 -62.5 12.5t-37 44t-13.5 85.5v423q0 120 113 120q58 0 87.5 -22t29.5 -89v-424zM183 845q33 0 33 -47t72 -47q82 0 82 66q0 145 -187 145q-87 0 -136.5 -32.5t-49.5 -112.5q0 -66 81 -66q72 0 72 47q0 24 7 35.5t26 11.5z" />
    <glyph glyph-name="iinvertedbreve" unicode="&#x20b;" horiz-adv-x="283" 
d="M249 107q0 -60 -25 -83.5t-88 -23.5q-59 0 -80.5 27.5t-21.5 90.5v246q0 34 12 59.5t35 39.5t54 14q54 0 84 -23.5t30 -86.5v-260zM141 639q33 0 33 -48q0 -47 72 -47q81 0 81 66q0 145 -186 145q-88 0 -137 -32.5t-49 -112.5q0 -66 81 -66q72 0 72 47q0 24 7 36t26 12z
" />
    <glyph glyph-name="Odblgrave" unicode="&#x20c;" horiz-adv-x="805" 
d="M402 140q26 0 46.5 17.5t32.5 46t18.5 63t6.5 71.5q0 51 -11 96.5t-35.5 77.5t-57.5 32q-32 0 -56 -32t-36 -78t-12 -96t11.5 -94t36 -74t56.5 -30zM402 -6q-73 0 -137 23t-111.5 66t-74.5 109t-27 146q0 162 97.5 257.5t252.5 95.5t253 -95.5t98 -257.5
q0 -107 -47.5 -186t-126.5 -118.5t-177 -39.5zM466 969q19 0 37 -13q13 -10 27.5 -29t26 -39.5t29.5 -54.5q2 -4 6.5 -12.5t6.5 -13t5 -11t4.5 -12t1.5 -10.5q0 -14 -8.5 -26.5t-22 -20t-26.5 -7.5q-7 0 -13.5 1.5t-11 3.5t-10.5 6t-8.5 6t-9.5 7.5t-8 6.5l-84 80
q-29 30 -29 59q0 31 29 55t58 24zM202 969q19 0 37 -13q13 -10 27.5 -29t26 -39.5t29.5 -54.5q2 -4 6.5 -12.5t6.5 -13t5 -11t4.5 -12t1.5 -10.5q0 -14 -8.5 -26.5t-22 -20t-26.5 -7.5q-7 0 -13.5 1.5t-11 3.5t-10.5 6t-8.5 6t-9.5 7.5t-8 6.5l-84 80q-29 30 -29 59
q0 31 29 55t58 24z" />
    <glyph glyph-name="odblgrave" unicode="&#x20d;" horiz-adv-x="631" 
d="M369 237q0 52 -13 91.5t-38 39.5q-26 0 -40.5 -40t-14.5 -91t14 -89.5t40 -38.5q14 0 24 11t16 29.5t9 41t3 46.5zM317 -7q-78 0 -140.5 28t-100 84t-37.5 131q0 114 78 181t200 67t199 -67t77 -181q0 -113 -78.5 -178t-197.5 -65zM376 785q19 0 37 -13q19 -14 38 -43
t45 -80q2 -4 6.5 -12.5t6.5 -13t5 -11t4.5 -12t1.5 -10.5q0 -11 -5 -21t-13 -17t-18.5 -11.5t-20.5 -4.5q-7 0 -13.5 1.5t-11 3.5t-10.5 6t-8.5 6t-9.5 7.5t-8 6.5l-84 80q-29 30 -29 59q0 31 29 55t58 24zM112 785q19 0 37 -13q19 -14 38 -43t45 -80q2 -4 6.5 -12.5
t6.5 -13t5 -11t4.5 -12t1.5 -10.5q0 -14 -8.5 -26.5t-22 -20t-26.5 -7.5q-7 0 -13.5 1.5t-11 3.5t-10.5 6t-8.5 6t-9.5 7.5t-8 6.5l-84 80q-29 30 -29 59q0 31 29 55t58 24z" />
    <glyph glyph-name="Oinvertedbreve" unicode="&#x20e;" horiz-adv-x="805" 
d="M402 140q26 0 46.5 17.5t32.5 46t18.5 63t6.5 71.5q0 51 -11 96.5t-35.5 77.5t-57.5 32q-32 0 -56 -32t-36 -78t-12 -96t11.5 -94t36 -74t56.5 -30zM402 -6q-73 0 -137 23t-111.5 66t-74.5 109t-27 146q0 162 97.5 257.5t252.5 95.5t253 -95.5t98 -257.5
q0 -107 -47.5 -186t-126.5 -118.5t-177 -39.5zM402 845q33 0 33 -47t72 -47q81 0 81 66q0 145 -186 145q-88 0 -137 -32.5t-49 -112.5q0 -66 81 -66q72 0 72 47q0 24 7 35.5t26 11.5z" />
    <glyph glyph-name="oinvertedbreve" unicode="&#x20f;" horiz-adv-x="631" 
d="M369 237q0 52 -13 91.5t-38 39.5q-26 0 -40.5 -40t-14.5 -91t14 -89.5t40 -38.5q14 0 24 11t16 29.5t9 41t3 46.5zM317 -7q-78 0 -140.5 28t-100 84t-37.5 131q0 114 78 181t200 67t199 -67t77 -181q0 -113 -78.5 -178t-197.5 -65zM317 639q33 0 33 -48q0 -47 72 -47
q81 0 81 66q0 145 -186 145q-88 0 -137 -32.5t-49 -112.5q0 -66 81 -66q72 0 72 47q0 24 7 36t26 12z" />
    <glyph glyph-name="Rdblgrave" unicode="&#x210;" horiz-adv-x="720" 
d="M444 486q0 48 -35 66t-118 18v-173q51 0 83.5 7.5t51 27.5t18.5 54zM291 150q0 -150 -117 -150q-39 0 -63 12.5t-37.5 44t-13.5 86.5v422q0 58 31.5 88.5t82.5 30.5h210q123 0 199 -57.5t76 -147.5q0 -68 -28.5 -106.5t-91.5 -56.5q31 -2 60 -21t49.5 -54.5t20.5 -79.5
q0 -66 -12.5 -101.5t-35.5 -47.5t-65 -12q-59 0 -86.5 24.5t-27.5 74.5q0 62 -12 95.5t-31 43.5t-53 10l-55 -1v-97zM416 969q-29 0 -58 -24t-29 -55q0 -29 29 -59l84 -80q2 -2 7 -6l7.5 -6t7.5 -5.5t8.5 -5.5t8.5 -4t10.5 -3t11.5 -1q13 0 26.5 7.5t22 20t8.5 26.5
q0 5 -1.5 10.5t-4.5 12t-5 11t-6.5 13t-6.5 12.5q-26 51 -45 80t-38 43q-18 13 -37 13zM152 969q-29 0 -58 -24t-29 -55q0 -29 29 -59l84 -80q2 -2 7 -6l7.5 -6t7.5 -5.5t8.5 -5.5t8.5 -4t10.5 -3t11.5 -1q21 0 39 16.5t18 37.5q0 5 -1.5 10.5t-4.5 12t-5 11t-6.5 13
t-6.5 12.5q-26 51 -45 80t-38 43q-18 13 -37 13z" />
    <glyph glyph-name="rdblgrave" unicode="&#x211;" horiz-adv-x="472" 
d="M261 107q0 -60 -25 -83.5t-89 -23.5q-59 0 -80 27.5t-21 90.5v246q0 51 27.5 82t73.5 31q76 0 100 -44q58 44 112 44q105 0 105 -100q0 -26 -10.5 -46.5t-29 -32t-43.5 -11.5q-27 0 -48.5 18t-38.5 18q-22 0 -33 -15v-201zM301 785q19 0 37 -13q19 -14 38 -43t45 -80
q2 -4 6.5 -12.5t6.5 -13t5 -11t4.5 -12t1.5 -10.5q0 -14 -8.5 -26.5t-22 -20t-26.5 -7.5q-7 0 -13.5 1.5t-11 3.5t-10.5 6t-8.5 6t-9.5 7.5t-8 6.5l-84 80q-29 30 -29 59q0 31 29 55t58 24zM37 785q19 0 37 -13q13 -10 27.5 -29t26 -39.5t29.5 -54.5q2 -4 6.5 -12.5t6.5 -13
t5 -11t4.5 -12t1.5 -10.5q0 -14 -8.5 -26.5t-22 -20t-26.5 -7.5q-7 0 -13.5 1.5t-11 3.5t-10.5 6t-8.5 6t-9.5 7.5t-8 6.5l-84 80q-29 30 -29 59q0 31 29 55t58 24z" />
    <glyph glyph-name="Rinvertedbreve" unicode="&#x212;" horiz-adv-x="720" 
d="M444 486q0 48 -35 66t-118 18v-173q51 0 83.5 7.5t51 27.5t18.5 54zM291 150q0 -150 -117 -150q-39 0 -63 12.5t-37.5 44t-13.5 86.5v422q0 58 31.5 88.5t82.5 30.5h210q123 0 199 -57.5t76 -147.5q0 -68 -28.5 -106.5t-91.5 -56.5q31 -2 60 -21t49.5 -54.5t20.5 -79.5
q0 -66 -12.5 -101.5t-35.5 -47.5t-65 -12q-59 0 -86.5 24.5t-27.5 74.5q0 62 -12 95.5t-31 43.5t-53 10l-55 -1v-97zM355 845q33 0 33 -47t72 -47q81 0 81 66q0 145 -186 145q-42 0 -74 -7t-58.5 -23t-40 -45t-13.5 -70q0 -66 81 -66q72 0 72 47q0 24 7 35.5t26 11.5z" />
    <glyph glyph-name="rinvertedbreve" unicode="&#x213;" horiz-adv-x="472" 
d="M261 107q0 -60 -25 -83.5t-89 -23.5q-59 0 -80 27.5t-21 90.5v246q0 51 27.5 82t73.5 31q76 0 100 -44q58 44 112 44q105 0 105 -100q0 -26 -10.5 -46.5t-29 -32t-43.5 -11.5q-27 0 -48.5 18t-38.5 18q-22 0 -33 -15v-201zM249 639q33 0 33 -48q0 -47 72 -47q81 0 81 66
q0 145 -186 145q-88 0 -137 -32.5t-49 -112.5q0 -66 81 -66q72 0 72 47q0 24 7 36t26 12z" />
    <glyph glyph-name="Udblgrave" unicode="&#x214;" horiz-adv-x="737" 
d="M674 565v-298q0 -146 -70.5 -209.5t-237.5 -63.5q-159 0 -233.5 68t-74.5 205v298q0 53 31.5 86.5t79.5 33.5q59 0 89.5 -22t30.5 -89v-326q1 -47 20 -66t57 -19q47 0 62 21.5t15 63.5v327q0 34 8.5 57t26 34t36 15t44.5 4q58 0 87 -28t29 -92zM440 969q-29 0 -58 -24
t-29 -55q0 -29 29 -59l84 -80q1 -1 8 -6.5t9.5 -7.5t8.5 -6t10.5 -6t11 -3.5t13.5 -1.5q13 0 26.5 7.5t22 20t8.5 26.5q0 5 -1.5 10.5t-4.5 12t-5 11t-6.5 13t-6.5 12.5q-26 51 -45 80t-38 43q-18 13 -37 13zM176 969q-29 0 -58 -24t-29 -55q0 -29 29 -59l84 -80
q1 -1 8 -6.5t9.5 -7.5t8.5 -6t10.5 -6t11 -3.5t13.5 -1.5q21 0 39 16.5t18 37.5q0 5 -1.5 10.5t-4.5 12t-5 11t-6.5 13t-6.5 12.5q-26 51 -45 80t-38 43q-18 13 -37 13z" />
    <glyph glyph-name="udblgrave" unicode="&#x215;" horiz-adv-x="625" 
d="M265 211q0 -57 44 -57q22 0 36 21t14 54v134q0 25 7 46t20 36t32 23t42 8q54 0 84 -23.5t30 -86.5v-260q0 -61 -25 -84t-88 -23q-76 0 -94 51q-76 -49 -188 -49q-71 0 -102 55.5t-31 182.5q0 63 3 102.5t9.5 68t20 42.5t32 20t48.5 6q56 0 80.5 -21t24.5 -63zM396 785
q-29 0 -58 -24t-29 -55q0 -29 29 -59l84 -80q1 -1 8 -6.5t9.5 -7.5t8.5 -6t10.5 -6t11 -3.5t13.5 -1.5q13 0 26.5 7.5t22 20t8.5 26.5q0 5 -1.5 10.5t-4.5 12t-5 11t-6.5 13t-6.5 12.5q-26 51 -45 80t-38 43q-18 13 -37 13zM132 785q-29 0 -58 -24t-29 -55q0 -29 29 -59
l84 -80q1 -1 8 -6.5t9.5 -7.5t8.5 -6t10.5 -6t11 -3.5t13.5 -1.5q21 0 39 16.5t18 37.5q0 5 -1.5 10.5t-4.5 12t-5 11t-6.5 13t-6.5 12.5q-26 51 -45 80t-38 43q-18 13 -37 13z" />
    <glyph glyph-name="Uinvertedbreve" unicode="&#x216;" horiz-adv-x="737" 
d="M674 565v-298q0 -146 -70.5 -209.5t-237.5 -63.5q-159 0 -233.5 68t-74.5 205v298q0 53 31.5 86.5t79.5 33.5q59 0 89.5 -22t30.5 -89v-326q1 -47 20 -66t57 -19q47 0 62 21.5t15 63.5v327q0 34 8.5 57t26 34t36 15t44.5 4q58 0 87 -28t29 -92zM363 845q-19 0 -26 -11.5
t-7 -35.5q0 -47 -72 -47q-81 0 -81 66q0 41 14 70t40 45t58 23t74 7q187 0 187 -145q0 -66 -82 -66q-71 0 -71 47t-34 47z" />
    <glyph glyph-name="uinvertedbreve" unicode="&#x217;" horiz-adv-x="625" 
d="M265 211q0 -57 44 -57q22 0 36 21t14 54v134q0 25 7 46t20 36t32 23t42 8q54 0 84 -23.5t30 -86.5v-260q0 -61 -25 -84t-88 -23q-76 0 -94 51q-76 -49 -188 -49q-71 0 -102 55.5t-31 182.5q0 63 3 102.5t9.5 68t20 42.5t32 20t48.5 6q56 0 80.5 -21t24.5 -63zM309 639
q-32 0 -32 -48q0 -47 -72 -47q-81 0 -81 66q0 145 185 145q187 0 187 -145q0 -66 -81 -66q-72 0 -72 47q0 48 -34 48z" />
    <glyph glyph-name="Scommaaccent" unicode="&#x218;" horiz-adv-x="694" 
d="M342 692q119 0 203 -49t84 -104q0 -21 -13 -33t-30 -12q-18 0 -54 18.5t-80 37t-81 18.5q-59 0 -59 -48q0 -15 9.5 -28.5t30.5 -28t41 -25.5t55 -29.5t59 -32.5q77 -44 108 -84t31 -92q0 -207 -279 -207q-55 0 -106.5 11t-90 29t-68 40t-44.5 45t-15 43q0 22 14.5 37.5
t42.5 15.5q21 0 101 -26.5t129 -26.5q45 0 45 31q0 13 -6.5 22t-25 21t-37.5 22t-60.5 32t-77.5 43q-37 21 -63.5 52t-38.5 61.5t-12 56.5q0 55 32 97t98 67.5t158 25.5zM257 -142q0 33 28.5 54t79.5 21q26 0 46.5 -4.5t38 -15t27.5 -29.5t10 -46q0 -28 -8 -53.5t-21 -45
t-30.5 -37t-36.5 -29t-38.5 -20t-36.5 -12.5t-30 -4q-17 0 -28 10t-11 26q0 22 15 29q45 22 66 37.5t38 41.5h-1q-47 0 -77.5 18.5t-30.5 58.5z" />
    <glyph glyph-name="scommaaccent" unicode="&#x219;" horiz-adv-x="562" 
d="M281 484q93 0 155 -38t62 -83q0 -6 -3 -12t-8 -11t-12.5 -8.5t-15.5 -3.5q-15 0 -33 10.5t-34 22.5t-42 22t-55 10q-39 0 -39 -24q0 -13 14 -23t32 -15t45.5 -13.5t45.5 -17.5q75 -29 103 -62.5t28 -88.5q0 -27 -15 -53.5t-45 -50t-81.5 -38t-117.5 -14.5q-100 0 -162 37
t-62 82q0 19 12.5 30t35.5 11t70 -22.5t87 -22.5q55 0 55 27q0 14 -29 22.5t-76 20.5t-75 30q-44 19 -61.5 47.5t-17.5 69.5q0 46 30 82.5t84.5 56.5t124.5 20zM155 -143q0 34 28.5 55t79.5 21q26 0 46.5 -5t38 -15t27.5 -29.5t10 -46.5t-8 -53t-21 -45.5t-30.5 -36.5
t-36.5 -29t-38.5 -20.5t-36.5 -12.5t-30 -4q-17 0 -28 10.5t-11 26.5q0 21 15 28q45 22 66 38t38 42h-1q-30 0 -53 6.5t-39 24.5t-16 45z" />
    <glyph glyph-name="Tcommaaccent" unicode="&#x21a;" horiz-adv-x="737" 
d="M492 150q0 -84 -28.5 -117t-88.5 -33q-59 0 -85.5 31.5t-27.5 111.5l-2 369h-85q-63 0 -94.5 20t-31.5 71q0 46 27 64t90 18h428q56 0 81 -20t25 -69q0 -33 -14.5 -51.5t-38.5 -25.5t-62 -7h-93v-362zM265 -136q0 34 28 55t80 21q54 0 88 -22t34 -74q0 -27 -8 -52.5
t-21.5 -45.5t-31 -37t-36.5 -29t-38 -20.5t-36 -12.5t-30 -4q-18 0 -28.5 10.5t-10.5 26.5q0 21 15 28q45 22 65.5 38t37.5 42q-47 0 -77.5 18t-30.5 58z" />
    <glyph glyph-name="tcommaaccent" unicode="&#x21b;" horiz-adv-x="501" 
d="M96 214v118q-36 2 -52 16.5t-16 41.5q0 57 69 62v93q0 38 55 68.5t109 30.5q33 0 43 -19t10 -57l1 -115h27q55 0 75.5 -14.5t20.5 -52.5q0 -31 -24.5 -43t-80.5 -12h-18v-110q0 -32 6 -42.5t22 -10.5q12 0 20 8.5t12.5 19t12 19t17.5 8.5q23 0 35.5 -11t12.5 -27
q0 -27 -10.5 -58t-30.5 -60t-55.5 -48t-79.5 -19q-99 0 -140 50t-41 164zM167 -136q0 34 28.5 55t79.5 21q26 0 46.5 -4.5t38.5 -15t27.5 -30t9.5 -45.5q0 -28 -8 -53.5t-21 -45.5t-30.5 -37t-36.5 -29t-38.5 -20.5t-36.5 -12.5t-30 -4q-17 0 -27.5 10.5t-10.5 26.5
q0 21 14 28q45 22 66 38t38 42h-1q-46 0 -77 18t-31 58z" />
    <glyph glyph-name="dotlessj" unicode="&#x237;" horiz-adv-x="340" 
d="M288 372v-325q0 -54 -9.5 -97.5t-30 -79t-56 -55t-84.5 -19.5q-106 0 -171.5 32t-65.5 68q0 27 20.5 38.5t71.5 11.5q27 0 43.5 2.5t33 12t24 31.5t7.5 56v309q0 42 15 69.5t39 39t57 11.5q46 0 76 -30.5t30 -74.5z" />
    <glyph glyph-name="schwa" unicode="&#x259;" horiz-adv-x="595" 
d="M277 484q122 0 201.5 -63t79.5 -172q0 -118 -78.5 -186.5t-202.5 -68.5q-117 0 -171.5 41.5t-54.5 113.5q0 45 37.5 78t110.5 34l141 1q-10 32 -36 50.5t-66 18.5q-43 0 -89 -11q-18 -5 -40.5 -16t-32.5 -11q-17 0 -26.5 10t-9.5 24q0 18 16 44t44.5 51.5t75.5 43.5
t101 18zM345 198q-69 -1 -75 -1q-15 0 -22 -18q-5 -14 -5 -36q0 -63 38 -63q21 0 40.5 34t23.5 84z" />
    <glyph glyph-name="circumflex" unicode="&#x2c6;" horiz-adv-x="480" 
d="M401 729q-18 -18 -30 -28.5t-33.5 -25.5t-46 -22t-52.5 -7q-88 0 -170 94q-3 3 -10.5 12t-11.5 13.5t-10 13.5t-9 15t-5.5 15t-2.5 17q0 32 25 55.5t60 23.5q31 0 67 -37q7 -7 19.5 -21t18.5 -20t14.5 -11.5t15.5 -5.5q4 0 8 1t8.5 4t8 6t10 9.5l11 11l13.5 13.5t15 16
q34 36 63 36q31 0 57.5 -24t26.5 -57q0 -37 -60 -97z" />
    <glyph glyph-name="caron" unicode="&#x2c7;" horiz-adv-x="480" 
d="M385 734q-17 -17 -27.5 -26t-29.5 -22.5t-41 -20t-48 -6.5q-80 0 -153 85q-2 2 -9.5 11t-10.5 12t-9 11.5t-8.5 14t-4.5 13.5t-2 15q0 29 22.5 50t53.5 21q29 0 61 -33q6 -7 17.5 -19.5t16.5 -18t13 -10t14 -4.5q4 0 7 0.5t6 2t6.5 5t7 6t8.5 7.5t9 9.5t10.5 11.5
t11.5 13q32 32 57 32q29 0 52.5 -21.5t23.5 -51.5q0 -34 -54 -87z" />
    <glyph glyph-name="uni02C9" unicode="&#x2c9;" horiz-adv-x="475" 
d="M34 691q0 44 27.5 64.5t69.5 20.5h208q55 0 77 -23t22 -64q0 -19 -7 -33.5t-19.5 -24.5t-29 -15t-35.5 -5h-202q-40 0 -63 6.5t-35.5 24t-12.5 49.5z" />
    <glyph glyph-name="breve" unicode="&#x2d8;" horiz-adv-x="480" 
d="M239 765q34 0 34 47q0 48 72 48q81 0 81 -67q0 -145 -187 -145q-41 0 -73.5 7t-58.5 23t-40 45t-14 70q0 67 82 67q72 0 72 -48q0 -24 7 -35.5t25 -11.5z" />
    <glyph glyph-name="dotaccent" unicode="&#x2d9;" horiz-adv-x="240" 
d="M20 136q0 34 28.5 55t79.5 21q110 0 110 -76q0 -42 -28 -59t-82 -17q-29 0 -52.5 7t-39.5 24.5t-16 44.5z" />
    <glyph glyph-name="ring" unicode="&#x2da;" horiz-adv-x="366" 
d="M213 789.5q0 20.5 -8 36.5t-22 16q-15 0 -24 -16t-9 -36.5t8.5 -36t24 -15.5t23 15.5t7.5 36zM182 653q-70 0 -117 36.5t-47 98.5q0 65 46 102.5t118 37.5q47 0 84 -16.5t58 -48.5t21 -75q0 -42 -22 -73t-58.5 -46.5t-82.5 -15.5z" />
    <glyph glyph-name="ogonek" unicode="&#x2db;" horiz-adv-x="291" 
d="M103 70h104q-12 -23 -21.5 -52.5t-14 -51.5t-4.5 -34q0 -16 8.5 -27t20.5 -11q13 0 32 15.5t35 15.5q20 0 39.5 -21t19.5 -43q0 -19 -11 -37q-20 -35 -65 -52.5t-84 -17.5q-60 0 -104 36t-44 94q0 45 24.5 95t64.5 91z" />
    <glyph glyph-name="tilde" unicode="&#x2dc;" horiz-adv-x="475" 
d="M180 547q0 -25 -20.5 -42t-49.5 -17q-40 0 -54 20t-14 60q0 42 24.5 74t67.5 32q37 0 77.5 -14.5t62.5 -29.5l22 -15q0 25 20 42t50 17q40 0 54 -19.5t14 -58.5q0 -42 -24.5 -75t-67.5 -33q-36 0 -68 15t-55.5 29.5t-38.5 14.5z" />
    <glyph glyph-name="hungarumlaut" unicode="&#x2dd;" horiz-adv-x="749" 
d="M267 760q18 0 37.5 -10t34.5 -29t15 -40q0 -29 -29 -59l-84 -80q-2 -2 -7 -6l-7.5 -6t-7.5 -5.5t-9 -5.5t-9 -4t-10 -3t-11 -1q-21 0 -39 16.5t-18 37.5q0 5 1.5 10.5t4 12t5 11t7 13t6.5 12.5q26 51 44.5 80t38.5 43q18 13 37 13zM531 760q28 0 57.5 -24t29.5 -55
q0 -29 -29 -59l-84 -80q-1 -1 -8 -6.5t-9.5 -7.5t-9 -6t-10.5 -6t-10.5 -3.5t-13.5 -1.5q-21 0 -39 16.5t-18 37.5q0 5 1.5 10.5t4 12t5 11t7 13t6.5 12.5q26 51 44.5 80t38.5 43q18 13 37 13z" />
    <glyph glyph-name="gravecomb" unicode="&#x300;" horiz-adv-x="96" 
 />
    <glyph glyph-name="acutecomb" unicode="&#x301;" horiz-adv-x="371" 
 />
    <glyph glyph-name="uni0302" unicode="&#x302;" horiz-adv-x="478" 
 />
    <glyph glyph-name="tildecomb" unicode="&#x303;" horiz-adv-x="475" 
 />
    <glyph glyph-name="uni0304" unicode="&#x304;" horiz-adv-x="403" 
d="M20 599q0 40 25 58.5t63 18.5h187q49 0 69 -21t20 -58q0 -32 -23 -51t-59 -19l-182 1q-53 0 -76.5 15t-23.5 56z" />
    <glyph glyph-name="uni0306" unicode="&#x306;" horiz-adv-x="96" 
 />
    <glyph glyph-name="uni0307" unicode="&#x307;" horiz-adv-x="96" 
 />
    <glyph glyph-name="uni0308" unicode="&#x308;" horiz-adv-x="452" 
d="M241 804q0 32 27 52.5t77 20.5q105 0 105 -73q0 -41 -27 -57t-78 -16q-45 0 -74.5 17.5t-29.5 55.5zM0 804q0 32 27 52.5t77 20.5q105 0 105 -73q0 -41 -26.5 -57t-78.5 -16q-45 0 -74.5 17.5t-29.5 55.5z" />
    <glyph glyph-name="uni030A" unicode="&#x30a;" horiz-adv-x="96" 
 />
    <glyph glyph-name="uni030B" unicode="&#x30b;" horiz-adv-x="587" 
 />
    <glyph glyph-name="uni0310" unicode="&#x310;" horiz-adv-x="96" 
 />
    <glyph glyph-name="uni0323" unicode="&#x323;" horiz-adv-x="96" 
 />
    <glyph glyph-name="uni0324" unicode="&#x324;" horiz-adv-x="96" 
 />
    <glyph glyph-name="uni0325" unicode="&#x325;" horiz-adv-x="96" 
 />
    <glyph glyph-name="uni0327" unicode="&#x327;" horiz-adv-x="96" 
 />
    <glyph glyph-name="uni0328" unicode="&#x328;" horiz-adv-x="96" 
 />
    <glyph glyph-name="uni032E" unicode="&#x32e;" horiz-adv-x="96" 
 />
    <glyph glyph-name="uni0331" unicode="&#x331;" horiz-adv-x="96" 
 />
    <glyph glyph-name="uni035F" unicode="&#x35f;" horiz-adv-x="96" 
 />
    <glyph glyph-name="mugreek" unicode="&#x3bc;" horiz-adv-x="625" 
d="M265 211q0 -57 44 -57q22 0 36 21t14 54v134q0 34 12 59.5t35 39.5t54 14q54 0 84 -23.5t30 -86.5v-260q0 -61 -25 -84t-88 -23q-76 0 -94 51q-48 -36 -103 -51v-87q0 -63 -22 -90.5t-83 -27.5q-55 0 -79 45t-28 145q-6 162 -6 276v53t1.5 44t4.5 38.5t8.5 29.5t14 24
t20 15.5t27.5 10.5t37 3q56 0 80.5 -21t24.5 -63q0 -35 0.5 -99t0.5 -84z" />
    <glyph glyph-name="pi" unicode="&#x3c0;" horiz-adv-x="853" 
d="M569 221q0 -32 6 -42.5t23 -10.5q11 0 19.5 8.5t13 19t12 19t17.5 8.5q22 0 34.5 -11t12.5 -27q0 -27 -10.5 -58t-30.5 -60t-55 -48t-79 -19q-99 0 -140 49.5t-41 164.5v160l-92 -1v-257q0 -63 -26 -89.5t-90 -26.5q-60 0 -81.5 28t-21.5 92v262q0 53 34.5 86.5
t83.5 33.5h452q39 0 57 -15t18 -51q0 -24 -10 -38t-26.5 -19t-43.5 -5h-36v-153z" />
    <glyph glyph-name="uni0964" unicode="&#x964;" horiz-adv-x="140" 
d="M23 1052q0 38 11 52.5t38 14.5q25 0 35.5 -18t10.5 -58v-1103q0 -51 -50 -51q-45 0 -45 57v1106z" />
    <glyph glyph-name="uni0965" unicode="&#x965;" horiz-adv-x="298" 
d="M23 1052q0 38 11 52.5t38 14.5q25 0 35.5 -18t10.5 -58v-1103q0 -51 -50 -51q-45 0 -45 57v1106zM181 1052q0 38 11 52.5t37 14.5q9 0 16 -2t12 -6.5t8.5 -10.5t6 -14.5t3.5 -19t1 -23.5v-1103q0 -51 -50 -51q-45 0 -45 57v1106z" />
    <glyph glyph-name="uni0B82" unicode="&#xb82;" horiz-adv-x="0" 
d="M1 519q-68 0 -116.5 38.5t-48.5 101.5t47 99t118 36q69 0 116 -38t47 -102q0 -62 -47.5 -98.5t-115.5 -36.5zM30 655q0 21 -7.5 35.5t-21.5 14.5q-10 0 -17 -7.5t-10.5 -18.5t-3.5 -24q0 -20 8 -34t23 -14q29 0 29 48z" />
    <glyph glyph-name="uni0B83" unicode="&#xb83;" horiz-adv-x="779" 
d="M388 679q-67 0 -116 38.5t-49 101.5t47.5 99t117.5 36q45 0 82 -16.5t59.5 -48.5t22.5 -75q0 -62 -48 -98.5t-116 -36.5zM418 815q0 21 -7.5 35.5t-21.5 14.5q-15 0 -23 -14.5t-8 -35t8 -34.5t23 -14q29 0 29 48zM202 409q-67 0 -116 38.5t-49 101.5t47.5 99t117.5 36
t117 -38t47 -102q0 -62 -48 -98.5t-116 -36.5zM232 545q0 21 -7.5 35.5t-21.5 14.5q-15 0 -23 -14.5t-8 -35t8 -34.5t23 -14q29 0 29 48zM578 409q-67 0 -116 38.5t-49 101.5t47.5 99t117.5 36q45 0 82 -16.5t59.5 -48.5t22.5 -75q0 -62 -48 -98.5t-116 -36.5zM608 545
q0 21 -7.5 35.5t-21.5 14.5q-15 0 -23 -14.5t-8 -35t8 -34.5t23 -14q29 0 29 48z" />
    <glyph glyph-name="uni0B85" unicode="&#xb85;" horiz-adv-x="1546" 
d="M488 367q0 23 -8 39t-24 16t-25.5 -16.5t-9.5 -39t9 -38t26 -15.5q11 0 18.5 8t10.5 19.5t3 26.5zM623 37h-323q0 -39 45 -61.5t100 -22.5q134 0 178 84zM972 37h-84q-27 -128 -143 -201.5t-299 -73.5q-165 0 -265 65t-100 171q0 88 62 126.5t179 38.5h349q8 33 8 66
q0 65 -43 118q-5 -41 -31.5 -71.5t-65 -45.5t-84.5 -15q-75 0 -129 43t-54 113q0 67 49.5 107t123.5 43q7 1 13.5 1h19.5q109 0 191.5 -29t131.5 -80t73 -114t24 -136h74v239q0 62 29.5 91t79.5 29q55 0 82.5 -22t27.5 -89v-481q0 -55 -13 -88.5t-36.5 -47.5t-60.5 -14
q-28 0 -47.5 7t-33.5 23t-21 44t-7 69v114z" />
    <glyph glyph-name="uni0B86" unicode="&#xb86;" horiz-adv-x="1546" 
d="M488 367q0 23 -8 39t-24 16t-25.5 -16.5t-9.5 -39t9 -38t26 -15.5q11 0 18.5 8t10.5 19.5t3 26.5zM623 37h-323q0 -39 45 -61.5t100 -22.5q134 0 178 84zM1191 -84q-2 -71 -29 -103t-81 -32q-56 0 -82 31.5t-26 111.5v113h-85q-27 -128 -143 -201.5t-299 -73.5
q-165 0 -265 65t-100 171q0 88 62 126.5t179 38.5h349q8 33 8 66q0 65 -43 118q-5 -41 -31.5 -71.5t-65 -45.5t-84.5 -15q-75 0 -129 43t-54 113q0 67 49.5 107t123.5 43q10 1 33 1q109 0 191.5 -29t131.5 -80t73 -114t24 -136h74v241q0 61 29.5 90.5t79.5 29.5
q55 0 82.5 -22t27.5 -89v-287q15 3 29.5 4.5t27.5 1.5q113 0 180.5 -74t67.5 -203q0 -148 -104 -234.5t-280 -86.5q-68 0 -130.5 25t-101.5 60.5t-62.5 71t-23.5 60.5q0 10 3 18t8 14t12.5 9.5t17.5 3.5q12 0 37 -16t52 -35.5t72 -36t92 -16.5q66 0 121 46t55 128
q0 10 -1.5 20t-4.5 21.5t-8.5 21.5t-13 18.5t-19.5 14t-26 6.5v-52z" />
    <glyph glyph-name="uni0B87" unicode="&#xb87;" horiz-adv-x="1397" 
d="M559 276q-75 0 -129 43t-54 113t52.5 110t130.5 40h10q87 -1 153 -15.5t108.5 -39t69 -61t37 -76.5t10.5 -88q0 -54 -29 -124q134 -56 134 -185q0 -45 -17.5 -82.5t-46 -62.5t-66.5 -42.5t-78 -25.5t-81 -8q-101 0 -205 42q-100 -42 -207 -42q-65 0 -119.5 13t-90 34
t-60 49t-35.5 58t-11 61q0 67 33.5 107t98.5 71q-71 129 -71 248q0 173 135.5 270t406.5 97q139 0 249.5 -26t187.5 -73.5t128.5 -116.5t75 -153.5t23.5 -186.5v-278q0 -81 -24 -115.5t-73 -34.5t-72 31.5t-23 110.5v283q0 101 -27 176t-86 130.5t-159 84t-242 28.5
q-99 0 -168.5 -24t-106.5 -72t-37 -118q0 -93 64 -204q100 13 210 13q95 0 177 -11q29 66 29 121q0 38 -23 66q-7 -63 -59 -99t-123 -36zM592 428q0 23 -8 39t-24 16t-25.5 -16.5t-9.5 -39t9 -38t26 -15.5q11 0 18.5 8t10.5 19.5t3 26.5zM394 -93q-82 62 -148 142
q-45 -26 -45 -57q0 -30 45 -58.5t105 -28.5q22 0 43 2zM669 106q-53 5 -109 5q-57 0 -116 -5q54 -65 115 -119q61 55 110 119zM841 44q-56 -77 -127 -135q21 -3 43 -3q32 0 59 12t43 32t16 44q0 27 -34 50z" />
    <glyph glyph-name="uni0B88" unicode="&#xb88;" horiz-adv-x="1158" 
d="M307 151q0 -81 -27 -115.5t-82 -34.5q-57 0 -82.5 28t-25.5 107v296q0 70 87 70h867q54 0 74 -14.5t20 -53.5q0 -34 -22 -45.5t-83 -11.5h-183v-226q0 -81 -27 -115.5t-83 -34.5t-82.5 31.5t-26.5 110.5v234h-324v-226zM355 210q0 33 28.5 54.5t80.5 21.5q109 0 109 -76
q0 -42 -27.5 -59t-81.5 -17q-47 0 -78 18t-31 58zM894 210q0 34 28 55t80 21q109 0 109 -76q0 -42 -27.5 -59t-81.5 -17q-47 0 -77.5 18t-30.5 58z" />
    <glyph glyph-name="uni0B89" unicode="&#xb89;" horiz-adv-x="1095" 
d="M234 210q-75 0 -129 43t-54 113q0 60 39.5 98t101.5 49q57 9 112 9q281 0 364 -120q32 -46 32 -104q0 -112 -95 -172h395q41 0 60.5 -13t19.5 -49t-17.5 -50.5t-61.5 -14.5h-868q-81 0 -81 65q0 34 23 48t68 14q153 0 234 39.5t81 112.5q0 49 -42 87v-4q0 -70 -53 -110.5
t-129 -40.5zM267 362q0 23 -8 39t-24 16t-25.5 -16.5t-9.5 -39t9 -38t25.5 -15.5t24.5 15.5t8 38.5z" />
    </font>
</defs>
</svg>
