<svg xmlns="http://www.w3.org/2000/svg" width="21" height="17" viewBox="0 0 21 17">
    <g fill="none" fill-rule="evenodd">
        <g fill="#26343F">
            <g>
                <path d="M21 1.894c-.774.322-1.604.538-2.476.636.89-.5 1.574-1.292 1.895-2.234-.831.462-1.756.798-2.737.98C16.897.488 15.777 0 14.538 0c-2.38 0-4.309 1.808-4.309 4.039 0 .316.04.624.113.92-3.581-.168-6.754-1.776-8.88-4.22-.372.598-.583 1.291-.583 2.03 0 1.402.76 2.638 1.916 3.364-.707-.021-1.371-.204-1.952-.506v.05c0 1.959 1.486 3.59 3.455 3.963-.36.092-.742.14-1.134.14-.279 0-.549-.024-.812-.073.55 1.604 2.14 2.774 4.024 2.807-1.473 1.083-3.33 1.727-5.35 1.727-.348 0-.69-.018-1.026-.056C1.905 15.333 4.17 16 6.604 16c7.925 0 12.259-6.155 12.259-11.492 0-.175-.005-.351-.012-.523.841-.57 1.571-1.281 2.149-2.091z" transform="translate(-1043 -732) translate(1043 732.5)"/>
            </g>
        </g>
    </g>
</svg>
