<svg xmlns="http://www.w3.org/2000/svg" width="19" height="19" viewBox="0 0 19 19">
    <g fill="none" fill-rule="evenodd">
        <g fill="#26343F">
            <g>
                <path d="M4.071 0L5.43 4.154v2.77h.904v-2.77L7.69 0h-.904L5.88 2.77 4.976 0h-.905zm4.977 1.846c-.483 0-.72.078-1.015.325-.282.243-.36.43-.343 1.06v2.307c0 .46.075.763.347 1.032.283.268.55.353 1.01.353.483 0 .746-.085 1.018-.353.283-.258.34-.572.34-1.032V3.231c0-.408-.07-.793-.345-1.051-.283-.265-.574-.334-1.012-.334zm2.262 0V6c0 .449.443.923.904.923.462 0 .705-.236.905-.461v.461h.905V1.846h-.905v3.692c-.005.316-.37.462-.452.462-.094 0-.453-.02-.453-.462V1.846h-.904zm-2.262.923c.136 0 .452-.002.452.462v2.307c0 .448-.306.462-.452.462-.136 0-.453-.005-.453-.462V3.231c0-.377.196-.462.453-.462zM2.714 7.846C1.09 7.846 0 8.946 0 10.616V15c0 1.67 1.089 3 2.714 3h13.572C17.91 18 19 16.9 19 15.23v-4.615c0-1.67-1.089-2.769-2.714-2.769H2.714zm.905 1.846h2.714v.923H5.43v5.539h-.905v-5.539h-.905v-.923zm6.333 0h.905v1.846c.104-.165.26-.297.408-.37.145-.077.292-.12.44-.12.294 0 .523.108.68.31.158.204.282.474.282.873V15c0 .343-.113.555-.262.737-.145.182-.362.413-.643.417-.475.005-.73-.254-.905-.462v.462h-.905V9.692zm-3.619 1.385h.905v3.692c0 .107.122.465.452.462.368-.004.372-.354.453-.462v-3.692h.905v5.077h-.905v-.462c-.168.202-.255.265-.444.36-.187.11-.378.102-.555.102-.219 0-.468-.202-.584-.354-.105-.138-.227-.28-.227-.57v-4.153zm8.233 0c.43 0 .732.094.96.339.233.245.307.532.307.993v1.437h-1.81v.714c0 .258.034.422.1.52.062.106.187.153.353.15.184-.001.3-.039.362-.124.064-.075.09-.29.09-.568v-.23h.905v.274c0 .503-.039.878-.282 1.123-.23.258-.589.377-1.059.377-.43 0-.765-.13-1.005-.397-.24-.267-.366-.633-.366-1.103v-2.173c0-.418.143-.728.406-1.004.212-.222.61-.328 1.04-.328zm-3.256.692c-.25 0-.45.23-.453.462V15c.004.133.203.23.453.23.249 0 .452-.196.452-.45v-2.318c0-.462-.203-.693-.452-.693zm3.166.231c-.249 0-.449.215-.452.462v.461h.905v-.461c0-.284-.204-.462-.453-.462z" transform="translate(-1081 -731) translate(1081 731.5)"/>
            </g>
        </g>
    </g>
</svg>
