<?xml version="1.0" encoding="UTF-8"?>
<svg width="86px" height="74px" viewBox="0 0 86 74" version="1.1" xmlns="http://www.w3.org/2000/svg" xmlns:xlink="http://www.w3.org/1999/xlink">
    <title>Group@3x</title>
    <g id="Current" stroke="none" stroke-width="1" fill="none" fill-rule="evenodd">
        <g id="CB-Study-Guide-landing---2021" transform="translate(-501.000000, -155.000000)">
            <g id="Group" transform="translate(501.184953, 155.000000)">
                <ellipse id="Oval-2-Copy" fill="#F0F1F2" cx="42.161442" cy="37" rx="42.161442" ry="37"></ellipse>
                <g id="icons8-study-copy" transform="translate(19.161442, 20.000000)" fill="#596470" fill-rule="nonzero">
                    <path d="M2.75675676,0 C1.24556611,0 0,1.24556611 0,2.75675676 L0,30.3243243 C0,31.835515 1.24556611,33.0810811 2.75675676,33.0810811 L20.9341216,33.0810811 C21.4402447,33.6410473 22.1617403,34 22.972973,34 C23.7842065,34 24.5057012,33.6410473 25.0118243,33.0810811 L43.1891892,33.0810811 C44.7003798,33.0810811 45.9459459,31.835515 45.9459459,30.3243243 L45.9459459,2.75675676 C45.9459459,1.24556611 44.7003798,0 43.1891892,0 L24.8108108,0 C24.1072635,0 23.4611486,0.276393351 22.972973,0.717905405 C22.4847973,0.276393351 21.8386824,0 21.1351351,0 L2.75675676,0 Z M2.75675676,1.83783784 L21.1351351,1.83783784 C21.6556163,1.83783784 22.0540541,2.23627557 22.0540541,2.75675676 L22.0540541,31.2432432 L2.75675676,31.2432432 C2.23627557,31.2432432 1.83783784,30.8448055 1.83783784,30.3243243 L1.83783784,2.75675676 C1.83783784,2.23627557 2.23627557,1.83783784 2.75675676,1.83783784 Z M24.8108108,1.83783784 L43.1891892,1.83783784 C43.7096704,1.83783784 44.1081081,2.23627557 44.1081081,2.75675676 L44.1081081,30.3243243 C44.1081081,30.8448055 43.7096704,31.2432432 43.1891892,31.2432432 L23.8918919,31.2432432 L23.8918919,2.75675676 C23.8918919,2.23627557 24.2903296,1.83783784 24.8108108,1.83783784 Z M5.25506757,6.43243243 C4.74894449,6.50422297 4.39358108,6.97445124 4.46537162,7.48057432 C4.53716216,7.98669741 5.00739043,8.34206081 5.51351351,8.27027027 L12.8648649,8.27027027 C13.1951014,8.27385957 13.5038011,8.10156227 13.6725082,7.81440011 C13.8376269,7.52723795 13.8376269,7.17546476 13.6725082,6.88830259 C13.5038011,6.60114043 13.1951014,6.42884314 12.8648649,6.43243243 L5.51351351,6.43243243 C5.4847973,6.43243243 5.45608108,6.43243243 5.42736486,6.43243243 C5.39864865,6.43243243 5.36993243,6.43243243 5.34121622,6.43243243 C5.3125,6.43243243 5.28378378,6.43243243 5.25506757,6.43243243 Z M16.5405405,6.43243243 C16.0344175,6.43243243 15.6216216,6.84522827 15.6216216,7.35135135 C15.6216216,7.85747443 16.0344175,8.27027027 16.5405405,8.27027027 C17.0466636,8.27027027 17.4594595,7.85747443 17.4594595,7.35135135 C17.4594595,6.84522827 17.0466636,6.43243243 16.5405405,6.43243243 Z M19.2972973,6.43243243 C18.7911742,6.43243243 18.3783784,6.84522827 18.3783784,7.35135135 C18.3783784,7.85747443 18.7911742,8.27027027 19.2972973,8.27027027 C19.8034204,8.27027027 20.2162162,7.85747443 20.2162162,7.35135135 C20.2162162,6.84522827 19.8034204,6.43243243 19.2972973,6.43243243 Z M27.3091216,6.43243243 C26.8029985,6.50422297 26.4476351,6.97445124 26.5194257,7.48057432 C26.5912162,7.98669741 27.0614445,8.34206081 27.5675676,8.27027027 L34.9189189,8.27027027 C35.2491554,8.27385957 35.5578552,8.10156227 35.7265623,7.81440011 C35.891681,7.52723795 35.891681,7.17546476 35.7265623,6.88830259 C35.5578552,6.60114043 35.2491554,6.42884314 34.9189189,6.43243243 L27.5675676,6.43243243 C27.5388514,6.43243243 27.5101351,6.43243243 27.4814189,6.43243243 C27.4527027,6.43243243 27.4239865,6.43243243 27.3952703,6.43243243 C27.3665541,6.43243243 27.3378378,6.43243243 27.3091216,6.43243243 Z M38.5945946,6.43243243 C38.0884715,6.43243243 37.6756757,6.84522827 37.6756757,7.35135135 C37.6756757,7.85747443 38.0884715,8.27027027 38.5945946,8.27027027 C39.1007177,8.27027027 39.5135135,7.85747443 39.5135135,7.35135135 C39.5135135,6.84522827 39.1007177,6.43243243 38.5945946,6.43243243 Z M41.3513514,6.43243243 C40.8452283,6.43243243 40.4324324,6.84522827 40.4324324,7.35135135 C40.4324324,7.85747443 40.8452283,8.27027027 41.3513514,8.27027027 C41.8574744,8.27027027 42.2702703,7.85747443 42.2702703,7.35135135 C42.2702703,6.84522827 41.8574744,6.43243243 41.3513514,6.43243243 Z M5.25506757,11.027027 C4.74894449,11.0988176 4.39358108,11.5690458 4.46537162,12.0751689 C4.53716216,12.581292 5.00739043,12.9366554 5.51351351,12.8648649 L12.8648649,12.8648649 C13.1951014,12.8684542 13.5038011,12.6961569 13.6725082,12.4089947 C13.8376269,12.1218325 13.8376269,11.7700594 13.6725082,11.4828972 C13.5038011,11.195735 13.1951014,11.0234377 12.8648649,11.027027 L5.51351351,11.027027 C5.4847973,11.027027 5.45608108,11.027027 5.42736486,11.027027 C5.39864865,11.027027 5.36993243,11.027027 5.34121622,11.027027 C5.3125,11.027027 5.28378378,11.027027 5.25506757,11.027027 Z M16.5405405,11.027027 C16.0344175,11.027027 15.6216216,11.4398229 15.6216216,11.9459459 C15.6216216,12.452069 16.0344175,12.8648649 16.5405405,12.8648649 C17.0466636,12.8648649 17.4594595,12.452069 17.4594595,11.9459459 C17.4594595,11.4398229 17.0466636,11.027027 16.5405405,11.027027 Z M19.2972973,11.027027 C18.7911742,11.027027 18.3783784,11.4398229 18.3783784,11.9459459 C18.3783784,12.452069 18.7911742,12.8648649 19.2972973,12.8648649 C19.8034204,12.8648649 20.2162162,12.452069 20.2162162,11.9459459 C20.2162162,11.4398229 19.8034204,11.027027 19.2972973,11.027027 Z M27.3091216,11.027027 C26.8029985,11.0988176 26.4476351,11.5690458 26.5194257,12.0751689 C26.5912162,12.581292 27.0614445,12.9366554 27.5675676,12.8648649 L34.9189189,12.8648649 C35.2491554,12.8684542 35.5578552,12.6961569 35.7265623,12.4089947 C35.891681,12.1218325 35.891681,11.7700594 35.7265623,11.4828972 C35.5578552,11.195735 35.2491554,11.0234377 34.9189189,11.027027 L27.5675676,11.027027 C27.5388514,11.027027 27.5101351,11.027027 27.4814189,11.027027 C27.4527027,11.027027 27.4239865,11.027027 27.3952703,11.027027 C27.3665541,11.027027 27.3378378,11.027027 27.3091216,11.027027 Z M38.5945946,11.027027 C38.0884715,11.027027 37.6756757,11.4398229 37.6756757,11.9459459 C37.6756757,12.452069 38.0884715,12.8648649 38.5945946,12.8648649 C39.1007177,12.8648649 39.5135135,12.452069 39.5135135,11.9459459 C39.5135135,11.4398229 39.1007177,11.027027 38.5945946,11.027027 Z M41.3513514,11.027027 C40.8452283,11.027027 40.4324324,11.4398229 40.4324324,11.9459459 C40.4324324,12.452069 40.8452283,12.8648649 41.3513514,12.8648649 C41.8574744,12.8648649 42.2702703,12.452069 42.2702703,11.9459459 C42.2702703,11.4398229 41.8574744,11.027027 41.3513514,11.027027 Z M5.25506757,15.6216216 C4.74894449,15.6934122 4.39358108,16.1636404 4.46537162,16.6697635 C4.53716216,17.1758866 5.00739043,17.53125 5.51351351,17.4594595 L12.8648649,17.4594595 C13.1951014,17.4630488 13.5038011,17.2907515 13.6725082,17.0035893 C13.8376269,16.7164271 13.8376269,16.3646539 13.6725082,16.0774918 C13.5038011,15.7903296 13.1951014,15.6180323 12.8648649,15.6216216 L5.51351351,15.6216216 C5.4847973,15.6216216 5.45608108,15.6216216 5.42736486,15.6216216 C5.39864865,15.6216216 5.36993243,15.6216216 5.34121622,15.6216216 C5.3125,15.6216216 5.28378378,15.6216216 5.25506757,15.6216216 Z M19.2972973,15.6216216 C18.7911742,15.6216216 18.3783784,16.0344175 18.3783784,16.5405405 C18.3783784,17.0466636 18.7911742,17.4594595 19.2972973,17.4594595 C19.8034204,17.4594595 20.2162162,17.0466636 20.2162162,16.5405405 C20.2162162,16.0344175 19.8034204,15.6216216 19.2972973,15.6216216 Z M27.3091216,15.6216216 C26.8029985,15.6934122 26.4476351,16.1636404 26.5194257,16.6697635 C26.5912162,17.1758866 27.0614445,17.53125 27.5675676,17.4594595 L34.9189189,17.4594595 C35.2491554,17.4630488 35.5578552,17.2907515 35.7265623,17.0035893 C35.891681,16.7164271 35.891681,16.3646539 35.7265623,16.0774918 C35.5578552,15.7903296 35.2491554,15.6180323 34.9189189,15.6216216 L27.5675676,15.6216216 C27.5388514,15.6216216 27.5101351,15.6216216 27.4814189,15.6216216 C27.4527027,15.6216216 27.4239865,15.6216216 27.3952703,15.6216216 C27.3665541,15.6216216 27.3378378,15.6216216 27.3091216,15.6216216 Z M41.3513514,15.6216216 C40.8452283,15.6216216 40.4324324,16.0344175 40.4324324,16.5405405 C40.4324324,17.0466636 40.8452283,17.4594595 41.3513514,17.4594595 C41.8574744,17.4594595 42.2702703,17.0466636 42.2702703,16.5405405 C42.2702703,16.0344175 41.8574744,15.6216216 41.3513514,15.6216216 Z M5.25506757,20.2162162 C4.74894449,20.2880068 4.39358108,20.758235 4.46537162,21.2643581 C4.53716216,21.7704812 5.00739043,22.1258446 5.51351351,22.0540541 L12.8648649,22.0540541 C13.1951014,22.0576434 13.5038011,21.8853461 13.6725082,21.5981839 C13.8376269,21.3110217 13.8376269,20.9592485 13.6725082,20.6720864 C13.5038011,20.3849242 13.1951014,20.2126269 12.8648649,20.2162162 L5.51351351,20.2162162 C5.4847973,20.2162162 5.45608108,20.2162162 5.42736486,20.2162162 C5.39864865,20.2162162 5.36993243,20.2162162 5.34121622,20.2162162 C5.3125,20.2162162 5.28378378,20.2162162 5.25506757,20.2162162 Z M16.5405405,20.2162162 C16.0344175,20.2162162 15.6216216,20.6290121 15.6216216,21.1351351 C15.6216216,21.6412582 16.0344175,22.0540541 16.5405405,22.0540541 C17.0466636,22.0540541 17.4594595,21.6412582 17.4594595,21.1351351 C17.4594595,20.6290121 17.0466636,20.2162162 16.5405405,20.2162162 Z M19.2972973,20.2162162 C18.7911742,20.2162162 18.3783784,20.6290121 18.3783784,21.1351351 C18.3783784,21.6412582 18.7911742,22.0540541 19.2972973,22.0540541 C19.8034204,22.0540541 20.2162162,21.6412582 20.2162162,21.1351351 C20.2162162,20.6290121 19.8034204,20.2162162 19.2972973,20.2162162 Z M5.25506757,24.8108108 C4.74894449,24.8826014 4.39358108,25.3528296 4.46537162,25.8589527 C4.53716216,26.3650758 5.00739043,26.7204392 5.51351351,26.6486486 L12.8648649,26.6486486 C13.1951014,26.6522379 13.5038011,26.4799406 13.6725082,26.1927785 C13.8376269,25.9056163 13.8376269,25.5538431 13.6725082,25.266681 C13.5038011,24.9795188 13.1951014,24.8072215 12.8648649,24.8108108 L5.51351351,24.8108108 C5.4847973,24.8108108 5.45608108,24.8108108 5.42736486,24.8108108 C5.39864865,24.8108108 5.36993243,24.8108108 5.34121622,24.8108108 C5.3125,24.8108108 5.28378378,24.8108108 5.25506757,24.8108108 Z M19.2972973,24.8108108 C18.7911742,24.8108108 18.3783784,25.2236066 18.3783784,25.7297297 C18.3783784,26.2358528 18.7911742,26.6486486 19.2972973,26.6486486 C19.8034204,26.6486486 20.2162162,26.2358528 20.2162162,25.7297297 C20.2162162,25.2236066 19.8034204,24.8108108 19.2972973,24.8108108 Z" id="Shape"></path>
                </g>
            </g>
        </g>
    </g>
</svg>