<?xml version="1.0" encoding="UTF-8"?>
<svg width="17px" height="17px" viewBox="0 0 17 17" version="1.1" xmlns="http://www.w3.org/2000/svg" xmlns:xlink="http://www.w3.org/1999/xlink">
    <title>Shape</title>
    <g id="Phase-2" stroke="none" stroke-width="1" fill="none" fill-rule="evenodd">
        <g id="Friends-of-CB---B---Phase-2" transform="translate(-1185.000000, -733.000000)" fill="#26343F" fill-rule="nonzero">
            <path d="M1200.45455,733 L1186.54545,733 C1185.69159,733 1185,733.691591 1185,734.545455 L1185,748.454545 C1185,749.308409 1185.69159,750 1186.54545,750 L1200.45455,750 C1201.30841,750 1202,749.308409 1202,748.454545 L1202,734.545455 C1202,733.691591 1201.30841,733 1200.45455,733 Z M1190.37355,746.909091 L1188.094,746.909091 L1188.094,739.574364 L1190.37355,739.574364 L1190.37355,746.909091 Z M1189.21059,738.525773 C1188.47573,738.525773 1187.8815,737.93 1187.8815,737.196682 C1187.8815,736.463364 1188.4765,735.868364 1189.21059,735.868364 C1189.94314,735.868364 1190.53891,736.464136 1190.53891,737.196682 C1190.53891,737.93 1189.94314,738.525773 1189.21059,738.525773 Z M1198.91218,746.909091 L1196.63418,746.909091 L1196.63418,743.342182 C1196.63418,742.491409 1196.61873,741.397227 1195.44959,741.397227 C1194.26345,741.397227 1194.08109,742.323727 1194.08109,743.280364 L1194.08109,746.909091 L1191.80309,746.909091 L1191.80309,739.574364 L1193.98991,739.574364 L1193.98991,740.576591 L1194.02082,740.576591 C1194.32527,740.000136 1195.06864,739.392 1196.1775,739.392 C1198.48564,739.392 1198.91218,740.911182 1198.91218,742.886273 L1198.91218,746.909091 L1198.91218,746.909091 Z" id="Shape"></path>
        </g>
    </g>
</svg>