<svg xmlns="http://www.w3.org/2000/svg" width="17" height="18" viewBox="0 0 17 18">
    <g fill="none" fill-rule="evenodd">
        <g fill="#26343F" fill-rule="nonzero">
            <g>
                <path d="M5.023 0C2.253 0 0 2.252 0 5.023v6.954C0 14.747 2.252 17 5.023 17h6.954C14.747 17 17 14.748 17 11.977V5.023C17 2.253 14.748 0 11.977 0H5.023zm8.113 3.09c.425 0 .773.349.773.774 0 .425-.348.772-.773.772-.425 0-.772-.347-.772-.772 0-.425.347-.773.772-.773zM8.5 4.25c2.345 0 4.25 1.905 4.25 4.25 0 2.345-1.905 4.25-4.25 4.25-2.345 0-4.25-1.905-4.25-4.25 0-2.345 1.905-4.25 4.25-4.25zm0 .773c-1.916 0-3.477 1.56-3.477 3.477 0 1.916 1.56 3.477 3.477 3.477 1.916 0 3.477-1.56 3.477-3.477 0-1.916-1.56-3.477-3.477-3.477z" transform="translate(-1117 -732) translate(1117 732.5)"/>
            </g>
        </g>
    </g>
</svg>
