<svg xmlns="http://www.w3.org/2000/svg" width="17" height="18" viewBox="0 0 17 18">
    <g fill="none" fill-rule="evenodd">
        <g fill="#26343F" fill-rule="nonzero">
            <g>
                <path d="M14.976 0H2.024C.907 0 0 .907 0 2.024v12.952C0 16.093.907 17 2.024 17h12.952C16.093 17 17 16.093 17 14.976V2.024C17 .907 16.093 0 14.976 0zm-1.619 6.071h-.81c-.866 0-1.214.203-1.214.81v1.214h2.024l-.405 2.024h-1.619v6.071H9.31V10.12H7.69V8.095h1.62V6.881c0-1.62.809-2.833 2.428-2.833 1.174 0 1.62.404 1.62.404v1.62z" transform="translate(-1151 -732) translate(1151 732.5)"/>
            </g>
        </g>
    </g>
</svg>
