<svg xmlns="http://www.w3.org/2000/svg" xmlns:xlink="http://www.w3.org/1999/xlink" width="89" height="234" viewBox="0 0 89 234">
    <defs>
        <linearGradient id="90b3ogoi1b" x1="59.761%" x2="12.021%" y1="65.224%" y2="16.112%">
            <stop offset="0%" stop-color="#AD6B30"/>
            <stop offset="100%" stop-color="#A6542A"/>
        </linearGradient>
        <linearGradient id="e6yrjgkdhe" x1="99.542%" x2="21.015%" y1="22.097%" y2="49.882%">
            <stop offset="0%" stop-color="#F88E88"/>
            <stop offset="100%" stop-color="#F4BE9D"/>
        </linearGradient>
        <linearGradient id="f7yvrpguah" x1="-.001%" x2="99.999%" y1="50%" y2="50%">
            <stop offset="0%" stop-color="#AD6B30"/>
            <stop offset="100%" stop-color="#A6542A"/>
        </linearGradient>
        <path id="zboc5apmja" d="M12.399 56.487S.224 40.527.576 30.842c.097-2.686 8.866-3.232 9.891-5.33 1.2-2.455-7.56-6.544-7.56-6.544s8.24-2.353 12.567-.012c0 0-.555-4.005-1.916-6.255-1.414-2.336-3.306-5.346-3.306-5.346s8.403 1.949 11.597 7.443c0 0 1.215-4.953.268-8.217C20.91 2.42 18.602 0 18.602 0s10.83 2.355 13.602 12.238c0 0 3.346-4.387-.93-12.238 0 0 12.417.99 18.276 13.65 0 0 1.377-1.06 1.692-4.112.332-3.227-.695-5.558-.695-5.558S67.45 16.145 69.52 29.592c0 0 2.164-5.321 2.112-8.746 0 0 7.843 9.727 2.104 21.522-2.088 4.292-9.575-1.768-16.187-6.379-4.652-3.244-15.234-9.253-21.717-6.397-5.433 2.393-14.927 9.728-13.127 19.922l-3.997-1.644c-1.54-2.358-9.11-5.06-6.308 8.617"/>
        <path id="tqnsmu8gpd" d="M8.995.333S2.225 1.43.474.6l2.935 6.424S8.62 4.388 8.995.333"/>
        <path id="s0tg3o6ycg" d="M.337 3.603S3.338-1.074 13.343.233c9.19 1.199 12.015 6.162 12.015 8.333 0 0-1.501 1.861-5.143-3.257 0 0 .845 4.415-1.603 3.4-1.562-.649-2.034-3.474-1.761-4.29 0 0-.428 3.499-2.39 2.879-1.964-.621-3.065-2.305-2.203-3.772 0 0-2.163 3.358-4.59 2.17C5.24 4.512 7.08 3.062 7.08 3.062 4.335 4.3-.134 4.92.337 3.603"/>
    </defs>
    <g fill="none" fill-rule="evenodd">
        <g>
            <g>
                <path fill="#362921" d="M56 228.281s-6.045-5.542-15.405-7.033l-10.3-.354L29 227.926s21.458 1.918 27 .355" transform="translate(-1132 -1834) matrix(-1 0 0 1 1221 1834.106)"/>
                <path fill="#734D3A" d="M47 232.28s-6.044-5.54-15.405-7.031l-10.3-.355L20 231.926s21.457 1.918 27 .355" transform="translate(-1132 -1834) matrix(-1 0 0 1 1221 1834.106)"/>
                <path fill="#707F94" d="M48 154.113s-9.038 50.678-8.052 66.526c0 0-2.854 1.565-5.806 1.81l-.024 1.543c-3.64 1.553-8.59 2.738-13.67 1.148 0 0-3.77-60.657.857-70.938 3.326-7.39 26.695-.089 26.695-.089" transform="translate(-1132 -1834) matrix(-1 0 0 1 1221 1834.106)"/>
                <path fill="#566F89" d="M19 190.894c.07 4.006.179 7.983.306 11.74 3.05.598 12.79 2.208 21.617.492.31-2.966.676-6.07 1.077-9.215l-23-3.017" transform="translate(-1132 -1834) matrix(-1 0 0 1 1221 1834.106)"/>
                <path fill="#384A62" d="M42 166.894s-7.502 43.192-7.116 55.886l-.884.114s4.332-43.883 8-56M20.975 153.059c1.972-4.235 11.046-3.427 18.025-2.1l-2.726 8.482-1.713-.368-.478.821L20 156.474c.276-1.423.594-2.6.975-3.415" transform="translate(-1132 -1834) matrix(-1 0 0 1 1221 1834.106)"/>
                <path fill="#384A62" d="M23.361 166.85c-1.084.323-4.361-1.207-4.361-1.207.21-3.026.502-5.663.899-7.749H31s-4.762 8.093-7.639 8.955" transform="translate(-1132 -1834) matrix(-1 0 0 1 1221 1834.106)"/>
                <path fill="#F4BF9D" d="M76.569 87.623s.692-10.038.254-10.457c-.438-.419-5.561.03-6.852-4.748 0 0-.791-.737-2.423.145-1.086.586-.543-2.408 1.497-2.664 2.04-.255 2.129.833 3.722 2.231 1.592 1.4 3.986 2.144 5.154.347 1.168-1.797 3.078-6.57 1.49-7.329-1.589-.757-5.545 1.004-7.984.687-1.049-.136-1.997-3.514 1.457-3.88 3.454-.366 7.354.998 8.07 2.234.717 1.236 1.534 2.477 1.121 5.253 0 0 8.186.133 6.758 5.357-.398 1.454-2.759 3.686-3.262 5.109-.672 1.898-.887 7.986-.887 7.986l-8.115-.271" transform="translate(-1132 -1834) matrix(-1 0 0 1 1221 1834.106)"/>
                <path fill="#E5A988" d="M82 69.894s-2.74 1.067-2.957 3.312c-.1 1.021-.192 2.914 1.768 3.688 0 0-1.812-1.055-.963-4.157.288-1.048.74-2.12 2.152-2.843M84.676 71.894c-.002.01-.842.559-.946.696-.434.573-.704 1.265-.87 1.947-.252 1.036-.358 2.556.616 3.317 1.132.864 2.549-.406 2.927-1.42.397-1.06-1.365-1.04-1.669-.224.1-1.2 2.438-1.233 2.256.159-.177 1.342-1.737 2.875-3.255 2.454-1.73-.479-1.942-2.522-1.594-3.917.266-1.066 1.119-2.99 2.535-3.012" transform="translate(-1132 -1834) matrix(-1 0 0 1 1221 1834.106)"/>
                <path fill="#F0E6DD" d="M41 94.29s32.47 11.77 33.02-14.396c0 0 7.03 2.973 12.975 3.193 0 0 1.301 32.346-39.108 28.488L41 94.29" transform="translate(-1132 -1834) matrix(-1 0 0 1 1221 1834.106)"/>
                <path fill="#F0E6DD" d="M42.095 86.8s12.995 34.435 9.216 114.694c0 0-23.068 3.15-36.311 0 0 0 9.943-78.867 7.196-117.6L42.095 86.8" transform="translate(-1132 -1834) matrix(-1 0 0 1 1221 1834.106)"/>
                <path fill="#D8CEC5" d="M23 166.894s5.907-3.69 8-10c0 0-7.749 7.461-8 10M44 95.53l-.091.364s-14.775-5.933-21.698-8.385c-.059-1.2-.13-2.406-.211-3.615l6.512 1.003 13.698 4.338c.446 1.49 1.07 3.639 1.79 6.295" transform="translate(-1132 -1834) matrix(-1 0 0 1 1221 1834.106)"/>
                <path fill="#F4BF9D" d="M14.328 51.482C11.002 63.24 33.838 80.045 44.313 83.09c11.667 3.388 18.22-4.284 21.544-16.04 3.58-12.657 5.814-17.597 7.102-22.958.565-2.345-4.723-22.097-16.403-25.444l-8.327-4.901c-11.68-3.347-23.842 3.47-27.165 15.227l-6.736 22.51" transform="translate(-1132 -1834) matrix(-1 0 0 1 1221 1834.106)"/>
                <path fill="#F0E6DD" d="M53.042 79.894s3.98-3.251 4.958-4.716l-10.575-2.284s-2.724 4.229 5.617 7" transform="translate(-1132 -1834) matrix(-1 0 0 1 1221 1834.106)"/>
                <g transform="translate(-1132 -1834) matrix(-1 0 0 1 1221 1834.106) translate(2 .894)">
                    <mask id="jlfnzq7iac" fill="#fff">
                        <use xlink:href="#zboc5apmja"/>
                    </mask>
                    <path fill="url(#90b3ogoi1b)" d="M12.399 56.487S.224 40.527.576 30.842c.097-2.686 8.866-3.232 9.891-5.33 1.2-2.455-7.56-6.544-7.56-6.544s8.24-2.353 12.567-.012c0 0-.555-4.005-1.916-6.255-1.414-2.336-3.306-5.346-3.306-5.346s8.403 1.949 11.597 7.443c0 0 1.215-4.953.268-8.217C20.91 2.42 18.602 0 18.602 0s10.83 2.355 13.602 12.238c0 0 3.346-4.387-.93-12.238 0 0 12.417.99 18.276 13.65 0 0 1.377-1.06 1.692-4.112.332-3.227-.695-5.558-.695-5.558S67.45 16.145 69.52 29.592c0 0 2.164-5.321 2.112-8.746 0 0 7.843 9.727 2.104 21.522-2.088 4.292-9.575-1.768-16.187-6.379-4.652-3.244-15.234-9.253-21.717-6.397-5.433 2.393-14.927 9.728-13.127 19.922l-3.997-1.644c-1.54-2.358-9.11-5.06-6.308 8.617" mask="url(#jlfnzq7iac)"/>
                </g>
                <path fill="#A35241" d="M68.129 69.022c-2.722 1.52-6.018.692-7.441-2.213-1.43-2.903-.909-6.872 1.814-8.39 2.715-1.53 6.607-.03 8.03 2.88 1.428 2.897.312 6.197-2.403 7.723zm-1.136 1.653c3.506-1.062 5.765-4.123 4.772-7.866-.993-3.745-4.866-6.761-8.371-5.7-3.506 1.062-5.097 4.193-4.102 7.94.994 3.749 4.195 6.687 7.701 5.626z" transform="translate(-1132 -1834) matrix(-1 0 0 1 1221 1834.106)"/>
                <path fill="#F4BF9D" d="M73.309 61.955c-3.292.368-2.388 3.763-1.389 3.9 2.324.319 6.095-1.452 7.61-.69L81 64.2c-.683-1.242-4.4-2.614-7.691-2.246" transform="translate(-1132 -1834) matrix(-1 0 0 1 1221 1834.106)"/>
                <g transform="translate(-1132 -1834) matrix(-1 0 0 1 1221 1834.106) translate(52 64.894)">
                    <mask id="ct0220ttof" fill="#fff">
                        <use xlink:href="#tqnsmu8gpd"/>
                    </mask>
                    <path fill="url(#e6yrjgkdhe)" d="M8.995.333S2.225 1.43.474.6l2.935 6.424S8.62 4.388 8.995.333" mask="url(#ct0220ttof)"/>
                </g>
                <path fill="#964315" d="M37.018 45.808c4.051-.918 8.494-.534 12.557 1.086.472-1.113.948-2.228 1.425-3.342-4.992-1.991-14.465 1.06-13.982 2.256M71.937 52.894c-3.664-2.251-8.136-3.548-12.642-3.666-.099-1.11-.198-2.223-.295-3.334 5.537.145 13.802 6.17 12.937 7" transform="translate(-1132 -1834) matrix(-1 0 0 1 1221 1834.106)"/>
                <path fill="#623D2B" d="M53 65.75c.297.194.628.345.963.47.335.139.687.21 1.035.318.352.076.706.126 1.064.191.356.066.715.056 1.075.088.726.08 1.436-.029 2.16-.049.358-.02.71-.104 1.064-.156l1.062-.179-.855-.682c-.028.245-.057.602-.148.901-.057.32-.193.617-.312.92-.086.32-.288.586-.44.877-.144.302-.361.552-.577.81l-.316.395c-.096.145-.234.246-.363.356l-.79.685c-.25.259-.589.38-.885.59-.306.19-.611.394-.923.61.359-.071.723-.153 1.086-.248.358-.112.75-.16 1.081-.348l1.012-.555c.36-.166.61-.475.911-.727.302-.259.59-.534.796-.877.222-.331.486-.64.635-1.016.164-.367.334-.73.423-1.128.115-.398.193-.766.211-1.245l.031-.857-.887.175-1.99.399c-.668.082-1.339.227-2.01.27-1.351.145-2.709.2-4.113.013" transform="translate(-1132 -1834) matrix(-1 0 0 1 1221 1834.106)"/>
                <path fill="#F4BF9D" d="M40 85.894L24 85.894 24 54.894 36.784 64.117 40 85.894" transform="translate(-1132 -1834) matrix(-1 0 0 1 1221 1834.106)"/>
                <path fill="#E5A988" d="M32 76.894c2.397 3.98 5.217 6.494 8 8l-.61-3.911c-2.324-1.082-4.853-2.476-7.39-4.089" transform="translate(-1132 -1834) matrix(-1 0 0 1 1221 1834.106)"/>
                <path fill="#523C2F" d="M41.913 83.894L44 92.894 42.578 92.894 40 83.894 41.913 83.894" transform="translate(-1132 -1834) matrix(-1 0 0 1 1221 1834.106)"/>
                <path fill="#F0E6DD" d="M39.436 83.04s-7.98-3.067-18.392-4.146L20 84.936s14.265 4.913 23 8.958c0 0-2.214-7.417-3.451-10.57-.039-.098-.075-.193-.113-.284" transform="translate(-1132 -1834) matrix(-1 0 0 1 1221 1834.106)"/>
                <path fill="#523C2F" d="M43 90.894s9.452 27.56 5.46 67.226l3.115 4.774.877-4.774s3.87-30.466-8.958-67.226H43" transform="translate(-1132 -1834) matrix(-1 0 0 1 1221 1834.106)"/>
                <path fill="#D8CEC5" d="M22.427 107.894l5.197 2.03s.846 7.288 0 9.51c-.885 2.33-6.624 7.46-6.624 7.46.44-4.28 1.212-14.253 1.427-19" transform="translate(-1132 -1834) matrix(-1 0 0 1 1221 1834.106)"/>
                <path fill="#4C6B7F" d="M43.418 132.73l-33.53-11.834s-1.88-.161-3.659 2.731C4.449 126.517 0 150.186 0 150.186l34.514 8.708.487-.864 1.738.389 6.679-21.585s1.31-.554 0-4.104" transform="translate(-1132 -1834) matrix(-1 0 0 1 1221 1834.106)"/>
                <path fill="#384A62" d="M42.832 137.823s.527-2.85-.287-2.926c-.815-.079-1.928 1.767-1.928 1.767L34 158.514l1.824.38 7.008-21.07" transform="translate(-1132 -1834) matrix(-1 0 0 1 1221 1834.106)"/>
                <path fill="#F0E6DD" d="M42 136.422L40.643 135.894 35 157.674 35.938 157.894 42 136.422" transform="translate(-1132 -1834) matrix(-1 0 0 1 1221 1834.106)"/>
                <path fill="#523C2F" d="M42.815 135.894s.62-2-.407-2S41 135.458 41 135.458l1.815.436" transform="translate(-1132 -1834) matrix(-1 0 0 1 1221 1834.106)"/>
                <path fill="#384A62" d="M39 134.93L39 135.894 7 126.483 7 124.894 39 134.93" transform="translate(-1132 -1834) matrix(-1 0 0 1 1221 1834.106)"/>
                <path fill="#7195AA" d="M14 142.895c0 3.866 3.133 7 6.997 7 3.868 0 7.003-3.134 7.003-7 0-3.865-3.135-7-7.003-7-3.864 0-6.997 3.135-6.997 7" transform="translate(-1132 -1834) matrix(-1 0 0 1 1221 1834.106)"/>
                <path fill="#A86B2E" d="M19 155.894l-6-1.998v-.002l6 2" transform="translate(-1132 -1834) matrix(-1 0 0 1 1221 1834.106)"/>
                <path fill="#B08A80" d="M28 157.894l-9-2 9 2" transform="translate(-1132 -1834) matrix(-1 0 0 1 1221 1834.106)"/>
                <path fill="#5E4C51" d="M28 157.894l-8.623-2.222-6.227-1.606c-2.925-5.12-4.645-10.588-5.054-16.391-.265-3.775.035-7.397.687-10.78l8.94 2.75c-.39 2.347-.553 4.813-.374 7.353.012.158.024.317.038.475-1.72 1.225-2.846 3.259-2.846 5.56 0 3.742 2.975 6.775 6.645 6.775.09 0 .18-.002.27-.005 1.682 2.818 3.867 5.519 6.544 8.091" transform="translate(-1132 -1834) matrix(-1 0 0 1 1221 1834.106)"/>
                <path fill="#A86B2E" d="M19 124.894l-9-2.999 9 2.999" transform="translate(-1132 -1834) matrix(-1 0 0 1 1221 1834.106)"/>
                <path fill="#5E4C51" d="M18.076 127.894L9 124.847c.302-1.36.655-2.68 1.044-3.953L19 124.2c-.355 1.19-.668 2.423-.924 3.694" transform="translate(-1132 -1834) matrix(-1 0 0 1 1221 1834.106)"/>
                <path fill="#543C42" d="M17.753 128.894L9 126.318c.096-.48.201-.955.312-1.424L18 127.621c-.09.42-.173.845-.247 1.273" transform="translate(-1132 -1834) matrix(-1 0 0 1 1221 1834.106)"/>
                <path fill="#706166" d="M20.727 148.894c-3.715 0-6.727-2.95-6.727-6.59 0-2.24 1.14-4.218 2.881-5.41.382 4.2 1.765 8.206 4.119 11.995-.09.004-.181.005-.273.005" transform="translate(-1132 -1834) matrix(-1 0 0 1 1221 1834.106)"/>
                <path fill="#F4BF9D" d="M23.796 165.894s.881-.665 2.25-1.9c2.508-2.265 3.954-5.226 3.954-5.226-7.668-6.594-11.854-14.088-12.444-22.278-1.07-14.817 9.662-27.296 9.77-27.42l-7.165-6.176c-.546.628-13.41 15.6-12.062 34.271.774 10.776 6.057 20.44 15.697 28.73" transform="translate(-1132 -1834) matrix(-1 0 0 1 1221 1834.106)"/>
                <path fill="#523C2F" d="M26.14 153.894s-6.422 6.395-7.14 6.837l3.12 3.163s6.343-5.898 6.88-7.37c0 0-2.364-1.881-2.86-2.63" transform="translate(-1132 -1834) matrix(-1 0 0 1 1221 1834.106)"/>
                <path fill="#E5AA89" d="M20.113 101.894L27 108.187c-.054.064-2.77 3.43-5.28 8.707L13 113.87c3.155-7.068 6.832-11.634 7.113-11.976" transform="translate(-1132 -1834) matrix(-1 0 0 1 1221 1834.106)"/>
                <path fill="#F0E6DD" d="M32 99.887L24.299 116.894 12 108.512 22.051 93.894 32 99.887" transform="translate(-1132 -1834) matrix(-1 0 0 1 1221 1834.106)"/>
                <path fill="#623D2B" d="M47.874 58.894l.08-.672c.046-.424.076-1.038-.005-1.8-.118-.742-.262-1.629-.73-2.516l-.39-.666c-.178-.21-.367-.418-.565-.621-.498-.386-.935-.691-1.88-.725-.262.065-.485.073-.776.188-.301.157-.66.334-.873.537-.433.394-.732.84-.956 1.285-.468.888-.612 1.777-.73 2.516-.078.75-.05 1.371-.003 1.802l.081.672.149-.662c.045-.42.25-1.002.425-1.691.21-.682.537-1.451.99-2.172l.367-.525c.155-.14.304-.282.447-.435.146-.13.272-.154.391-.273.17-.084.484-.1.72-.156-.066.08.273.05.39.123.16.112.342.17.493.306.141.152.291.294.447.434l.364.526c.456.72.784 1.49.99 2.171.176.676.378 1.263.424 1.692l.15.662M65.875 60.894s.027-.245.078-.672c.048-.425.078-1.039-.005-1.801-.117-.742-.262-1.628-.727-2.516l-.392-.666c-.177-.209-.368-.417-.566-.62-.498-.386-.936-.691-1.88-.725-.26.065-.483.072-.773.187-.303.158-.661.335-.873.538-.433.393-.733.84-.956 1.285-.47.887-.613 1.776-.73 2.515-.081.75-.053 1.372-.002 1.803l.078.672.149-.662c.046-.422.252-1.002.427-1.691.206-.683.534-1.451.99-2.172l.363-.525c.157-.14.305-.282.448-.435.15-.13.27-.155.39-.273.172-.084.487-.101.723-.156-.065.08.273.05.391.123.158.113.338.17.49.306.144.152.294.294.447.434l.363.526c.457.718.784 1.49.99 2.17.176.677.378 1.264.424 1.693l.153.662" transform="translate(-1132 -1834) matrix(-1 0 0 1 1221 1834.106)"/>
                <path fill="#E5AA89" d="M29.18 157.894c.534.495.24.235.82.718 0 0-.276.534-.771 1.282-.485-1.424-.048-2-.048-2" transform="translate(-1132 -1834) matrix(-1 0 0 1 1221 1834.106)"/>
                <path fill="#A35241" d="M21.395 49.894L42 58.664 41.606 59.894 21 50.898 21.395 49.894" transform="translate(-1132 -1834) matrix(-1 0 0 1 1221 1834.106)"/>
                <path fill="#F4BF9D" d="M9 52.394c0 3.59 2.909 6.5 6.5 6.5s6.5-2.91 6.5-6.5-2.909-6.5-6.5-6.5-6.5 2.91-6.5 6.5" transform="translate(-1132 -1834) matrix(-1 0 0 1 1221 1834.106)"/>
                <path fill="#623D2B" d="M12 49.895s3.869-.843 5.493 1.43c0 0-3.327-.085-4.177 2.57 0 0 3.055-2.359 5.684-1.432 0 0-2.243-5.853-7-2.568" transform="translate(-1132 -1834) matrix(-1 0 0 1 1221 1834.106)"/>
                <path fill="#702E23" d="M24.858 154.894L25 162.894 24 162.894 24.358 154.894 24.858 154.894" transform="translate(-1132 -1834) matrix(-1 0 0 1 1221 1834.106)"/>
                <path fill="#702E23" d="M28 158.894L20 158.894 20.044 159.656 28 159.894 28 158.894" transform="translate(-1132 -1834) matrix(-1 0 0 1 1221 1834.106)"/>
                <path fill="#702E23" d="M21.497 155.894L27 161.825 26.011 162.894 21 156.43 21.497 155.894" transform="translate(-1132 -1834) matrix(-1 0 0 1 1221 1834.106)"/>
                <path fill="#702E23" d="M26.199 155.894L21 161.791 21.634 162.894 27 156.805 26.199 155.894" transform="translate(-1132 -1834) matrix(-1 0 0 1 1221 1834.106)"/>
                <path fill="#A35241" d="M21 159.22c0 2.03 1.136 3.674 3.067 3.674C26 162.894 28 161.25 28 159.22c0-2.03-1.266-3.326-3.2-3.326-1.934 0-3.8 1.297-3.8 3.326" transform="translate(-1132 -1834) matrix(-1 0 0 1 1221 1834.106)"/>
                <path fill="#F0E6DD" d="M24.482 161.84c1.663-.34 2.806-1.573 2.454-3.2-.346-1.63-2.052-3.038-3.713-2.694-1.66.34-2.492 1.624-2.146 3.254.35 1.626 1.748 2.984 3.405 2.64" transform="translate(-1132 -1834) matrix(-1 0 0 1 1221 1834.106)"/>
                <path fill="#384A62" d="M24.888 157.894L24.888 156.894 24.338 156.894 24.112 157.894 24.888 157.894M24.679 161.894L24.888 160.894 24.112 160.894 24.112 161.894 24.679 161.894M23 159.258L22 159.139 22 159.649 23 159.649 23 159.258M26 159.057L25 159.285 25 159.731 26 159.731 26 159.057" transform="translate(-1132 -1834) matrix(-1 0 0 1 1221 1834.106)"/>
                <path fill="#384A62" d="M26 158.268L24.421 159.894 24 159.637 26 157.894 26 158.268" transform="translate(-1132 -1834) matrix(-1 0 0 1 1221 1834.106)"/>
                <path fill="#384A62" d="M25 159.411L23.214 157.894 23 158.104 24.839 159.894 25 159.411" transform="translate(-1132 -1834) matrix(-1 0 0 1 1221 1834.106)"/>
                <path fill="#4C6B7F" d="M37 104.913s-1.265-1.592-2.23-.796c-.968.796-1.89 8.582-1.757 9.777h.614s.22-7.521 1.098-7.698c.878-.177 1.521.31 1.521.31l.754-1.593" transform="translate(-1132 -1834) matrix(-1 0 0 1 1221 1834.106)"/>
                <path fill="#688899" d="M35 105.171s-.214.502-.446.617c-.231.115-.606.2-.548-.1.058-.301.98-1.262.994-.517" transform="translate(-1132 -1834) matrix(-1 0 0 1 1221 1834.106)"/>
                <path fill="#A35241" d="M37.525 115.317s1.43-12.263-.673-12.421c-2.103-.158-2.09 11.123-1.539 12.421.55 1.299 2.212 0 2.212 0" transform="translate(-1132 -1834) matrix(-1 0 0 1 1221 1834.106)"/>
                <path fill="#BC6658" d="M37.574 108.584s1.18-4.433-.39-4.68c-1.569-.248-1.162 4.517-1.063 4.68.097.162 1.312.609 1.453 0" transform="translate(-1132 -1834) matrix(-1 0 0 1 1221 1834.106)"/>
                <path fill="#EAC794" d="M42 107.234L41.628 115.894 40 115.844 40.296 105.894 42 107.234" transform="translate(-1132 -1834) matrix(-1 0 0 1 1221 1834.106)"/>
                <path fill="#F7E8B5" d="M41.434 115.894L42 104.894 41.348 104.894 41 115.894 41.434 115.894" transform="translate(-1132 -1834) matrix(-1 0 0 1 1221 1834.106)"/>
                <path fill="#CE7167" d="M41.79 105.894s.772-2.804-.647-2.99c-1.418-.188-1.116 2.559-1.116 2.559l1.764.431" transform="translate(-1132 -1834) matrix(-1 0 0 1 1221 1834.106)"/>
                <path fill="#D3D1CF" d="M42.769 107.894L43 105.195 41 104.894 41.043 107.723 42.769 107.894" transform="translate(-1132 -1834) matrix(-1 0 0 1 1221 1834.106)"/>
                <path fill="#F4F4F4" d="M41.548 106.679L41.062 106.595 41.298 105.305 42 105.305 42 105.037 40.199 104.894 40.199 105.096 40.875 105.234 40.615 106.578 40 106.579 40.124 106.776 41.763 106.894 41.548 106.679" transform="translate(-1132 -1834) matrix(-1 0 0 1 1221 1834.106)"/>
                <path fill="#EAA5A0" d="M42 104.894s-.28-.954-.588-.998c-.311-.044-.517.696-.355.766.16.07.943.232.943.232" transform="translate(-1132 -1834) matrix(-1 0 0 1 1221 1834.106)"/>
                <path fill="#D8CEC5" d="M46 113.22s-14.016-1.522-14.697-1.304c-.681.217 0 5.978 0 5.978L46 116.046v-2.825" transform="translate(-1132 -1834) matrix(-1 0 0 1 1221 1834.106)"/>
                <path fill="#4C6B7F" d="M33.94 110.894c-.413 3.084.48 3.257-.216 3.944-.126.127-.71 0-.71 0-.056-.52.057-2.108.277-3.944h.649" transform="translate(-1132 -1834) matrix(-1 0 0 1 1221 1834.106)"/>
                <path fill="#A35241" d="M42.088 61.567c-.032-3.229 2.278-5.946 5.519-5.98 3.241-.039 6.483 2.225 6.514 5.454.043 3.228-3.144 6.202-6.389 6.233-3.237.041-5.604-2.481-5.644-5.707zm-.909-1.804c-.749 3.76.861 7.246 4.634 7.99 3.772.746 8.283-1.532 9.031-5.29.749-3.76-1.245-6.65-5.02-7.396-3.776-.745-7.897.938-8.645 4.696z" transform="translate(-1132 -1834) matrix(-1 0 0 1 1221 1834.106)"/>
                <path fill="#EDF6F9" d="M51 62.724L49.018 57.395 48 56.894 51 63.894 51 62.724M48 65.222L46.444 61.232 46 60.894 48 65.894 48 65.222M69 66.485L66.643 61.041 66 60.894 69 66.894 69 66.485M67 68.126L64 62.894 64 64.086 67 68.894 67 68.126" transform="translate(-1132 -1834) matrix(-1 0 0 1 1221 1834.106)"/>
                <g transform="translate(-1132 -1834) matrix(-1 0 0 1 1221 1834.106) translate(40 69.894)">
                    <mask id="jctzlvskyi" fill="#fff">
                        <use xlink:href="#s0tg3o6ycg"/>
                    </mask>
                    <path fill="url(#f7yvrpguah)" d="M.337 3.603S3.338-1.074 13.343.233c9.19 1.199 12.015 6.162 12.015 8.333 0 0-1.501 1.861-5.143-3.257 0 0 .845 4.415-1.603 3.4-1.562-.649-2.034-3.474-1.761-4.29 0 0-.428 3.499-2.39 2.879-1.964-.621-3.065-2.305-2.203-3.772 0 0-2.163 3.358-4.59 2.17C5.24 4.512 7.08 3.062 7.08 3.062 4.335 4.3-.134 4.92.337 3.603" mask="url(#jctzlvskyi)"/>
                </g>
                <path fill="#F0E6DD" d="M27 113.024s-14.132 24.853 0 38.367c0 0-8.008 8.38-8.53 11.503 0 0-25.78-18.783-6.01-54l14.54 4.13" transform="translate(-1132 -1834) matrix(-1 0 0 1 1221 1834.106)"/>
                <path fill="#D8CEC5" d="M25 168.894s6.57-3.457 8-8c0 0-2.194 4.063-8 8" transform="translate(-1132 -1834) matrix(-1 0 0 1 1221 1834.106)"/>
                <path fill="#E5A988" d="M49 78.894s2.3 1.828 5 1.932c0 0-2.92.628-5-1.932" transform="translate(-1132 -1834) matrix(-1 0 0 1 1221 1834.106)"/>
            </g>
        </g>
    </g>
</svg>
